<mxfile host="app.diagrams.net" modified="2022-12-16T06:31:22.340Z" agent="5.0 (X11)" etag="VKUR4uB6QqxD6-C1gnIB" version="20.7.2" type="github" pages="12">
  <diagram id="fFHC_7txeIVcdZuWyrHd" name="1.1.1">
    <mxGraphModel dx="1434" dy="790" grid="1" gridSize="10" guides="1" tooltips="1" connect="1" arrows="1" fold="1" page="1" pageScale="1" pageWidth="827" pageHeight="1169" math="0" shadow="0">
      <root>
        <mxCell id="0" />
        <mxCell id="1" parent="0" />
        <mxCell id="L5hjwlni4Q0q_dEiet6R-3" style="edgeStyle=orthogonalEdgeStyle;rounded=0;orthogonalLoop=1;jettySize=auto;html=1;exitX=0.5;exitY=1;exitDx=0;exitDy=0;exitPerimeter=0;entryX=0.5;entryY=0;entryDx=0;entryDy=0;" parent="1" source="fFXG-HMuX8piY9fQD1-t-1" target="gXahSuA_ogrp4J6pNf4H-1" edge="1">
          <mxGeometry relative="1" as="geometry" />
        </mxCell>
        <mxCell id="fFXG-HMuX8piY9fQD1-t-1" value="Начало" style="strokeWidth=1;html=1;shape=mxgraph.flowchart.terminator;whiteSpace=wrap;" parent="1" vertex="1">
          <mxGeometry x="10" y="10" width="100" height="30" as="geometry" />
        </mxCell>
        <mxCell id="fFXG-HMuX8piY9fQD1-t-2" value="Конец" style="strokeWidth=1;html=1;shape=mxgraph.flowchart.terminator;whiteSpace=wrap;" parent="1" vertex="1">
          <mxGeometry x="10" y="310" width="100" height="30" as="geometry" />
        </mxCell>
        <mxCell id="L5hjwlni4Q0q_dEiet6R-4" style="edgeStyle=orthogonalEdgeStyle;rounded=0;orthogonalLoop=1;jettySize=auto;html=1;exitX=0.5;exitY=1;exitDx=0;exitDy=0;entryX=0.5;entryY=0;entryDx=0;entryDy=0;" parent="1" source="gXahSuA_ogrp4J6pNf4H-1" target="gXahSuA_ogrp4J6pNf4H-2" edge="1">
          <mxGeometry relative="1" as="geometry" />
        </mxCell>
        <mxCell id="gXahSuA_ogrp4J6pNf4H-1" value="Ввод a" style="shape=parallelogram;perimeter=parallelogramPerimeter;whiteSpace=wrap;html=1;fixedSize=1;" parent="1" vertex="1">
          <mxGeometry x="10" y="70" width="100" height="30" as="geometry" />
        </mxCell>
        <mxCell id="L5hjwlni4Q0q_dEiet6R-5" style="edgeStyle=orthogonalEdgeStyle;rounded=0;orthogonalLoop=1;jettySize=auto;html=1;exitX=0.5;exitY=1;exitDx=0;exitDy=0;entryX=0.5;entryY=0;entryDx=0;entryDy=0;" parent="1" source="gXahSuA_ogrp4J6pNf4H-2" target="J-IPVJ6xymmJ15KLjd6n-1" edge="1">
          <mxGeometry relative="1" as="geometry" />
        </mxCell>
        <mxCell id="gXahSuA_ogrp4J6pNf4H-2" value="Ввод b" style="shape=parallelogram;perimeter=parallelogramPerimeter;whiteSpace=wrap;html=1;fixedSize=1;" parent="1" vertex="1">
          <mxGeometry x="10" y="130" width="100" height="30" as="geometry" />
        </mxCell>
        <mxCell id="L5hjwlni4Q0q_dEiet6R-6" style="edgeStyle=orthogonalEdgeStyle;rounded=0;orthogonalLoop=1;jettySize=auto;html=1;exitX=0.5;exitY=1;exitDx=0;exitDy=0;entryX=0.5;entryY=0;entryDx=0;entryDy=0;" parent="1" source="J-IPVJ6xymmJ15KLjd6n-1" target="L5hjwlni4Q0q_dEiet6R-1" edge="1">
          <mxGeometry relative="1" as="geometry" />
        </mxCell>
        <mxCell id="J-IPVJ6xymmJ15KLjd6n-1" value="res = a + b" style="rounded=0;whiteSpace=wrap;html=1;" parent="1" vertex="1">
          <mxGeometry x="10" y="190" width="100" height="30" as="geometry" />
        </mxCell>
        <mxCell id="L5hjwlni4Q0q_dEiet6R-7" style="edgeStyle=orthogonalEdgeStyle;rounded=0;orthogonalLoop=1;jettySize=auto;html=1;exitX=0.5;exitY=1;exitDx=0;exitDy=0;entryX=0.5;entryY=0;entryDx=0;entryDy=0;entryPerimeter=0;" parent="1" source="L5hjwlni4Q0q_dEiet6R-1" target="fFXG-HMuX8piY9fQD1-t-2" edge="1">
          <mxGeometry relative="1" as="geometry" />
        </mxCell>
        <mxCell id="L5hjwlni4Q0q_dEiet6R-1" value="Вывод res" style="shape=parallelogram;perimeter=parallelogramPerimeter;whiteSpace=wrap;html=1;fixedSize=1;" parent="1" vertex="1">
          <mxGeometry x="10" y="250" width="100" height="30" as="geometry" />
        </mxCell>
      </root>
    </mxGraphModel>
  </diagram>
  <diagram id="u06ajI1Rywr_b1les9b6" name="2.2.1">
    <mxGraphModel dx="796" dy="790" grid="1" gridSize="10" guides="1" tooltips="1" connect="1" arrows="1" fold="1" page="1" pageScale="1" pageWidth="827" pageHeight="1169" math="0" shadow="0">
      <root>
        <mxCell id="0" />
        <mxCell id="1" parent="0" />
        <mxCell id="LcK6r9YCNFxA0HdBfNfa-14" style="edgeStyle=orthogonalEdgeStyle;rounded=0;orthogonalLoop=1;jettySize=auto;html=1;exitX=0.5;exitY=1;exitDx=0;exitDy=0;entryX=0.5;entryY=0;entryDx=0;entryDy=0;" parent="1" target="LcK6r9YCNFxA0HdBfNfa-3" edge="1">
          <mxGeometry relative="1" as="geometry">
            <mxPoint x="60" y="40" as="sourcePoint" />
          </mxGeometry>
        </mxCell>
        <mxCell id="LcK6r9YCNFxA0HdBfNfa-15" style="edgeStyle=orthogonalEdgeStyle;rounded=0;orthogonalLoop=1;jettySize=auto;html=1;exitX=0.5;exitY=1;exitDx=0;exitDy=0;entryX=0.5;entryY=0;entryDx=0;entryDy=0;" parent="1" source="LcK6r9YCNFxA0HdBfNfa-3" target="LcK6r9YCNFxA0HdBfNfa-4" edge="1">
          <mxGeometry relative="1" as="geometry" />
        </mxCell>
        <mxCell id="LcK6r9YCNFxA0HdBfNfa-3" value="Ввод n" style="shape=parallelogram;perimeter=parallelogramPerimeter;whiteSpace=wrap;html=1;fixedSize=1;" parent="1" vertex="1">
          <mxGeometry x="10" y="70" width="100" height="30" as="geometry" />
        </mxCell>
        <mxCell id="9hEXR58S-OuS3Pdgw5wF-2" style="edgeStyle=orthogonalEdgeStyle;rounded=0;orthogonalLoop=1;jettySize=auto;html=1;exitX=0.5;exitY=1;exitDx=0;exitDy=0;entryX=0.5;entryY=0;entryDx=0;entryDy=0;" parent="1" source="LcK6r9YCNFxA0HdBfNfa-4" target="9hEXR58S-OuS3Pdgw5wF-1" edge="1">
          <mxGeometry relative="1" as="geometry" />
        </mxCell>
        <mxCell id="LcK6r9YCNFxA0HdBfNfa-4" value="f = [0, 1]" style="rounded=0;whiteSpace=wrap;html=1;" parent="1" vertex="1">
          <mxGeometry x="10" y="130" width="100" height="30" as="geometry" />
        </mxCell>
        <mxCell id="LcK6r9YCNFxA0HdBfNfa-17" style="edgeStyle=orthogonalEdgeStyle;rounded=0;orthogonalLoop=1;jettySize=auto;html=1;exitX=0.5;exitY=1;exitDx=0;exitDy=0;entryX=0.5;entryY=0;entryDx=0;entryDy=0;" parent="1" source="LcK6r9YCNFxA0HdBfNfa-5" target="LcK6r9YCNFxA0HdBfNfa-12" edge="1">
          <mxGeometry relative="1" as="geometry" />
        </mxCell>
        <mxCell id="LcK6r9YCNFxA0HdBfNfa-5" value="&lt;div&gt;Цикл 1&lt;br&gt;&lt;/div&gt;i &amp;lt; n+1" style="shape=loopLimit;whiteSpace=wrap;html=1;" parent="1" vertex="1">
          <mxGeometry x="10" y="250" width="100" height="50" as="geometry" />
        </mxCell>
        <mxCell id="LcK6r9YCNFxA0HdBfNfa-8" value="" style="group" parent="1" vertex="1" connectable="0">
          <mxGeometry x="10" y="510" width="100" height="50" as="geometry" />
        </mxCell>
        <mxCell id="LcK6r9YCNFxA0HdBfNfa-6" value="" style="shape=loopLimit;whiteSpace=wrap;html=1;rotation=-180;" parent="LcK6r9YCNFxA0HdBfNfa-8" vertex="1">
          <mxGeometry width="100" height="50" as="geometry" />
        </mxCell>
        <mxCell id="LcK6r9YCNFxA0HdBfNfa-7" value="Конец цикла 1" style="text;html=1;strokeColor=none;fillColor=none;align=center;verticalAlign=middle;whiteSpace=wrap;rounded=0;" parent="LcK6r9YCNFxA0HdBfNfa-8" vertex="1">
          <mxGeometry x="16.666666666666668" y="6.25" width="66.66666666666667" height="37.5" as="geometry" />
        </mxCell>
        <mxCell id="jRBz5fBR_gKbdxhnYyhe-5" style="edgeStyle=orthogonalEdgeStyle;rounded=0;orthogonalLoop=1;jettySize=auto;html=1;exitX=0.5;exitY=1;exitDx=0;exitDy=0;entryX=0.5;entryY=0;entryDx=0;entryDy=0;" parent="1" source="LcK6r9YCNFxA0HdBfNfa-12" target="jRBz5fBR_gKbdxhnYyhe-4" edge="1">
          <mxGeometry relative="1" as="geometry" />
        </mxCell>
        <mxCell id="LcK6r9YCNFxA0HdBfNfa-12" value="t = f[i-1] + f[i-2]" style="rounded=0;whiteSpace=wrap;html=1;" parent="1" vertex="1">
          <mxGeometry x="10" y="330" width="100" height="30" as="geometry" />
        </mxCell>
        <mxCell id="jRBz5fBR_gKbdxhnYyhe-3" style="edgeStyle=orthogonalEdgeStyle;rounded=0;orthogonalLoop=1;jettySize=auto;html=1;exitX=0.5;exitY=1;exitDx=0;exitDy=0;entryX=0.5;entryY=0;entryDx=0;entryDy=0;entryPerimeter=0;" parent="1" source="LcK6r9YCNFxA0HdBfNfa-21" target="jRBz5fBR_gKbdxhnYyhe-2" edge="1">
          <mxGeometry relative="1" as="geometry" />
        </mxCell>
        <mxCell id="LcK6r9YCNFxA0HdBfNfa-21" value="Вывод f[-1]" style="shape=parallelogram;perimeter=parallelogramPerimeter;whiteSpace=wrap;html=1;fixedSize=1;" parent="1" vertex="1">
          <mxGeometry x="10" y="590" width="100" height="30" as="geometry" />
        </mxCell>
        <mxCell id="LcK6r9YCNFxA0HdBfNfa-22" style="edgeStyle=orthogonalEdgeStyle;rounded=0;orthogonalLoop=1;jettySize=auto;html=1;exitX=0.5;exitY=0;exitDx=0;exitDy=0;entryX=0.5;entryY=0;entryDx=0;entryDy=0;" parent="1" source="LcK6r9YCNFxA0HdBfNfa-6" target="LcK6r9YCNFxA0HdBfNfa-21" edge="1">
          <mxGeometry relative="1" as="geometry" />
        </mxCell>
        <mxCell id="jRBz5fBR_gKbdxhnYyhe-1" value="Начало" style="strokeWidth=1;html=1;shape=mxgraph.flowchart.terminator;whiteSpace=wrap;" parent="1" vertex="1">
          <mxGeometry x="10" y="10" width="100" height="30" as="geometry" />
        </mxCell>
        <mxCell id="jRBz5fBR_gKbdxhnYyhe-2" value="Конец" style="strokeWidth=1;html=1;shape=mxgraph.flowchart.terminator;whiteSpace=wrap;" parent="1" vertex="1">
          <mxGeometry x="10" y="650" width="100" height="30" as="geometry" />
        </mxCell>
        <mxCell id="9hEXR58S-OuS3Pdgw5wF-5" style="edgeStyle=orthogonalEdgeStyle;rounded=0;orthogonalLoop=1;jettySize=auto;html=1;exitX=0.5;exitY=1;exitDx=0;exitDy=0;entryX=0.5;entryY=0;entryDx=0;entryDy=0;" parent="1" source="jRBz5fBR_gKbdxhnYyhe-4" target="9hEXR58S-OuS3Pdgw5wF-4" edge="1">
          <mxGeometry relative="1" as="geometry" />
        </mxCell>
        <mxCell id="jRBz5fBR_gKbdxhnYyhe-4" value="f.append(t)" style="shape=process;whiteSpace=wrap;html=1;backgroundOutline=1;strokeWidth=1;" parent="1" vertex="1">
          <mxGeometry x="10" y="390" width="100" height="30" as="geometry" />
        </mxCell>
        <mxCell id="9hEXR58S-OuS3Pdgw5wF-3" style="edgeStyle=orthogonalEdgeStyle;rounded=0;orthogonalLoop=1;jettySize=auto;html=1;exitX=0.5;exitY=1;exitDx=0;exitDy=0;entryX=0.5;entryY=0;entryDx=0;entryDy=0;" parent="1" source="9hEXR58S-OuS3Pdgw5wF-1" target="LcK6r9YCNFxA0HdBfNfa-5" edge="1">
          <mxGeometry relative="1" as="geometry" />
        </mxCell>
        <mxCell id="9hEXR58S-OuS3Pdgw5wF-1" value="i = 2" style="rounded=0;whiteSpace=wrap;html=1;" parent="1" vertex="1">
          <mxGeometry x="10" y="190" width="100" height="30" as="geometry" />
        </mxCell>
        <mxCell id="9hEXR58S-OuS3Pdgw5wF-6" style="edgeStyle=orthogonalEdgeStyle;rounded=0;orthogonalLoop=1;jettySize=auto;html=1;exitX=0.5;exitY=1;exitDx=0;exitDy=0;entryX=0.5;entryY=1;entryDx=0;entryDy=0;" parent="1" source="9hEXR58S-OuS3Pdgw5wF-4" target="LcK6r9YCNFxA0HdBfNfa-6" edge="1">
          <mxGeometry relative="1" as="geometry" />
        </mxCell>
        <mxCell id="9hEXR58S-OuS3Pdgw5wF-4" value="i = i + 1" style="rounded=0;whiteSpace=wrap;html=1;" parent="1" vertex="1">
          <mxGeometry x="10" y="450" width="100" height="30" as="geometry" />
        </mxCell>
      </root>
    </mxGraphModel>
  </diagram>
  <diagram id="ChCr-mN0gIybatDo4z-m" name="2.2.2">
    <mxGraphModel dx="796" dy="790" grid="1" gridSize="10" guides="1" tooltips="1" connect="1" arrows="1" fold="1" page="1" pageScale="1" pageWidth="827" pageHeight="1169" math="0" shadow="0">
      <root>
        <mxCell id="0" />
        <mxCell id="1" parent="0" />
        <mxCell id="PJA2VPzgdWDN4zV5sk2o-1" style="edgeStyle=orthogonalEdgeStyle;rounded=0;orthogonalLoop=1;jettySize=auto;html=1;exitX=0.5;exitY=1;exitDx=0;exitDy=0;entryX=0.5;entryY=0;entryDx=0;entryDy=0;" parent="1" target="PJA2VPzgdWDN4zV5sk2o-4" edge="1">
          <mxGeometry relative="1" as="geometry">
            <mxPoint x="60" y="40" as="sourcePoint" />
          </mxGeometry>
        </mxCell>
        <mxCell id="PJA2VPzgdWDN4zV5sk2o-3" style="edgeStyle=orthogonalEdgeStyle;rounded=0;orthogonalLoop=1;jettySize=auto;html=1;exitX=0.5;exitY=1;exitDx=0;exitDy=0;entryX=0.5;entryY=0;entryDx=0;entryDy=0;" parent="1" source="PJA2VPzgdWDN4zV5sk2o-4" target="PJA2VPzgdWDN4zV5sk2o-6" edge="1">
          <mxGeometry relative="1" as="geometry" />
        </mxCell>
        <mxCell id="PJA2VPzgdWDN4zV5sk2o-4" value="Ввод n" style="shape=parallelogram;perimeter=parallelogramPerimeter;whiteSpace=wrap;html=1;fixedSize=1;" parent="1" vertex="1">
          <mxGeometry x="10" y="70" width="100" height="30" as="geometry" />
        </mxCell>
        <mxCell id="PJA2VPzgdWDN4zV5sk2o-5" style="edgeStyle=orthogonalEdgeStyle;rounded=0;orthogonalLoop=1;jettySize=auto;html=1;exitX=0.5;exitY=1;exitDx=0;exitDy=0;entryX=0.5;entryY=0;entryDx=0;entryDy=0;" parent="1" source="PJA2VPzgdWDN4zV5sk2o-6" target="PJA2VPzgdWDN4zV5sk2o-8" edge="1">
          <mxGeometry relative="1" as="geometry" />
        </mxCell>
        <mxCell id="PJA2VPzgdWDN4zV5sk2o-6" value="a = 0" style="rounded=0;whiteSpace=wrap;html=1;" parent="1" vertex="1">
          <mxGeometry x="10" y="130" width="100" height="30" as="geometry" />
        </mxCell>
        <mxCell id="h9tIE-FR9SUACiEo_GqW-2" style="edgeStyle=orthogonalEdgeStyle;rounded=0;orthogonalLoop=1;jettySize=auto;html=1;exitX=0.5;exitY=1;exitDx=0;exitDy=0;entryX=0.5;entryY=0;entryDx=0;entryDy=0;" parent="1" source="PJA2VPzgdWDN4zV5sk2o-8" target="h9tIE-FR9SUACiEo_GqW-1" edge="1">
          <mxGeometry relative="1" as="geometry" />
        </mxCell>
        <mxCell id="PJA2VPzgdWDN4zV5sk2o-8" value="b = 1" style="rounded=0;whiteSpace=wrap;html=1;" parent="1" vertex="1">
          <mxGeometry x="10" y="190" width="100" height="30" as="geometry" />
        </mxCell>
        <mxCell id="PJA2VPzgdWDN4zV5sk2o-9" style="edgeStyle=orthogonalEdgeStyle;rounded=0;orthogonalLoop=1;jettySize=auto;html=1;exitX=0.5;exitY=1;exitDx=0;exitDy=0;entryX=0.5;entryY=0;entryDx=0;entryDy=0;" parent="1" source="PJA2VPzgdWDN4zV5sk2o-10" target="PJA2VPzgdWDN4zV5sk2o-12" edge="1">
          <mxGeometry relative="1" as="geometry" />
        </mxCell>
        <mxCell id="PJA2VPzgdWDN4zV5sk2o-10" value="&lt;div&gt;Цикл 1&lt;br&gt;&lt;/div&gt;i &amp;lt; n+1" style="shape=loopLimit;whiteSpace=wrap;html=1;" parent="1" vertex="1">
          <mxGeometry x="10" y="310" width="100" height="50" as="geometry" />
        </mxCell>
        <mxCell id="PJA2VPzgdWDN4zV5sk2o-11" style="edgeStyle=orthogonalEdgeStyle;rounded=0;orthogonalLoop=1;jettySize=auto;html=1;exitX=0.5;exitY=1;exitDx=0;exitDy=0;entryX=0.5;entryY=0;entryDx=0;entryDy=0;" parent="1" source="PJA2VPzgdWDN4zV5sk2o-12" target="PJA2VPzgdWDN4zV5sk2o-14" edge="1">
          <mxGeometry relative="1" as="geometry" />
        </mxCell>
        <mxCell id="PJA2VPzgdWDN4zV5sk2o-12" value="temp = b % 10" style="rounded=0;whiteSpace=wrap;html=1;" parent="1" vertex="1">
          <mxGeometry x="10" y="390" width="100" height="30" as="geometry" />
        </mxCell>
        <mxCell id="PJA2VPzgdWDN4zV5sk2o-13" style="edgeStyle=orthogonalEdgeStyle;rounded=0;orthogonalLoop=1;jettySize=auto;html=1;exitX=0.5;exitY=1;exitDx=0;exitDy=0;entryX=0.5;entryY=0;entryDx=0;entryDy=0;" parent="1" source="PJA2VPzgdWDN4zV5sk2o-14" target="PJA2VPzgdWDN4zV5sk2o-16" edge="1">
          <mxGeometry relative="1" as="geometry" />
        </mxCell>
        <mxCell id="PJA2VPzgdWDN4zV5sk2o-14" value="&lt;div&gt;b = b + a % 10&lt;/div&gt;" style="rounded=0;whiteSpace=wrap;html=1;" parent="1" vertex="1">
          <mxGeometry x="10" y="450" width="100" height="30" as="geometry" />
        </mxCell>
        <mxCell id="7uxCP4E83pheU-_T2Lkp-2" style="edgeStyle=orthogonalEdgeStyle;rounded=0;orthogonalLoop=1;jettySize=auto;html=1;exitX=0.5;exitY=1;exitDx=0;exitDy=0;entryX=0.5;entryY=0;entryDx=0;entryDy=0;" parent="1" source="PJA2VPzgdWDN4zV5sk2o-16" target="7uxCP4E83pheU-_T2Lkp-1" edge="1">
          <mxGeometry relative="1" as="geometry" />
        </mxCell>
        <mxCell id="PJA2VPzgdWDN4zV5sk2o-16" value="a = temp" style="rounded=0;whiteSpace=wrap;html=1;" parent="1" vertex="1">
          <mxGeometry x="10" y="510" width="100" height="30" as="geometry" />
        </mxCell>
        <mxCell id="PJA2VPzgdWDN4zV5sk2o-17" value="" style="group" parent="1" vertex="1" connectable="0">
          <mxGeometry x="10" y="630" width="100" height="50" as="geometry" />
        </mxCell>
        <mxCell id="PJA2VPzgdWDN4zV5sk2o-18" value="" style="shape=loopLimit;whiteSpace=wrap;html=1;rotation=-180;" parent="PJA2VPzgdWDN4zV5sk2o-17" vertex="1">
          <mxGeometry width="100" height="50" as="geometry" />
        </mxCell>
        <mxCell id="PJA2VPzgdWDN4zV5sk2o-19" value="Конец цикла 1" style="text;html=1;strokeColor=none;fillColor=none;align=center;verticalAlign=middle;whiteSpace=wrap;rounded=0;" parent="PJA2VPzgdWDN4zV5sk2o-17" vertex="1">
          <mxGeometry x="16.666666666666668" y="6.25" width="66.66666666666667" height="37.5" as="geometry" />
        </mxCell>
        <mxCell id="PJA2VPzgdWDN4zV5sk2o-20" style="edgeStyle=orthogonalEdgeStyle;rounded=0;orthogonalLoop=1;jettySize=auto;html=1;exitX=0.5;exitY=1;exitDx=0;exitDy=0;entryX=0.5;entryY=0;entryDx=0;entryDy=0;" parent="1" source="PJA2VPzgdWDN4zV5sk2o-21" target="PJA2VPzgdWDN4zV5sk2o-24" edge="1">
          <mxGeometry relative="1" as="geometry" />
        </mxCell>
        <mxCell id="PJA2VPzgdWDN4zV5sk2o-21" value="&lt;div&gt;b = b % 10&lt;br&gt;&lt;/div&gt;" style="rounded=0;whiteSpace=wrap;html=1;" parent="1" vertex="1">
          <mxGeometry x="10" y="710" width="100" height="30" as="geometry" />
        </mxCell>
        <mxCell id="PJA2VPzgdWDN4zV5sk2o-22" style="edgeStyle=orthogonalEdgeStyle;rounded=0;orthogonalLoop=1;jettySize=auto;html=1;exitX=0.5;exitY=0;exitDx=0;exitDy=0;entryX=0.5;entryY=0;entryDx=0;entryDy=0;" parent="1" source="PJA2VPzgdWDN4zV5sk2o-18" target="PJA2VPzgdWDN4zV5sk2o-21" edge="1">
          <mxGeometry relative="1" as="geometry" />
        </mxCell>
        <mxCell id="7uxCP4E83pheU-_T2Lkp-4" style="edgeStyle=orthogonalEdgeStyle;rounded=0;orthogonalLoop=1;jettySize=auto;html=1;exitX=0.5;exitY=1;exitDx=0;exitDy=0;entryX=0.5;entryY=0;entryDx=0;entryDy=0;entryPerimeter=0;" parent="1" source="PJA2VPzgdWDN4zV5sk2o-24" target="YRco56axZBafgTUU7ome-2" edge="1">
          <mxGeometry relative="1" as="geometry" />
        </mxCell>
        <mxCell id="PJA2VPzgdWDN4zV5sk2o-24" value="Вывод b" style="shape=parallelogram;perimeter=parallelogramPerimeter;whiteSpace=wrap;html=1;fixedSize=1;" parent="1" vertex="1">
          <mxGeometry x="10" y="770" width="100" height="30" as="geometry" />
        </mxCell>
        <mxCell id="YRco56axZBafgTUU7ome-1" value="Начало" style="strokeWidth=1;html=1;shape=mxgraph.flowchart.terminator;whiteSpace=wrap;" parent="1" vertex="1">
          <mxGeometry x="10" y="10" width="100" height="30" as="geometry" />
        </mxCell>
        <mxCell id="YRco56axZBafgTUU7ome-2" value="Конец" style="strokeWidth=1;html=1;shape=mxgraph.flowchart.terminator;whiteSpace=wrap;" parent="1" vertex="1">
          <mxGeometry x="10" y="830" width="100" height="30" as="geometry" />
        </mxCell>
        <mxCell id="h9tIE-FR9SUACiEo_GqW-3" style="edgeStyle=orthogonalEdgeStyle;rounded=0;orthogonalLoop=1;jettySize=auto;html=1;exitX=0.5;exitY=1;exitDx=0;exitDy=0;entryX=0.5;entryY=0;entryDx=0;entryDy=0;" parent="1" source="h9tIE-FR9SUACiEo_GqW-1" target="PJA2VPzgdWDN4zV5sk2o-10" edge="1">
          <mxGeometry relative="1" as="geometry" />
        </mxCell>
        <mxCell id="h9tIE-FR9SUACiEo_GqW-1" value="i = 2" style="rounded=0;whiteSpace=wrap;html=1;" parent="1" vertex="1">
          <mxGeometry x="10" y="250" width="100" height="30" as="geometry" />
        </mxCell>
        <mxCell id="7uxCP4E83pheU-_T2Lkp-3" style="edgeStyle=orthogonalEdgeStyle;rounded=0;orthogonalLoop=1;jettySize=auto;html=1;exitX=0.5;exitY=1;exitDx=0;exitDy=0;entryX=0.5;entryY=1;entryDx=0;entryDy=0;" parent="1" source="7uxCP4E83pheU-_T2Lkp-1" target="PJA2VPzgdWDN4zV5sk2o-18" edge="1">
          <mxGeometry relative="1" as="geometry" />
        </mxCell>
        <mxCell id="7uxCP4E83pheU-_T2Lkp-1" value="i = i + 1" style="rounded=0;whiteSpace=wrap;html=1;" parent="1" vertex="1">
          <mxGeometry x="10" y="570" width="100" height="30" as="geometry" />
        </mxCell>
      </root>
    </mxGraphModel>
  </diagram>
  <diagram id="GVCEGxj84KEUb66TbP11" name="2.2.3">
    <mxGraphModel dx="964" dy="790" grid="1" gridSize="10" guides="1" tooltips="1" connect="1" arrows="1" fold="1" page="1" pageScale="1" pageWidth="827" pageHeight="1169" math="0" shadow="0">
      <root>
        <mxCell id="0" />
        <mxCell id="1" parent="0" />
        <mxCell id="5J-hjINicNDppn4EXIw6-1" style="edgeStyle=orthogonalEdgeStyle;rounded=0;orthogonalLoop=1;jettySize=auto;html=1;exitX=0.5;exitY=1;exitDx=0;exitDy=0;entryX=0.5;entryY=0;entryDx=0;entryDy=0;" parent="1" target="5J-hjINicNDppn4EXIw6-3" edge="1">
          <mxGeometry relative="1" as="geometry">
            <mxPoint x="175" y="40" as="sourcePoint" />
          </mxGeometry>
        </mxCell>
        <mxCell id="5J-hjINicNDppn4EXIw6-5" style="edgeStyle=orthogonalEdgeStyle;rounded=0;orthogonalLoop=1;jettySize=auto;html=1;exitX=0.5;exitY=1;exitDx=0;exitDy=0;entryX=0.5;entryY=0;entryDx=0;entryDy=0;" parent="1" source="5J-hjINicNDppn4EXIw6-3" target="5J-hjINicNDppn4EXIw6-4" edge="1">
          <mxGeometry relative="1" as="geometry" />
        </mxCell>
        <mxCell id="5J-hjINicNDppn4EXIw6-3" value="Ввод n" style="shape=parallelogram;perimeter=parallelogramPerimeter;whiteSpace=wrap;html=1;fixedSize=1;" parent="1" vertex="1">
          <mxGeometry x="125" y="70" width="100" height="30" as="geometry" />
        </mxCell>
        <mxCell id="IIKSc8ARAkmDjXuPDUUW-1" style="edgeStyle=orthogonalEdgeStyle;rounded=0;orthogonalLoop=1;jettySize=auto;html=1;exitX=0.5;exitY=1;exitDx=0;exitDy=0;entryX=0.5;entryY=0;entryDx=0;entryDy=0;" parent="1" source="5J-hjINicNDppn4EXIw6-4" target="0TV4zHveYr12r0oyM47i-1" edge="1">
          <mxGeometry relative="1" as="geometry" />
        </mxCell>
        <mxCell id="5J-hjINicNDppn4EXIw6-4" value="Ввод m" style="shape=parallelogram;perimeter=parallelogramPerimeter;whiteSpace=wrap;html=1;fixedSize=1;" parent="1" vertex="1">
          <mxGeometry x="125" y="130" width="100" height="30" as="geometry" />
        </mxCell>
        <mxCell id="IIKSc8ARAkmDjXuPDUUW-3" style="edgeStyle=orthogonalEdgeStyle;rounded=0;orthogonalLoop=1;jettySize=auto;html=1;exitX=0.5;exitY=1;exitDx=0;exitDy=0;entryX=0.5;entryY=0;entryDx=0;entryDy=0;" parent="1" source="0TV4zHveYr12r0oyM47i-1" target="IIKSc8ARAkmDjXuPDUUW-2" edge="1">
          <mxGeometry relative="1" as="geometry" />
        </mxCell>
        <mxCell id="0TV4zHveYr12r0oyM47i-1" value="f = [0, 1]" style="rounded=0;whiteSpace=wrap;html=1;" parent="1" vertex="1">
          <mxGeometry x="125" y="190" width="100" height="30" as="geometry" />
        </mxCell>
        <mxCell id="IIKSc8ARAkmDjXuPDUUW-8" style="edgeStyle=orthogonalEdgeStyle;rounded=0;orthogonalLoop=1;jettySize=auto;html=1;exitX=0.5;exitY=1;exitDx=0;exitDy=0;entryX=0.5;entryY=0;entryDx=0;entryDy=0;" parent="1" source="IIKSc8ARAkmDjXuPDUUW-2" target="IIKSc8ARAkmDjXuPDUUW-4" edge="1">
          <mxGeometry relative="1" as="geometry" />
        </mxCell>
        <mxCell id="IIKSc8ARAkmDjXuPDUUW-2" value="i = 1" style="rounded=0;whiteSpace=wrap;html=1;" parent="1" vertex="1">
          <mxGeometry x="125" y="250" width="100" height="30" as="geometry" />
        </mxCell>
        <mxCell id="cJxBNXaI8FFhSzxOagck-2" style="edgeStyle=orthogonalEdgeStyle;rounded=0;orthogonalLoop=1;jettySize=auto;html=1;exitX=0.5;exitY=1;exitDx=0;exitDy=0;entryX=0.5;entryY=0;entryDx=0;entryDy=0;" parent="1" source="IIKSc8ARAkmDjXuPDUUW-4" target="IIKSc8ARAkmDjXuPDUUW-9" edge="1">
          <mxGeometry relative="1" as="geometry" />
        </mxCell>
        <mxCell id="IIKSc8ARAkmDjXuPDUUW-4" value="&lt;div&gt;Начало&lt;/div&gt;&lt;div&gt;цикла 1&lt;br&gt;&lt;/div&gt;" style="shape=loopLimit;whiteSpace=wrap;html=1;" parent="1" vertex="1">
          <mxGeometry x="125" y="310" width="100" height="50" as="geometry" />
        </mxCell>
        <mxCell id="IIKSc8ARAkmDjXuPDUUW-5" value="" style="group" parent="1" vertex="1" connectable="0">
          <mxGeometry x="125" y="840" width="100" height="50" as="geometry" />
        </mxCell>
        <mxCell id="IIKSc8ARAkmDjXuPDUUW-6" value="" style="shape=loopLimit;whiteSpace=wrap;html=1;rotation=-180;" parent="IIKSc8ARAkmDjXuPDUUW-5" vertex="1">
          <mxGeometry width="100" height="50" as="geometry" />
        </mxCell>
        <mxCell id="IIKSc8ARAkmDjXuPDUUW-7" value="&lt;div&gt;Конец&lt;/div&gt;&lt;div&gt;цикла 1&lt;br&gt;&lt;/div&gt;" style="text;html=1;strokeColor=none;fillColor=none;align=center;verticalAlign=middle;whiteSpace=wrap;rounded=0;" parent="IIKSc8ARAkmDjXuPDUUW-5" vertex="1">
          <mxGeometry x="16.666666666666668" y="6.25" width="66.66666666666667" height="37.5" as="geometry" />
        </mxCell>
        <mxCell id="cJxBNXaI8FFhSzxOagck-3" style="edgeStyle=orthogonalEdgeStyle;rounded=0;orthogonalLoop=1;jettySize=auto;html=1;exitX=0.5;exitY=1;exitDx=0;exitDy=0;entryX=0.5;entryY=0;entryDx=0;entryDy=0;" parent="1" source="IIKSc8ARAkmDjXuPDUUW-9" target="IIKSc8ARAkmDjXuPDUUW-10" edge="1">
          <mxGeometry relative="1" as="geometry" />
        </mxCell>
        <mxCell id="IIKSc8ARAkmDjXuPDUUW-9" value="t = f[i-1] + f[i]" style="rounded=0;whiteSpace=wrap;html=1;" parent="1" vertex="1">
          <mxGeometry x="125" y="390" width="100" height="30" as="geometry" />
        </mxCell>
        <mxCell id="dd5F29E3kw8MvvBSoIf1-2" style="edgeStyle=orthogonalEdgeStyle;rounded=0;orthogonalLoop=1;jettySize=auto;html=1;exitX=0.5;exitY=1;exitDx=0;exitDy=0;entryX=0.5;entryY=0;entryDx=0;entryDy=0;" parent="1" source="IIKSc8ARAkmDjXuPDUUW-10" target="dd5F29E3kw8MvvBSoIf1-1" edge="1">
          <mxGeometry relative="1" as="geometry" />
        </mxCell>
        <mxCell id="IIKSc8ARAkmDjXuPDUUW-10" value="t = t % m" style="rounded=0;whiteSpace=wrap;html=1;" parent="1" vertex="1">
          <mxGeometry x="125" y="450" width="100" height="30" as="geometry" />
        </mxCell>
        <mxCell id="cJxBNXaI8FFhSzxOagck-8" style="edgeStyle=orthogonalEdgeStyle;rounded=0;orthogonalLoop=1;jettySize=auto;html=1;exitX=0.5;exitY=1;exitDx=0;exitDy=0;entryX=0.5;entryY=0;entryDx=0;entryDy=0;" parent="1" source="cJxBNXaI8FFhSzxOagck-5" target="cJxBNXaI8FFhSzxOagck-6" edge="1">
          <mxGeometry relative="1" as="geometry" />
        </mxCell>
        <mxCell id="cJxBNXaI8FFhSzxOagck-5" value="i = i + 1" style="rounded=0;whiteSpace=wrap;html=1;" parent="1" vertex="1">
          <mxGeometry x="125" y="570" width="100" height="30" as="geometry" />
        </mxCell>
        <mxCell id="cJxBNXaI8FFhSzxOagck-6" value="f[i-1] == 0 and f[i] == 1" style="rhombus;whiteSpace=wrap;html=1;" parent="1" vertex="1">
          <mxGeometry x="55" y="630" width="240" height="60" as="geometry" />
        </mxCell>
        <mxCell id="dd5F29E3kw8MvvBSoIf1-6" style="edgeStyle=orthogonalEdgeStyle;rounded=0;orthogonalLoop=1;jettySize=auto;html=1;exitX=0.25;exitY=1;exitDx=0;exitDy=0;entryX=0.5;entryY=0;entryDx=0;entryDy=0;" parent="1" source="cJxBNXaI8FFhSzxOagck-13" target="dd5F29E3kw8MvvBSoIf1-4" edge="1">
          <mxGeometry relative="1" as="geometry">
            <Array as="points">
              <mxPoint x="345" y="660" />
            </Array>
          </mxGeometry>
        </mxCell>
        <mxCell id="cJxBNXaI8FFhSzxOagck-13" value="Да" style="text;html=1;strokeColor=none;fillColor=none;align=center;verticalAlign=middle;whiteSpace=wrap;rounded=0;" parent="1" vertex="1">
          <mxGeometry x="279" y="630" width="60" height="30" as="geometry" />
        </mxCell>
        <mxCell id="cJxBNXaI8FFhSzxOagck-20" value="Нет" style="text;html=1;strokeColor=none;fillColor=none;align=center;verticalAlign=middle;whiteSpace=wrap;rounded=0;" parent="1" vertex="1">
          <mxGeometry x="10" y="630" width="60" height="30" as="geometry" />
        </mxCell>
        <mxCell id="cJxBNXaI8FFhSzxOagck-21" value="" style="endArrow=none;html=1;rounded=0;" parent="1" edge="1">
          <mxGeometry width="50" height="50" relative="1" as="geometry">
            <mxPoint x="10" y="660" as="sourcePoint" />
            <mxPoint x="55" y="660" as="targetPoint" />
          </mxGeometry>
        </mxCell>
        <mxCell id="cJxBNXaI8FFhSzxOagck-22" value="" style="endArrow=none;html=1;rounded=0;" parent="1" edge="1">
          <mxGeometry width="50" height="50" relative="1" as="geometry">
            <mxPoint x="10" y="290" as="sourcePoint" />
            <mxPoint x="10" y="660" as="targetPoint" />
          </mxGeometry>
        </mxCell>
        <mxCell id="cJxBNXaI8FFhSzxOagck-23" value="" style="endArrow=none;html=1;rounded=0;" parent="1" edge="1">
          <mxGeometry width="50" height="50" relative="1" as="geometry">
            <mxPoint x="10" y="290" as="sourcePoint" />
            <mxPoint x="175" y="290" as="targetPoint" />
          </mxGeometry>
        </mxCell>
        <mxCell id="J0yCfj2DIA2uD0uEU39U-4" style="edgeStyle=orthogonalEdgeStyle;rounded=0;orthogonalLoop=1;jettySize=auto;html=1;exitX=0.5;exitY=1;exitDx=0;exitDy=0;entryX=0.5;entryY=0;entryDx=0;entryDy=0;" parent="1" source="cJxBNXaI8FFhSzxOagck-25" target="cJxBNXaI8FFhSzxOagck-26" edge="1">
          <mxGeometry relative="1" as="geometry" />
        </mxCell>
        <mxCell id="cJxBNXaI8FFhSzxOagck-25" value="n = n % l" style="rounded=0;whiteSpace=wrap;html=1;" parent="1" vertex="1">
          <mxGeometry x="340" y="130" width="100" height="30" as="geometry" />
        </mxCell>
        <mxCell id="J0yCfj2DIA2uD0uEU39U-5" style="edgeStyle=orthogonalEdgeStyle;rounded=0;orthogonalLoop=1;jettySize=auto;html=1;exitX=0.5;exitY=1;exitDx=0;exitDy=0;entryX=0.5;entryY=0;entryDx=0;entryDy=0;entryPerimeter=0;" parent="1" source="cJxBNXaI8FFhSzxOagck-26" target="J0yCfj2DIA2uD0uEU39U-2" edge="1">
          <mxGeometry relative="1" as="geometry" />
        </mxCell>
        <mxCell id="cJxBNXaI8FFhSzxOagck-26" value="Вывод f[n]" style="shape=parallelogram;perimeter=parallelogramPerimeter;whiteSpace=wrap;html=1;fixedSize=1;" parent="1" vertex="1">
          <mxGeometry x="340" y="190" width="100" height="30" as="geometry" />
        </mxCell>
        <mxCell id="ZPOKES95yrIBX2qIruQp-1" value="1" style="ellipse;whiteSpace=wrap;html=1;aspect=fixed;" parent="1" vertex="1">
          <mxGeometry x="160" y="920" width="30" height="30" as="geometry" />
        </mxCell>
        <mxCell id="ZPOKES95yrIBX2qIruQp-2" style="edgeStyle=orthogonalEdgeStyle;rounded=0;jumpSize=0;orthogonalLoop=1;jettySize=auto;html=1;exitX=0.5;exitY=0;exitDx=0;exitDy=0;entryX=0.5;entryY=0;entryDx=0;entryDy=0;strokeColor=default;strokeWidth=1;endArrow=classic;endFill=1;startSize=6;endSize=6;" parent="1" source="IIKSc8ARAkmDjXuPDUUW-6" target="ZPOKES95yrIBX2qIruQp-1" edge="1">
          <mxGeometry relative="1" as="geometry" />
        </mxCell>
        <mxCell id="ZPOKES95yrIBX2qIruQp-4" style="edgeStyle=orthogonalEdgeStyle;rounded=0;jumpSize=0;orthogonalLoop=1;jettySize=auto;html=1;exitX=0.5;exitY=1;exitDx=0;exitDy=0;entryX=0.5;entryY=0;entryDx=0;entryDy=0;strokeColor=default;strokeWidth=1;endArrow=classic;endFill=1;startSize=6;endSize=6;" parent="1" source="ZPOKES95yrIBX2qIruQp-3" edge="1">
          <mxGeometry relative="1" as="geometry">
            <mxPoint x="390" y="70" as="targetPoint" />
          </mxGeometry>
        </mxCell>
        <mxCell id="ZPOKES95yrIBX2qIruQp-3" value="1" style="ellipse;whiteSpace=wrap;html=1;aspect=fixed;" parent="1" vertex="1">
          <mxGeometry x="375" y="10" width="30" height="30" as="geometry" />
        </mxCell>
        <mxCell id="_aBeSmklYS-Kp_KNbTf3-1" value="Начало" style="strokeWidth=1;html=1;shape=mxgraph.flowchart.terminator;whiteSpace=wrap;" parent="1" vertex="1">
          <mxGeometry x="125" y="10" width="100" height="30" as="geometry" />
        </mxCell>
        <mxCell id="dd5F29E3kw8MvvBSoIf1-3" style="edgeStyle=orthogonalEdgeStyle;rounded=0;orthogonalLoop=1;jettySize=auto;html=1;exitX=0.5;exitY=1;exitDx=0;exitDy=0;entryX=0.5;entryY=0;entryDx=0;entryDy=0;" parent="1" source="dd5F29E3kw8MvvBSoIf1-1" target="cJxBNXaI8FFhSzxOagck-5" edge="1">
          <mxGeometry relative="1" as="geometry" />
        </mxCell>
        <mxCell id="dd5F29E3kw8MvvBSoIf1-1" value="f.append(t)" style="shape=process;whiteSpace=wrap;html=1;backgroundOutline=1;strokeWidth=1;" parent="1" vertex="1">
          <mxGeometry x="125" y="510" width="100" height="30" as="geometry" />
        </mxCell>
        <mxCell id="dd5F29E3kw8MvvBSoIf1-7" style="edgeStyle=orthogonalEdgeStyle;rounded=0;orthogonalLoop=1;jettySize=auto;html=1;exitX=0.5;exitY=1;exitDx=0;exitDy=0;entryX=0.5;entryY=0;entryDx=0;entryDy=0;" parent="1" source="dd5F29E3kw8MvvBSoIf1-4" target="dd5F29E3kw8MvvBSoIf1-5" edge="1">
          <mxGeometry relative="1" as="geometry" />
        </mxCell>
        <mxCell id="dd5F29E3kw8MvvBSoIf1-4" value="f.pop()" style="shape=process;whiteSpace=wrap;html=1;backgroundOutline=1;strokeWidth=1;" parent="1" vertex="1">
          <mxGeometry x="295" y="690" width="100" height="30" as="geometry" />
        </mxCell>
        <mxCell id="dd5F29E3kw8MvvBSoIf1-8" style="edgeStyle=orthogonalEdgeStyle;rounded=0;orthogonalLoop=1;jettySize=auto;html=1;exitX=0.5;exitY=1;exitDx=0;exitDy=0;entryX=0.5;entryY=1;entryDx=0;entryDy=0;" parent="1" source="dd5F29E3kw8MvvBSoIf1-5" target="IIKSc8ARAkmDjXuPDUUW-6" edge="1">
          <mxGeometry relative="1" as="geometry" />
        </mxCell>
        <mxCell id="dd5F29E3kw8MvvBSoIf1-5" value="f.pop()" style="shape=process;whiteSpace=wrap;html=1;backgroundOutline=1;strokeWidth=1;" parent="1" vertex="1">
          <mxGeometry x="295" y="750" width="100" height="30" as="geometry" />
        </mxCell>
        <mxCell id="J0yCfj2DIA2uD0uEU39U-3" style="edgeStyle=orthogonalEdgeStyle;rounded=0;orthogonalLoop=1;jettySize=auto;html=1;exitX=0.5;exitY=1;exitDx=0;exitDy=0;entryX=0.5;entryY=0;entryDx=0;entryDy=0;" parent="1" source="J0yCfj2DIA2uD0uEU39U-1" target="cJxBNXaI8FFhSzxOagck-25" edge="1">
          <mxGeometry relative="1" as="geometry" />
        </mxCell>
        <mxCell id="J0yCfj2DIA2uD0uEU39U-1" value="l = len(f)" style="shape=process;whiteSpace=wrap;html=1;backgroundOutline=1;strokeWidth=1;" parent="1" vertex="1">
          <mxGeometry x="340" y="70" width="100" height="30" as="geometry" />
        </mxCell>
        <mxCell id="J0yCfj2DIA2uD0uEU39U-2" value="Конец" style="strokeWidth=1;html=1;shape=mxgraph.flowchart.terminator;whiteSpace=wrap;" parent="1" vertex="1">
          <mxGeometry x="340" y="250" width="100" height="30" as="geometry" />
        </mxCell>
      </root>
    </mxGraphModel>
  </diagram>
  <diagram id="fu3I82-gcIo4fCHdg2yl" name="2.3.1">
    <mxGraphModel dx="796" dy="790" grid="1" gridSize="10" guides="1" tooltips="1" connect="1" arrows="1" fold="1" page="1" pageScale="1" pageWidth="827" pageHeight="1169" math="0" shadow="0">
      <root>
        <mxCell id="0" />
        <mxCell id="1" parent="0" />
        <mxCell id="w1UVxc8cvTipn6mbwOOt-1" style="edgeStyle=orthogonalEdgeStyle;rounded=0;orthogonalLoop=1;jettySize=auto;html=1;exitX=0.5;exitY=1;exitDx=0;exitDy=0;entryX=0.5;entryY=0;entryDx=0;entryDy=0;" parent="1" target="w1UVxc8cvTipn6mbwOOt-4" edge="1">
          <mxGeometry relative="1" as="geometry">
            <mxPoint x="160" y="40" as="sourcePoint" />
          </mxGeometry>
        </mxCell>
        <mxCell id="w1UVxc8cvTipn6mbwOOt-3" style="edgeStyle=orthogonalEdgeStyle;rounded=0;orthogonalLoop=1;jettySize=auto;html=1;exitX=0.5;exitY=1;exitDx=0;exitDy=0;entryX=0.5;entryY=0;entryDx=0;entryDy=0;" parent="1" source="w1UVxc8cvTipn6mbwOOt-4" target="w1UVxc8cvTipn6mbwOOt-5" edge="1">
          <mxGeometry relative="1" as="geometry" />
        </mxCell>
        <mxCell id="w1UVxc8cvTipn6mbwOOt-4" value="Ввод a" style="shape=parallelogram;perimeter=parallelogramPerimeter;whiteSpace=wrap;html=1;fixedSize=1;" parent="1" vertex="1">
          <mxGeometry x="110" y="70" width="100" height="30" as="geometry" />
        </mxCell>
        <mxCell id="w1UVxc8cvTipn6mbwOOt-10" style="edgeStyle=orthogonalEdgeStyle;rounded=0;orthogonalLoop=1;jettySize=auto;html=1;exitX=0.5;exitY=1;exitDx=0;exitDy=0;entryX=0.5;entryY=0;entryDx=0;entryDy=0;" parent="1" source="w1UVxc8cvTipn6mbwOOt-5" target="w1UVxc8cvTipn6mbwOOt-6" edge="1">
          <mxGeometry relative="1" as="geometry" />
        </mxCell>
        <mxCell id="w1UVxc8cvTipn6mbwOOt-5" value="Ввод b" style="shape=parallelogram;perimeter=parallelogramPerimeter;whiteSpace=wrap;html=1;fixedSize=1;" parent="1" vertex="1">
          <mxGeometry x="110" y="130" width="100" height="30" as="geometry" />
        </mxCell>
        <mxCell id="vqJQojaWajv8sr4KsWGS-12" style="edgeStyle=orthogonalEdgeStyle;rounded=0;orthogonalLoop=1;jettySize=auto;html=1;exitX=0.5;exitY=1;exitDx=0;exitDy=0;entryX=0.5;entryY=0;entryDx=0;entryDy=0;" parent="1" source="w1UVxc8cvTipn6mbwOOt-6" edge="1">
          <mxGeometry relative="1" as="geometry">
            <mxPoint x="160" y="270" as="targetPoint" />
          </mxGeometry>
        </mxCell>
        <mxCell id="w1UVxc8cvTipn6mbwOOt-6" value="&lt;div&gt;Цикл 1&lt;br&gt;&lt;/div&gt;&lt;div&gt;a != 0 and b != 0&lt;br&gt;&lt;/div&gt;" style="shape=loopLimit;whiteSpace=wrap;html=1;" parent="1" vertex="1">
          <mxGeometry x="110" y="190" width="100" height="50" as="geometry" />
        </mxCell>
        <mxCell id="w1UVxc8cvTipn6mbwOOt-7" value="" style="group" parent="1" vertex="1" connectable="0">
          <mxGeometry x="110" y="410" width="100" height="50" as="geometry" />
        </mxCell>
        <mxCell id="w1UVxc8cvTipn6mbwOOt-8" value="" style="shape=loopLimit;whiteSpace=wrap;html=1;rotation=-180;" parent="w1UVxc8cvTipn6mbwOOt-7" vertex="1">
          <mxGeometry width="100" height="50" as="geometry" />
        </mxCell>
        <mxCell id="w1UVxc8cvTipn6mbwOOt-9" value="&lt;div&gt;Конец&lt;/div&gt;&lt;div&gt;цикла 1&lt;br&gt;&lt;/div&gt;" style="text;html=1;strokeColor=none;fillColor=none;align=center;verticalAlign=middle;whiteSpace=wrap;rounded=0;" parent="w1UVxc8cvTipn6mbwOOt-7" vertex="1">
          <mxGeometry x="16.666666666666668" y="6.25" width="66.66666666666667" height="37.5" as="geometry" />
        </mxCell>
        <mxCell id="vpnaPq_Eqmuyn1WCLIOC-3" style="edgeStyle=orthogonalEdgeStyle;rounded=0;orthogonalLoop=1;jettySize=auto;html=1;exitX=0;exitY=0.5;exitDx=0;exitDy=0;entryX=0.5;entryY=0;entryDx=0;entryDy=0;" parent="1" source="JY-3jZAajkyICSFNpZZp-4" target="vpnaPq_Eqmuyn1WCLIOC-2" edge="1">
          <mxGeometry relative="1" as="geometry" />
        </mxCell>
        <mxCell id="vpnaPq_Eqmuyn1WCLIOC-4" style="edgeStyle=orthogonalEdgeStyle;rounded=0;orthogonalLoop=1;jettySize=auto;html=1;exitX=1;exitY=0.5;exitDx=0;exitDy=0;entryX=0.5;entryY=0;entryDx=0;entryDy=0;" parent="1" source="JY-3jZAajkyICSFNpZZp-4" target="vpnaPq_Eqmuyn1WCLIOC-1" edge="1">
          <mxGeometry relative="1" as="geometry" />
        </mxCell>
        <mxCell id="JY-3jZAajkyICSFNpZZp-4" value="a &amp;gt; b" style="rhombus;whiteSpace=wrap;html=1;" parent="1" vertex="1">
          <mxGeometry x="110" y="270" width="100" height="30" as="geometry" />
        </mxCell>
        <mxCell id="vpnaPq_Eqmuyn1WCLIOC-1" value="a = a % b" style="rounded=0;whiteSpace=wrap;html=1;" parent="1" vertex="1">
          <mxGeometry x="210" y="320" width="100" height="30" as="geometry" />
        </mxCell>
        <mxCell id="vpnaPq_Eqmuyn1WCLIOC-2" value="b = b % a" style="rounded=0;whiteSpace=wrap;html=1;" parent="1" vertex="1">
          <mxGeometry x="10" y="320" width="100" height="30" as="geometry" />
        </mxCell>
        <mxCell id="vpnaPq_Eqmuyn1WCLIOC-8" value="" style="endArrow=none;html=1;rounded=0;" parent="1" edge="1">
          <mxGeometry width="50" height="50" relative="1" as="geometry">
            <mxPoint x="59.879999999999995" y="380" as="sourcePoint" />
            <mxPoint x="59.879999999999995" y="350" as="targetPoint" />
          </mxGeometry>
        </mxCell>
        <mxCell id="vpnaPq_Eqmuyn1WCLIOC-9" value="" style="endArrow=none;html=1;rounded=0;" parent="1" edge="1">
          <mxGeometry width="50" height="50" relative="1" as="geometry">
            <mxPoint x="259.54999999999995" y="380" as="sourcePoint" />
            <mxPoint x="259.54999999999995" y="350" as="targetPoint" />
          </mxGeometry>
        </mxCell>
        <mxCell id="vpnaPq_Eqmuyn1WCLIOC-10" value="" style="endArrow=none;html=1;rounded=0;" parent="1" edge="1">
          <mxGeometry width="50" height="50" relative="1" as="geometry">
            <mxPoint x="259.88" y="380" as="sourcePoint" />
            <mxPoint x="59.879999999999995" y="380" as="targetPoint" />
          </mxGeometry>
        </mxCell>
        <mxCell id="vqJQojaWajv8sr4KsWGS-8" value="" style="endArrow=classic;html=1;rounded=0;" parent="1" edge="1">
          <mxGeometry width="50" height="50" relative="1" as="geometry">
            <mxPoint x="159.67000000000002" y="380" as="sourcePoint" />
            <mxPoint x="159.67000000000002" y="410" as="targetPoint" />
          </mxGeometry>
        </mxCell>
        <mxCell id="vqJQojaWajv8sr4KsWGS-10" value="Да" style="text;html=1;strokeColor=none;fillColor=none;align=center;verticalAlign=middle;whiteSpace=wrap;rounded=0;" parent="1" vertex="1">
          <mxGeometry x="210" y="260" width="60" height="30" as="geometry" />
        </mxCell>
        <mxCell id="vqJQojaWajv8sr4KsWGS-11" value="Нет" style="text;html=1;strokeColor=none;fillColor=none;align=center;verticalAlign=middle;whiteSpace=wrap;rounded=0;" parent="1" vertex="1">
          <mxGeometry x="50" y="260" width="60" height="30" as="geometry" />
        </mxCell>
        <mxCell id="vqJQojaWajv8sr4KsWGS-20" style="edgeStyle=orthogonalEdgeStyle;rounded=0;orthogonalLoop=1;jettySize=auto;html=1;exitX=0.5;exitY=1;exitDx=0;exitDy=0;entryX=0.5;entryY=0;entryDx=0;entryDy=0;" parent="1" source="vqJQojaWajv8sr4KsWGS-13" target="vqJQojaWajv8sr4KsWGS-14" edge="1">
          <mxGeometry relative="1" as="geometry" />
        </mxCell>
        <mxCell id="vqJQojaWajv8sr4KsWGS-13" value="t = a + b" style="rounded=0;whiteSpace=wrap;html=1;" parent="1" vertex="1">
          <mxGeometry x="110" y="490" width="100" height="30" as="geometry" />
        </mxCell>
        <mxCell id="PT4c69Ic4d2lK5_MEAdK-2" style="edgeStyle=orthogonalEdgeStyle;rounded=0;orthogonalLoop=1;jettySize=auto;html=1;exitX=0.5;exitY=1;exitDx=0;exitDy=0;entryX=0.5;entryY=0;entryDx=0;entryDy=0;" parent="1" source="vqJQojaWajv8sr4KsWGS-14" edge="1">
          <mxGeometry relative="1" as="geometry">
            <mxPoint x="160" y="620" as="targetPoint" />
          </mxGeometry>
        </mxCell>
        <mxCell id="vqJQojaWajv8sr4KsWGS-14" value="Вывод t" style="shape=parallelogram;perimeter=parallelogramPerimeter;whiteSpace=wrap;html=1;fixedSize=1;" parent="1" vertex="1">
          <mxGeometry x="110" y="555" width="100" height="30" as="geometry" />
        </mxCell>
        <mxCell id="vqJQojaWajv8sr4KsWGS-18" style="edgeStyle=orthogonalEdgeStyle;rounded=0;orthogonalLoop=1;jettySize=auto;html=1;exitX=0.5;exitY=0;exitDx=0;exitDy=0;entryX=0.5;entryY=0;entryDx=0;entryDy=0;" parent="1" source="w1UVxc8cvTipn6mbwOOt-8" target="vqJQojaWajv8sr4KsWGS-13" edge="1">
          <mxGeometry relative="1" as="geometry" />
        </mxCell>
        <mxCell id="ByU8Gt6nfojn50qipNo--1" value="Начало" style="strokeWidth=1;html=1;shape=mxgraph.flowchart.terminator;whiteSpace=wrap;" parent="1" vertex="1">
          <mxGeometry x="110" y="10" width="100" height="30" as="geometry" />
        </mxCell>
        <mxCell id="8mO86a6FoHklnUW27RAK-1" value="Конец" style="strokeWidth=1;html=1;shape=mxgraph.flowchart.terminator;whiteSpace=wrap;" parent="1" vertex="1">
          <mxGeometry x="110" y="620" width="100" height="30" as="geometry" />
        </mxCell>
      </root>
    </mxGraphModel>
  </diagram>
  <diagram id="nBo5Jof2VyOP3pu0dThg" name="4.1.1">
    <mxGraphModel dx="796" dy="790" grid="1" gridSize="10" guides="1" tooltips="1" connect="1" arrows="1" fold="1" page="1" pageScale="1" pageWidth="827" pageHeight="1169" math="0" shadow="0">
      <root>
        <mxCell id="0" />
        <mxCell id="1" parent="0" />
        <mxCell id="1VKRyoxuMxoIiqaiADSQ-3" style="edgeStyle=orthogonalEdgeStyle;rounded=0;orthogonalLoop=1;jettySize=auto;html=1;exitX=0.5;exitY=1;exitDx=0;exitDy=0;entryX=0.5;entryY=0;entryDx=0;entryDy=0;" parent="1" target="1VKRyoxuMxoIiqaiADSQ-2" edge="1">
          <mxGeometry relative="1" as="geometry">
            <mxPoint x="85" y="40" as="sourcePoint" />
          </mxGeometry>
        </mxCell>
        <mxCell id="GIHssZWTLutPexWtzOO4-3" style="edgeStyle=orthogonalEdgeStyle;rounded=0;orthogonalLoop=1;jettySize=auto;html=1;exitX=0.5;exitY=1;exitDx=0;exitDy=0;entryX=0.5;entryY=0;entryDx=0;entryDy=0;" parent="1" source="1VKRyoxuMxoIiqaiADSQ-1" target="GIHssZWTLutPexWtzOO4-2" edge="1">
          <mxGeometry relative="1" as="geometry" />
        </mxCell>
        <mxCell id="1VKRyoxuMxoIiqaiADSQ-1" value="Ввод n" style="shape=parallelogram;perimeter=parallelogramPerimeter;whiteSpace=wrap;html=1;fixedSize=1;" parent="1" vertex="1">
          <mxGeometry x="35" y="130" width="100" height="30" as="geometry" />
        </mxCell>
        <mxCell id="1VKRyoxuMxoIiqaiADSQ-4" style="edgeStyle=orthogonalEdgeStyle;rounded=0;orthogonalLoop=1;jettySize=auto;html=1;exitX=0.5;exitY=1;exitDx=0;exitDy=0;entryX=0.5;entryY=0;entryDx=0;entryDy=0;" parent="1" source="1VKRyoxuMxoIiqaiADSQ-2" target="1VKRyoxuMxoIiqaiADSQ-1" edge="1">
          <mxGeometry relative="1" as="geometry" />
        </mxCell>
        <mxCell id="1VKRyoxuMxoIiqaiADSQ-2" value="lst = []" style="rounded=0;whiteSpace=wrap;html=1;" parent="1" vertex="1">
          <mxGeometry x="35" y="70" width="100" height="30" as="geometry" />
        </mxCell>
        <mxCell id="j4e6c7l5cNhxEXMIwUWd-4" style="edgeStyle=orthogonalEdgeStyle;rounded=0;orthogonalLoop=1;jettySize=auto;html=1;exitX=0.5;exitY=1;exitDx=0;exitDy=0;entryX=0.5;entryY=0;entryDx=0;entryDy=0;" parent="1" source="ukkAKVaZs-dU9mlylazG-1" target="ukkAKVaZs-dU9mlylazG-6" edge="1">
          <mxGeometry relative="1" as="geometry" />
        </mxCell>
        <mxCell id="ukkAKVaZs-dU9mlylazG-1" value="&lt;div&gt;Цикл 1&lt;br&gt;&lt;/div&gt;i &amp;lt; n" style="shape=loopLimit;whiteSpace=wrap;html=1;" parent="1" vertex="1">
          <mxGeometry x="35" y="250" width="100" height="50" as="geometry" />
        </mxCell>
        <mxCell id="ukkAKVaZs-dU9mlylazG-2" value="" style="group" parent="1" vertex="1" connectable="0">
          <mxGeometry x="35" y="630" width="100" height="50" as="geometry" />
        </mxCell>
        <mxCell id="ukkAKVaZs-dU9mlylazG-3" value="" style="shape=loopLimit;whiteSpace=wrap;html=1;rotation=-180;" parent="ukkAKVaZs-dU9mlylazG-2" vertex="1">
          <mxGeometry width="100" height="50" as="geometry" />
        </mxCell>
        <mxCell id="ukkAKVaZs-dU9mlylazG-4" value="Конец цикла 1" style="text;html=1;strokeColor=none;fillColor=none;align=center;verticalAlign=middle;whiteSpace=wrap;rounded=0;" parent="ukkAKVaZs-dU9mlylazG-2" vertex="1">
          <mxGeometry x="16.666666666666668" y="6.25" width="66.66666666666667" height="37.5" as="geometry" />
        </mxCell>
        <mxCell id="ks3u-PmfWWSErEEGv6VN-2" style="edgeStyle=orthogonalEdgeStyle;rounded=0;orthogonalLoop=1;jettySize=auto;html=1;exitX=0.5;exitY=1;exitDx=0;exitDy=0;entryX=0.5;entryY=0;entryDx=0;entryDy=0;" edge="1" parent="1" source="ukkAKVaZs-dU9mlylazG-6" target="ks3u-PmfWWSErEEGv6VN-1">
          <mxGeometry relative="1" as="geometry" />
        </mxCell>
        <mxCell id="ukkAKVaZs-dU9mlylazG-6" value="Ввод a" style="shape=parallelogram;perimeter=parallelogramPerimeter;whiteSpace=wrap;html=1;fixedSize=1;" parent="1" vertex="1">
          <mxGeometry x="35" y="330" width="100" height="30" as="geometry" />
        </mxCell>
        <mxCell id="GIHssZWTLutPexWtzOO4-6" style="edgeStyle=orthogonalEdgeStyle;rounded=0;orthogonalLoop=1;jettySize=auto;html=1;exitX=0.5;exitY=1;exitDx=0;exitDy=0;entryX=0.5;entryY=0;entryDx=0;entryDy=0;" parent="1" source="j4e6c7l5cNhxEXMIwUWd-3" target="GIHssZWTLutPexWtzOO4-5" edge="1">
          <mxGeometry relative="1" as="geometry" />
        </mxCell>
        <mxCell id="j4e6c7l5cNhxEXMIwUWd-3" value="t = (b, a)" style="rounded=0;whiteSpace=wrap;html=1;" parent="1" vertex="1">
          <mxGeometry x="35" y="450" width="100" height="30" as="geometry" />
        </mxCell>
        <mxCell id="j4e6c7l5cNhxEXMIwUWd-9" style="edgeStyle=orthogonalEdgeStyle;rounded=0;orthogonalLoop=1;jettySize=auto;html=1;exitX=0.5;exitY=0;exitDx=0;exitDy=0;entryX=0.5;entryY=0;entryDx=0;entryDy=0;" parent="1" source="ukkAKVaZs-dU9mlylazG-3" edge="1">
          <mxGeometry relative="1" as="geometry">
            <mxPoint x="85" y="710" as="targetPoint" />
          </mxGeometry>
        </mxCell>
        <mxCell id="j4e6c7l5cNhxEXMIwUWd-14" style="edgeStyle=orthogonalEdgeStyle;rounded=0;orthogonalLoop=1;jettySize=auto;html=1;exitX=0.5;exitY=1;exitDx=0;exitDy=0;entryX=0.5;entryY=0;entryDx=0;entryDy=0;" parent="1" source="j4e6c7l5cNhxEXMIwUWd-10" target="j4e6c7l5cNhxEXMIwUWd-13" edge="1">
          <mxGeometry relative="1" as="geometry" />
        </mxCell>
        <mxCell id="j4e6c7l5cNhxEXMIwUWd-10" value="out = []" style="rounded=0;whiteSpace=wrap;html=1;" parent="1" vertex="1">
          <mxGeometry x="340" y="70" width="100" height="30" as="geometry" />
        </mxCell>
        <mxCell id="j4e6c7l5cNhxEXMIwUWd-15" style="edgeStyle=orthogonalEdgeStyle;rounded=0;orthogonalLoop=1;jettySize=auto;html=1;exitX=0.5;exitY=1;exitDx=0;exitDy=0;entryX=0.5;entryY=0;entryDx=0;entryDy=0;" parent="1" source="j4e6c7l5cNhxEXMIwUWd-13" edge="1">
          <mxGeometry relative="1" as="geometry">
            <mxPoint x="390" y="190" as="targetPoint" />
          </mxGeometry>
        </mxCell>
        <mxCell id="j4e6c7l5cNhxEXMIwUWd-13" value="t = lst[0][0]" style="rounded=0;whiteSpace=wrap;html=1;" parent="1" vertex="1">
          <mxGeometry x="340" y="130" width="100" height="30" as="geometry" />
        </mxCell>
        <mxCell id="H-jzwRs-m9ef_NmZnycx-5" style="edgeStyle=orthogonalEdgeStyle;rounded=0;orthogonalLoop=1;jettySize=auto;html=1;exitX=0.5;exitY=1;exitDx=0;exitDy=0;entryX=0.5;entryY=0;entryDx=0;entryDy=0;" parent="1" source="j4e6c7l5cNhxEXMIwUWd-16" target="H-jzwRs-m9ef_NmZnycx-1" edge="1">
          <mxGeometry relative="1" as="geometry" />
        </mxCell>
        <mxCell id="j4e6c7l5cNhxEXMIwUWd-16" value="&lt;div&gt;Цикл 2&lt;br&gt;&lt;/div&gt;i &amp;lt; n" style="shape=loopLimit;whiteSpace=wrap;html=1;" parent="1" vertex="1">
          <mxGeometry x="340" y="310" width="100" height="50" as="geometry" />
        </mxCell>
        <mxCell id="j4e6c7l5cNhxEXMIwUWd-17" value="" style="group" parent="1" vertex="1" connectable="0">
          <mxGeometry x="340" y="650" width="100" height="50" as="geometry" />
        </mxCell>
        <mxCell id="j4e6c7l5cNhxEXMIwUWd-18" value="" style="shape=loopLimit;whiteSpace=wrap;html=1;rotation=-180;" parent="j4e6c7l5cNhxEXMIwUWd-17" vertex="1">
          <mxGeometry width="100" height="50" as="geometry" />
        </mxCell>
        <mxCell id="j4e6c7l5cNhxEXMIwUWd-19" value="Конец цикла 2" style="text;html=1;strokeColor=none;fillColor=none;align=center;verticalAlign=middle;whiteSpace=wrap;rounded=0;" parent="j4e6c7l5cNhxEXMIwUWd-17" vertex="1">
          <mxGeometry x="16.666666666666668" y="6.25" width="66.66666666666667" height="37.5" as="geometry" />
        </mxCell>
        <mxCell id="H-jzwRs-m9ef_NmZnycx-4" style="edgeStyle=orthogonalEdgeStyle;rounded=0;orthogonalLoop=1;jettySize=auto;html=1;exitX=1;exitY=0.5;exitDx=0;exitDy=0;entryX=0.5;entryY=0;entryDx=0;entryDy=0;" parent="1" source="H-jzwRs-m9ef_NmZnycx-1" target="H-jzwRs-m9ef_NmZnycx-3" edge="1">
          <mxGeometry relative="1" as="geometry" />
        </mxCell>
        <mxCell id="H-jzwRs-m9ef_NmZnycx-1" value="lst[i][1] &amp;gt; out[-1]" style="rhombus;whiteSpace=wrap;html=1;" parent="1" vertex="1">
          <mxGeometry x="315" y="390" width="150" height="50" as="geometry" />
        </mxCell>
        <mxCell id="H-jzwRs-m9ef_NmZnycx-6" style="edgeStyle=orthogonalEdgeStyle;rounded=0;orthogonalLoop=1;jettySize=auto;html=1;exitX=0.5;exitY=1;exitDx=0;exitDy=0;entryX=0.5;entryY=0;entryDx=0;entryDy=0;" parent="1" source="H-jzwRs-m9ef_NmZnycx-3" edge="1">
          <mxGeometry relative="1" as="geometry">
            <mxPoint x="540" y="500" as="targetPoint" />
          </mxGeometry>
        </mxCell>
        <mxCell id="H-jzwRs-m9ef_NmZnycx-3" value="t = lst[i][0]" style="rounded=0;whiteSpace=wrap;html=1;" parent="1" vertex="1">
          <mxGeometry x="490" y="440" width="100" height="30" as="geometry" />
        </mxCell>
        <mxCell id="H-jzwRs-m9ef_NmZnycx-10" value="Да" style="text;html=1;strokeColor=none;fillColor=none;align=center;verticalAlign=middle;whiteSpace=wrap;rounded=0;" parent="1" vertex="1">
          <mxGeometry x="450" y="390" width="60" height="30" as="geometry" />
        </mxCell>
        <mxCell id="H-jzwRs-m9ef_NmZnycx-11" value="Нет" style="text;html=1;strokeColor=none;fillColor=none;align=center;verticalAlign=middle;whiteSpace=wrap;rounded=0;" parent="1" vertex="1">
          <mxGeometry x="270" y="390" width="60" height="30" as="geometry" />
        </mxCell>
        <mxCell id="H-jzwRs-m9ef_NmZnycx-12" value="" style="endArrow=none;html=1;rounded=0;startSize=0;endSize=0;" parent="1" edge="1">
          <mxGeometry width="50" height="50" relative="1" as="geometry">
            <mxPoint x="315" y="415" as="sourcePoint" />
            <mxPoint x="240" y="415" as="targetPoint" />
          </mxGeometry>
        </mxCell>
        <mxCell id="H-jzwRs-m9ef_NmZnycx-13" value="" style="endArrow=none;html=1;rounded=0;startSize=0;endSize=0;" parent="1" edge="1">
          <mxGeometry width="50" height="50" relative="1" as="geometry">
            <mxPoint x="240" y="415" as="sourcePoint" />
            <mxPoint x="240" y="560" as="targetPoint" />
          </mxGeometry>
        </mxCell>
        <mxCell id="H-jzwRs-m9ef_NmZnycx-15" value="" style="endArrow=none;html=1;rounded=0;startSize=0;endSize=0;exitX=0.5;exitY=1;exitDx=0;exitDy=0;" parent="1" edge="1">
          <mxGeometry width="50" height="50" relative="1" as="geometry">
            <mxPoint x="540" y="530" as="sourcePoint" />
            <mxPoint x="540" y="560" as="targetPoint" />
          </mxGeometry>
        </mxCell>
        <mxCell id="H-jzwRs-m9ef_NmZnycx-16" value="" style="endArrow=none;html=1;rounded=0;startSize=0;endSize=0;exitX=0.5;exitY=1;exitDx=0;exitDy=0;" parent="1" edge="1">
          <mxGeometry width="50" height="50" relative="1" as="geometry">
            <mxPoint x="540" y="560" as="sourcePoint" />
            <mxPoint x="390" y="560" as="targetPoint" />
          </mxGeometry>
        </mxCell>
        <mxCell id="H-jzwRs-m9ef_NmZnycx-21" value="" style="endArrow=none;html=1;rounded=0;startSize=0;endSize=0;exitX=0.5;exitY=1;exitDx=0;exitDy=0;" parent="1" edge="1">
          <mxGeometry width="50" height="50" relative="1" as="geometry">
            <mxPoint x="390" y="560" as="sourcePoint" />
            <mxPoint x="240" y="560" as="targetPoint" />
          </mxGeometry>
        </mxCell>
        <mxCell id="H-jzwRs-m9ef_NmZnycx-26" style="edgeStyle=orthogonalEdgeStyle;rounded=0;orthogonalLoop=1;jettySize=auto;html=1;entryX=0.5;entryY=0;entryDx=0;entryDy=0;" parent="1" edge="1">
          <mxGeometry relative="1" as="geometry">
            <mxPoint x="390" y="560" as="sourcePoint" />
            <mxPoint x="390" y="590" as="targetPoint" />
          </mxGeometry>
        </mxCell>
        <mxCell id="H-jzwRs-m9ef_NmZnycx-33" style="edgeStyle=orthogonalEdgeStyle;rounded=0;jumpSize=0;orthogonalLoop=1;jettySize=auto;html=1;exitX=0.5;exitY=1;exitDx=0;exitDy=0;entryX=0.5;entryY=0;entryDx=0;entryDy=0;strokeColor=default;strokeWidth=1;endArrow=classic;endFill=1;startSize=6;endSize=6;" parent="1" source="H-jzwRs-m9ef_NmZnycx-27" target="H-jzwRs-m9ef_NmZnycx-28" edge="1">
          <mxGeometry relative="1" as="geometry" />
        </mxCell>
        <mxCell id="H-jzwRs-m9ef_NmZnycx-27" value="Вывод длины массива out" style="shape=parallelogram;perimeter=parallelogramPerimeter;whiteSpace=wrap;html=1;fixedSize=1;" parent="1" vertex="1">
          <mxGeometry x="290" y="730" width="200" height="30" as="geometry" />
        </mxCell>
        <mxCell id="GIHssZWTLutPexWtzOO4-21" style="edgeStyle=orthogonalEdgeStyle;rounded=0;orthogonalLoop=1;jettySize=auto;html=1;exitX=0.5;exitY=1;exitDx=0;exitDy=0;entryX=0.5;entryY=0;entryDx=0;entryDy=0;entryPerimeter=0;" parent="1" source="H-jzwRs-m9ef_NmZnycx-28" target="GIHssZWTLutPexWtzOO4-20" edge="1">
          <mxGeometry relative="1" as="geometry" />
        </mxCell>
        <mxCell id="H-jzwRs-m9ef_NmZnycx-28" value="&lt;div&gt;Вывод массива out&lt;/div&gt;" style="shape=parallelogram;perimeter=parallelogramPerimeter;whiteSpace=wrap;html=1;fixedSize=1;" parent="1" vertex="1">
          <mxGeometry x="290" y="790" width="200" height="30" as="geometry" />
        </mxCell>
        <mxCell id="H-jzwRs-m9ef_NmZnycx-29" style="edgeStyle=orthogonalEdgeStyle;rounded=0;jumpSize=0;orthogonalLoop=1;jettySize=auto;html=1;exitX=0.5;exitY=0;exitDx=0;exitDy=0;entryX=0.5;entryY=0;entryDx=0;entryDy=0;strokeColor=default;strokeWidth=1;endArrow=classic;endFill=1;startSize=6;endSize=6;" parent="1" source="j4e6c7l5cNhxEXMIwUWd-18" target="H-jzwRs-m9ef_NmZnycx-27" edge="1">
          <mxGeometry relative="1" as="geometry" />
        </mxCell>
        <mxCell id="2jemeHRpdfeRYn6ma0Jh-1" value="1" style="ellipse;whiteSpace=wrap;html=1;aspect=fixed;" parent="1" vertex="1">
          <mxGeometry x="70" y="770" width="30" height="30" as="geometry" />
        </mxCell>
        <mxCell id="2jemeHRpdfeRYn6ma0Jh-4" style="edgeStyle=orthogonalEdgeStyle;rounded=0;jumpSize=0;orthogonalLoop=1;jettySize=auto;html=1;exitX=0.5;exitY=1;exitDx=0;exitDy=0;entryX=0.5;entryY=0;entryDx=0;entryDy=0;strokeColor=default;strokeWidth=1;endArrow=classic;endFill=1;startSize=6;endSize=6;" parent="1" source="2jemeHRpdfeRYn6ma0Jh-3" target="j4e6c7l5cNhxEXMIwUWd-10" edge="1">
          <mxGeometry relative="1" as="geometry" />
        </mxCell>
        <mxCell id="2jemeHRpdfeRYn6ma0Jh-3" value="1" style="ellipse;whiteSpace=wrap;html=1;aspect=fixed;" parent="1" vertex="1">
          <mxGeometry x="375" y="10" width="30" height="30" as="geometry" />
        </mxCell>
        <mxCell id="GIHssZWTLutPexWtzOO4-1" value="Начало" style="strokeWidth=1;html=1;shape=mxgraph.flowchart.terminator;whiteSpace=wrap;" parent="1" vertex="1">
          <mxGeometry x="35" y="10" width="100" height="30" as="geometry" />
        </mxCell>
        <mxCell id="GIHssZWTLutPexWtzOO4-4" style="edgeStyle=orthogonalEdgeStyle;rounded=0;orthogonalLoop=1;jettySize=auto;html=1;exitX=0.5;exitY=1;exitDx=0;exitDy=0;entryX=0.5;entryY=0;entryDx=0;entryDy=0;" parent="1" source="GIHssZWTLutPexWtzOO4-2" target="ukkAKVaZs-dU9mlylazG-1" edge="1">
          <mxGeometry relative="1" as="geometry" />
        </mxCell>
        <mxCell id="GIHssZWTLutPexWtzOO4-2" value="&lt;div&gt;i = 0&lt;/div&gt;" style="rounded=0;whiteSpace=wrap;html=1;" parent="1" vertex="1">
          <mxGeometry x="35" y="190" width="100" height="30" as="geometry" />
        </mxCell>
        <mxCell id="GIHssZWTLutPexWtzOO4-8" style="edgeStyle=orthogonalEdgeStyle;rounded=0;orthogonalLoop=1;jettySize=auto;html=1;exitX=0.5;exitY=1;exitDx=0;exitDy=0;entryX=0.5;entryY=0;entryDx=0;entryDy=0;" parent="1" source="GIHssZWTLutPexWtzOO4-5" target="GIHssZWTLutPexWtzOO4-7" edge="1">
          <mxGeometry relative="1" as="geometry" />
        </mxCell>
        <mxCell id="GIHssZWTLutPexWtzOO4-5" value="lst.append(t)" style="shape=process;whiteSpace=wrap;html=1;backgroundOutline=1;strokeWidth=1;" parent="1" vertex="1">
          <mxGeometry x="35" y="510" width="100" height="30" as="geometry" />
        </mxCell>
        <mxCell id="GIHssZWTLutPexWtzOO4-9" style="edgeStyle=orthogonalEdgeStyle;rounded=0;orthogonalLoop=1;jettySize=auto;html=1;exitX=0.5;exitY=1;exitDx=0;exitDy=0;entryX=0.5;entryY=1;entryDx=0;entryDy=0;" parent="1" source="GIHssZWTLutPexWtzOO4-7" target="ukkAKVaZs-dU9mlylazG-3" edge="1">
          <mxGeometry relative="1" as="geometry" />
        </mxCell>
        <mxCell id="GIHssZWTLutPexWtzOO4-7" value="i = i + 1" style="rounded=0;whiteSpace=wrap;html=1;" parent="1" vertex="1">
          <mxGeometry x="35" y="570" width="100" height="30" as="geometry" />
        </mxCell>
        <mxCell id="GIHssZWTLutPexWtzOO4-12" style="edgeStyle=orthogonalEdgeStyle;rounded=0;orthogonalLoop=1;jettySize=auto;html=1;exitX=0.5;exitY=1;exitDx=0;exitDy=0;entryX=0.5;entryY=0;entryDx=0;entryDy=0;" parent="1" source="GIHssZWTLutPexWtzOO4-11" target="2jemeHRpdfeRYn6ma0Jh-1" edge="1">
          <mxGeometry relative="1" as="geometry" />
        </mxCell>
        <mxCell id="GIHssZWTLutPexWtzOO4-11" value="lst.sort()" style="shape=process;whiteSpace=wrap;html=1;backgroundOutline=1;strokeWidth=1;" parent="1" vertex="1">
          <mxGeometry x="35" y="710" width="100" height="30" as="geometry" />
        </mxCell>
        <mxCell id="GIHssZWTLutPexWtzOO4-16" style="edgeStyle=orthogonalEdgeStyle;rounded=0;orthogonalLoop=1;jettySize=auto;html=1;exitX=0.5;exitY=1;exitDx=0;exitDy=0;entryX=0.5;entryY=0;entryDx=0;entryDy=0;" parent="1" source="GIHssZWTLutPexWtzOO4-13" target="GIHssZWTLutPexWtzOO4-15" edge="1">
          <mxGeometry relative="1" as="geometry" />
        </mxCell>
        <mxCell id="GIHssZWTLutPexWtzOO4-13" value="lst.append(t)" style="shape=process;whiteSpace=wrap;html=1;backgroundOutline=1;strokeWidth=1;" parent="1" vertex="1">
          <mxGeometry x="340" y="190" width="100" height="30" as="geometry" />
        </mxCell>
        <mxCell id="GIHssZWTLutPexWtzOO4-17" style="edgeStyle=orthogonalEdgeStyle;rounded=0;orthogonalLoop=1;jettySize=auto;html=1;exitX=0.5;exitY=1;exitDx=0;exitDy=0;entryX=0.5;entryY=0;entryDx=0;entryDy=0;" parent="1" source="GIHssZWTLutPexWtzOO4-15" target="j4e6c7l5cNhxEXMIwUWd-16" edge="1">
          <mxGeometry relative="1" as="geometry" />
        </mxCell>
        <mxCell id="GIHssZWTLutPexWtzOO4-15" value="i = 0" style="rounded=0;whiteSpace=wrap;html=1;" parent="1" vertex="1">
          <mxGeometry x="340" y="250" width="100" height="30" as="geometry" />
        </mxCell>
        <mxCell id="GIHssZWTLutPexWtzOO4-19" style="edgeStyle=orthogonalEdgeStyle;rounded=0;orthogonalLoop=1;jettySize=auto;html=1;exitX=0.5;exitY=1;exitDx=0;exitDy=0;entryX=0.5;entryY=1;entryDx=0;entryDy=0;" parent="1" source="GIHssZWTLutPexWtzOO4-18" target="j4e6c7l5cNhxEXMIwUWd-18" edge="1">
          <mxGeometry relative="1" as="geometry" />
        </mxCell>
        <mxCell id="GIHssZWTLutPexWtzOO4-18" value="i = i + 1" style="rounded=0;whiteSpace=wrap;html=1;" parent="1" vertex="1">
          <mxGeometry x="340" y="590" width="100" height="30" as="geometry" />
        </mxCell>
        <mxCell id="GIHssZWTLutPexWtzOO4-20" value="Конец" style="strokeWidth=1;html=1;shape=mxgraph.flowchart.terminator;whiteSpace=wrap;" parent="1" vertex="1">
          <mxGeometry x="340" y="850" width="100" height="30" as="geometry" />
        </mxCell>
        <mxCell id="E5JVh8KJJWauQujvtxSG-2" value="out.append(t)" style="shape=process;whiteSpace=wrap;html=1;backgroundOutline=1;strokeWidth=1;" parent="1" vertex="1">
          <mxGeometry x="490" y="500" width="100" height="30" as="geometry" />
        </mxCell>
        <mxCell id="ks3u-PmfWWSErEEGv6VN-3" style="edgeStyle=orthogonalEdgeStyle;rounded=0;orthogonalLoop=1;jettySize=auto;html=1;exitX=0.5;exitY=1;exitDx=0;exitDy=0;entryX=0.5;entryY=0;entryDx=0;entryDy=0;" edge="1" parent="1" source="ks3u-PmfWWSErEEGv6VN-1" target="j4e6c7l5cNhxEXMIwUWd-3">
          <mxGeometry relative="1" as="geometry" />
        </mxCell>
        <mxCell id="ks3u-PmfWWSErEEGv6VN-1" value="Ввод b" style="shape=parallelogram;perimeter=parallelogramPerimeter;whiteSpace=wrap;html=1;fixedSize=1;" vertex="1" parent="1">
          <mxGeometry x="35" y="390" width="100" height="30" as="geometry" />
        </mxCell>
      </root>
    </mxGraphModel>
  </diagram>
  <diagram id="BuBnBSwmw7FaHTiQHm_-" name="4.1.2">
    <mxGraphModel dx="796" dy="790" grid="1" gridSize="10" guides="1" tooltips="1" connect="1" arrows="1" fold="1" page="1" pageScale="1" pageWidth="827" pageHeight="1169" math="0" shadow="0">
      <root>
        <mxCell id="0" />
        <mxCell id="1" parent="0" />
        <mxCell id="BsMnbUer-58-NS3dKeB3-3" style="edgeStyle=orthogonalEdgeStyle;rounded=0;jumpSize=0;orthogonalLoop=1;jettySize=auto;html=1;exitX=0.5;exitY=1;exitDx=0;exitDy=0;entryX=0.5;entryY=0;entryDx=0;entryDy=0;strokeColor=default;strokeWidth=1;endArrow=classic;endFill=1;startSize=6;endSize=6;" parent="1" target="BsMnbUer-58-NS3dKeB3-1" edge="1">
          <mxGeometry relative="1" as="geometry">
            <mxPoint x="110" y="40" as="sourcePoint" />
          </mxGeometry>
        </mxCell>
        <mxCell id="k4iop2ZkuSYsBqn-YA2s-3" style="edgeStyle=orthogonalEdgeStyle;rounded=0;jumpSize=0;orthogonalLoop=1;jettySize=auto;html=1;exitX=0.5;exitY=1;exitDx=0;exitDy=0;entryX=0.5;entryY=0;entryDx=0;entryDy=0;strokeColor=default;strokeWidth=1;endArrow=classic;endFill=1;startSize=6;endSize=6;" parent="1" source="YGfhWtNpECo7cOLeVPPK-1" edge="1">
          <mxGeometry relative="1" as="geometry">
            <mxPoint x="110" y="250" as="targetPoint" />
          </mxGeometry>
        </mxCell>
        <mxCell id="YGfhWtNpECo7cOLeVPPK-1" value="l = []" style="rounded=0;whiteSpace=wrap;html=1;" parent="1" vertex="1">
          <mxGeometry x="60" y="190" width="100" height="30" as="geometry" />
        </mxCell>
        <mxCell id="BsMnbUer-58-NS3dKeB3-4" style="edgeStyle=orthogonalEdgeStyle;rounded=0;jumpSize=0;orthogonalLoop=1;jettySize=auto;html=1;exitX=0.5;exitY=1;exitDx=0;exitDy=0;entryX=0.5;entryY=0;entryDx=0;entryDy=0;strokeColor=default;strokeWidth=1;endArrow=classic;endFill=1;startSize=6;endSize=6;" parent="1" source="BsMnbUer-58-NS3dKeB3-1" target="BsMnbUer-58-NS3dKeB3-2" edge="1">
          <mxGeometry relative="1" as="geometry" />
        </mxCell>
        <mxCell id="BsMnbUer-58-NS3dKeB3-1" value="Ввод n" style="shape=parallelogram;perimeter=parallelogramPerimeter;whiteSpace=wrap;html=1;fixedSize=1;" parent="1" vertex="1">
          <mxGeometry x="60" y="70" width="100" height="30" as="geometry" />
        </mxCell>
        <mxCell id="BsMnbUer-58-NS3dKeB3-5" style="edgeStyle=orthogonalEdgeStyle;rounded=0;jumpSize=0;orthogonalLoop=1;jettySize=auto;html=1;exitX=0.5;exitY=1;exitDx=0;exitDy=0;entryX=0.5;entryY=0;entryDx=0;entryDy=0;strokeColor=default;strokeWidth=1;endArrow=classic;endFill=1;startSize=6;endSize=6;" parent="1" source="BsMnbUer-58-NS3dKeB3-2" target="YGfhWtNpECo7cOLeVPPK-1" edge="1">
          <mxGeometry relative="1" as="geometry" />
        </mxCell>
        <mxCell id="BsMnbUer-58-NS3dKeB3-2" value="Ввод W" style="shape=parallelogram;perimeter=parallelogramPerimeter;whiteSpace=wrap;html=1;fixedSize=1;" parent="1" vertex="1">
          <mxGeometry x="60" y="130" width="100" height="30" as="geometry" />
        </mxCell>
        <mxCell id="CCSbiytGCo2TiMq9IZg8-5" style="edgeStyle=orthogonalEdgeStyle;rounded=0;jumpSize=0;orthogonalLoop=1;jettySize=auto;html=1;exitX=0.5;exitY=1;exitDx=0;exitDy=0;entryX=0.5;entryY=0;entryDx=0;entryDy=0;strokeColor=default;strokeWidth=1;endArrow=classic;endFill=1;startSize=6;endSize=6;" parent="1" source="CCSbiytGCo2TiMq9IZg8-1" target="CCSbiytGCo2TiMq9IZg8-3" edge="1">
          <mxGeometry relative="1" as="geometry" />
        </mxCell>
        <mxCell id="CCSbiytGCo2TiMq9IZg8-1" value="&lt;div&gt;Цикл 1&lt;br&gt;&lt;/div&gt;i &amp;lt; n" style="shape=loopLimit;whiteSpace=wrap;html=1;" parent="1" vertex="1">
          <mxGeometry x="60" y="310" width="100" height="50" as="geometry" />
        </mxCell>
        <mxCell id="CCSbiytGCo2TiMq9IZg8-2" style="edgeStyle=orthogonalEdgeStyle;rounded=0;jumpSize=0;orthogonalLoop=1;jettySize=auto;html=1;exitX=0.5;exitY=1;exitDx=0;exitDy=0;entryX=0.5;entryY=0;entryDx=0;entryDy=0;strokeColor=default;strokeWidth=1;endArrow=classic;endFill=1;startSize=6;endSize=6;" parent="1" source="CCSbiytGCo2TiMq9IZg8-3" target="CCSbiytGCo2TiMq9IZg8-4" edge="1">
          <mxGeometry relative="1" as="geometry" />
        </mxCell>
        <mxCell id="CCSbiytGCo2TiMq9IZg8-3" value="Ввод a" style="shape=parallelogram;perimeter=parallelogramPerimeter;whiteSpace=wrap;html=1;fixedSize=1;" parent="1" vertex="1">
          <mxGeometry x="60" y="390" width="100" height="30" as="geometry" />
        </mxCell>
        <mxCell id="7d6hDgZlcXDAXRbDUA67-2" style="edgeStyle=orthogonalEdgeStyle;rounded=0;jumpSize=0;orthogonalLoop=1;jettySize=auto;html=1;exitX=0.5;exitY=1;exitDx=0;exitDy=0;entryX=0.5;entryY=0;entryDx=0;entryDy=0;strokeColor=default;strokeWidth=1;endArrow=classic;endFill=1;startSize=6;endSize=6;" parent="1" source="CCSbiytGCo2TiMq9IZg8-4" target="CCSbiytGCo2TiMq9IZg8-6" edge="1">
          <mxGeometry relative="1" as="geometry" />
        </mxCell>
        <mxCell id="CCSbiytGCo2TiMq9IZg8-4" value="Ввод b" style="shape=parallelogram;perimeter=parallelogramPerimeter;whiteSpace=wrap;html=1;fixedSize=1;" parent="1" vertex="1">
          <mxGeometry x="60" y="450" width="100" height="30" as="geometry" />
        </mxCell>
        <mxCell id="7d6hDgZlcXDAXRbDUA67-3" style="edgeStyle=orthogonalEdgeStyle;rounded=0;jumpSize=0;orthogonalLoop=1;jettySize=auto;html=1;exitX=0.5;exitY=1;exitDx=0;exitDy=0;entryX=0.5;entryY=0;entryDx=0;entryDy=0;strokeColor=default;strokeWidth=1;endArrow=classic;endFill=1;startSize=6;endSize=6;" parent="1" source="CCSbiytGCo2TiMq9IZg8-6" edge="1">
          <mxGeometry relative="1" as="geometry">
            <mxPoint x="110" y="590" as="targetPoint" />
          </mxGeometry>
        </mxCell>
        <mxCell id="CCSbiytGCo2TiMq9IZg8-6" value="t = (a, b, a / b)" style="rounded=0;whiteSpace=wrap;html=1;" parent="1" vertex="1">
          <mxGeometry x="60" y="510" width="100" height="30" as="geometry" />
        </mxCell>
        <mxCell id="gOAApZLkHvkhws2RLFBF-7" style="edgeStyle=orthogonalEdgeStyle;rounded=0;orthogonalLoop=1;jettySize=auto;html=1;exitX=0.5;exitY=1;exitDx=0;exitDy=0;entryX=0.5;entryY=0;entryDx=0;entryDy=0;" parent="1" source="fZOweU6visBGzX5TWs-a-1" target="6fLimgqTjpEbB94aW2pk-1" edge="1">
          <mxGeometry relative="1" as="geometry" />
        </mxCell>
        <mxCell id="fZOweU6visBGzX5TWs-a-1" value="l.sort(key=lambda x: -x[2])" style="shape=process;whiteSpace=wrap;html=1;backgroundOutline=1;" parent="1" vertex="1">
          <mxGeometry x="10" y="710" width="200" height="30" as="geometry" />
        </mxCell>
        <mxCell id="eUh2PKxDlKIQohe-6nJ9-1" value="" style="group" parent="1" vertex="1" connectable="0">
          <mxGeometry x="60" y="630" width="100" height="50" as="geometry" />
        </mxCell>
        <mxCell id="eUh2PKxDlKIQohe-6nJ9-2" value="" style="shape=loopLimit;whiteSpace=wrap;html=1;rotation=-180;" parent="eUh2PKxDlKIQohe-6nJ9-1" vertex="1">
          <mxGeometry width="100" height="50" as="geometry" />
        </mxCell>
        <mxCell id="eUh2PKxDlKIQohe-6nJ9-3" value="Конец цикла 1" style="text;html=1;strokeColor=none;fillColor=none;align=center;verticalAlign=middle;whiteSpace=wrap;rounded=0;" parent="eUh2PKxDlKIQohe-6nJ9-1" vertex="1">
          <mxGeometry x="16.666666666666668" y="6.25" width="66.66666666666667" height="37.5" as="geometry" />
        </mxCell>
        <mxCell id="px8Qayo1DCypojILS1El-2" style="edgeStyle=orthogonalEdgeStyle;rounded=0;jumpSize=0;orthogonalLoop=1;jettySize=auto;html=1;exitX=0.5;exitY=1;exitDx=0;exitDy=0;entryX=0.5;entryY=0;entryDx=0;entryDy=0;strokeColor=default;strokeWidth=1;endArrow=classic;endFill=1;startSize=6;endSize=6;" parent="1" source="6fLimgqTjpEbB94aW2pk-1" target="px8Qayo1DCypojILS1El-1" edge="1">
          <mxGeometry relative="1" as="geometry" />
        </mxCell>
        <mxCell id="6fLimgqTjpEbB94aW2pk-1" value="out = 0" style="rounded=0;whiteSpace=wrap;html=1;" parent="1" vertex="1">
          <mxGeometry x="60" y="770" width="100" height="30" as="geometry" />
        </mxCell>
        <mxCell id="px8Qayo1DCypojILS1El-1" value="1" style="ellipse;whiteSpace=wrap;html=1;aspect=fixed;" parent="1" vertex="1">
          <mxGeometry x="95" y="830" width="30" height="30" as="geometry" />
        </mxCell>
        <mxCell id="jrJT5O7P1SvPo1w7JMSY-5" style="edgeStyle=orthogonalEdgeStyle;rounded=0;jumpSize=0;orthogonalLoop=1;jettySize=auto;html=1;exitX=0.5;exitY=1;exitDx=0;exitDy=0;entryX=0.5;entryY=0;entryDx=0;entryDy=0;strokeColor=default;strokeWidth=1;endArrow=classic;endFill=1;startSize=6;endSize=6;" parent="1" source="px8Qayo1DCypojILS1El-4" target="jrJT5O7P1SvPo1w7JMSY-1" edge="1">
          <mxGeometry relative="1" as="geometry" />
        </mxCell>
        <mxCell id="px8Qayo1DCypojILS1El-4" value="1" style="ellipse;whiteSpace=wrap;html=1;aspect=fixed;" parent="1" vertex="1">
          <mxGeometry x="515" y="10" width="30" height="30" as="geometry" />
        </mxCell>
        <mxCell id="btYm0Ow_IztZ5EG6yKHM-7" style="edgeStyle=orthogonalEdgeStyle;rounded=0;jumpSize=0;orthogonalLoop=1;jettySize=auto;html=1;exitX=0.5;exitY=1;exitDx=0;exitDy=0;entryX=0.5;entryY=0;entryDx=0;entryDy=0;strokeColor=default;strokeWidth=1;endArrow=classic;endFill=1;startSize=6;endSize=6;" parent="1" source="jrJT5O7P1SvPo1w7JMSY-1" target="U68Q3lwhrWUCH0lL3maS-1" edge="1">
          <mxGeometry relative="1" as="geometry" />
        </mxCell>
        <mxCell id="jrJT5O7P1SvPo1w7JMSY-1" value="&lt;div&gt;Начало&lt;/div&gt;&lt;div&gt;цикла 2&lt;br&gt;&lt;/div&gt;" style="shape=loopLimit;whiteSpace=wrap;html=1;" parent="1" vertex="1">
          <mxGeometry x="480" y="70" width="100" height="50" as="geometry" />
        </mxCell>
        <mxCell id="jrJT5O7P1SvPo1w7JMSY-2" value="" style="group" parent="1" vertex="1" connectable="0">
          <mxGeometry x="480" y="520" width="100" height="50" as="geometry" />
        </mxCell>
        <mxCell id="jrJT5O7P1SvPo1w7JMSY-3" value="" style="shape=loopLimit;whiteSpace=wrap;html=1;rotation=-180;" parent="jrJT5O7P1SvPo1w7JMSY-2" vertex="1">
          <mxGeometry width="100" height="50" as="geometry" />
        </mxCell>
        <mxCell id="jrJT5O7P1SvPo1w7JMSY-4" value="&lt;div&gt;Конец&lt;/div&gt;&lt;div&gt;цикла 2&lt;br&gt;&lt;/div&gt;" style="text;html=1;strokeColor=none;fillColor=none;align=center;verticalAlign=middle;whiteSpace=wrap;rounded=0;" parent="jrJT5O7P1SvPo1w7JMSY-2" vertex="1">
          <mxGeometry x="16.666666666666668" y="6.25" width="66.66666666666667" height="37.5" as="geometry" />
        </mxCell>
        <mxCell id="btYm0Ow_IztZ5EG6yKHM-4" style="edgeStyle=orthogonalEdgeStyle;rounded=0;jumpSize=0;orthogonalLoop=1;jettySize=auto;html=1;exitX=1;exitY=0.5;exitDx=0;exitDy=0;entryX=0.5;entryY=0;entryDx=0;entryDy=0;strokeColor=default;strokeWidth=1;endArrow=classic;endFill=1;startSize=6;endSize=6;" parent="1" source="U68Q3lwhrWUCH0lL3maS-1" target="U68Q3lwhrWUCH0lL3maS-2" edge="1">
          <mxGeometry relative="1" as="geometry" />
        </mxCell>
        <mxCell id="btYm0Ow_IztZ5EG6yKHM-6" style="edgeStyle=orthogonalEdgeStyle;rounded=0;jumpSize=0;orthogonalLoop=1;jettySize=auto;html=1;exitX=0;exitY=0.5;exitDx=0;exitDy=0;entryX=0.5;entryY=0;entryDx=0;entryDy=0;strokeColor=default;strokeWidth=1;endArrow=classic;endFill=1;startSize=6;endSize=6;" parent="1" source="U68Q3lwhrWUCH0lL3maS-1" target="btYm0Ow_IztZ5EG6yKHM-5" edge="1">
          <mxGeometry relative="1" as="geometry" />
        </mxCell>
        <mxCell id="U68Q3lwhrWUCH0lL3maS-1" value="lst[0][1] &amp;gt; W" style="rhombus;whiteSpace=wrap;html=1;" parent="1" vertex="1">
          <mxGeometry x="455" y="150" width="150" height="50" as="geometry" />
        </mxCell>
        <mxCell id="btYm0Ow_IztZ5EG6yKHM-2" style="edgeStyle=orthogonalEdgeStyle;rounded=0;jumpSize=0;orthogonalLoop=1;jettySize=auto;html=1;exitX=0.5;exitY=1;exitDx=0;exitDy=0;entryX=0.5;entryY=0;entryDx=0;entryDy=0;strokeColor=default;strokeWidth=1;endArrow=classic;endFill=1;startSize=6;endSize=6;" parent="1" source="U68Q3lwhrWUCH0lL3maS-2" target="U68Q3lwhrWUCH0lL3maS-3" edge="1">
          <mxGeometry relative="1" as="geometry" />
        </mxCell>
        <mxCell id="U68Q3lwhrWUCH0lL3maS-2" value="&lt;div&gt;W = W - l[0][1]&lt;/div&gt;" style="rounded=0;whiteSpace=wrap;html=1;" parent="1" vertex="1">
          <mxGeometry x="605" y="230" width="100" height="30" as="geometry" />
        </mxCell>
        <mxCell id="btYm0Ow_IztZ5EG6yKHM-3" style="edgeStyle=orthogonalEdgeStyle;rounded=0;jumpSize=0;orthogonalLoop=1;jettySize=auto;html=1;exitX=0.5;exitY=1;exitDx=0;exitDy=0;entryX=0.5;entryY=0;entryDx=0;entryDy=0;strokeColor=default;strokeWidth=1;endArrow=classic;endFill=1;startSize=6;endSize=6;" parent="1" source="U68Q3lwhrWUCH0lL3maS-3" edge="1">
          <mxGeometry relative="1" as="geometry">
            <mxPoint x="655" y="350" as="targetPoint" />
          </mxGeometry>
        </mxCell>
        <mxCell id="U68Q3lwhrWUCH0lL3maS-3" value="&lt;div&gt;out = out - l[0][0]&lt;/div&gt;" style="rounded=0;whiteSpace=wrap;html=1;" parent="1" vertex="1">
          <mxGeometry x="605" y="290" width="100" height="30" as="geometry" />
        </mxCell>
        <mxCell id="btYm0Ow_IztZ5EG6yKHM-19" style="edgeStyle=orthogonalEdgeStyle;rounded=0;jumpSize=0;orthogonalLoop=1;jettySize=auto;html=1;exitX=0.5;exitY=1;exitDx=0;exitDy=0;entryX=0.5;entryY=1;entryDx=0;entryDy=0;strokeColor=default;strokeWidth=1;endArrow=classic;endFill=1;startSize=6;endSize=6;" parent="1" source="btYm0Ow_IztZ5EG6yKHM-5" target="jrJT5O7P1SvPo1w7JMSY-3" edge="1">
          <mxGeometry relative="1" as="geometry">
            <Array as="points">
              <mxPoint x="405" y="490" />
              <mxPoint x="530" y="490" />
            </Array>
          </mxGeometry>
        </mxCell>
        <mxCell id="btYm0Ow_IztZ5EG6yKHM-5" value="&lt;div&gt;out = out + l[0][0] * (1 - (l[0][1] - W) / l[0][1])&lt;br&gt;&lt;/div&gt;" style="rounded=0;whiteSpace=wrap;html=1;" parent="1" vertex="1">
          <mxGeometry x="280" y="230" width="250" height="30" as="geometry" />
        </mxCell>
        <mxCell id="bkZwtC5OH5OzrpdFJhk8-5" style="edgeStyle=orthogonalEdgeStyle;rounded=0;jumpSize=0;orthogonalLoop=1;jettySize=auto;html=1;exitX=0;exitY=0.5;exitDx=0;exitDy=0;entryX=0.5;entryY=0;entryDx=0;entryDy=0;strokeColor=default;strokeWidth=1;endArrow=classic;endFill=1;startSize=6;endSize=6;" parent="1" source="btYm0Ow_IztZ5EG6yKHM-10" target="jrJT5O7P1SvPo1w7JMSY-1" edge="1">
          <mxGeometry relative="1" as="geometry">
            <Array as="points">
              <mxPoint x="250" y="435" />
              <mxPoint x="250" y="50" />
              <mxPoint x="530" y="50" />
            </Array>
          </mxGeometry>
        </mxCell>
        <mxCell id="bkZwtC5OH5OzrpdFJhk8-6" style="edgeStyle=orthogonalEdgeStyle;rounded=0;jumpSize=0;orthogonalLoop=1;jettySize=auto;html=1;exitX=1;exitY=0.5;exitDx=0;exitDy=0;entryX=0.5;entryY=1;entryDx=0;entryDy=0;strokeColor=default;strokeWidth=1;endArrow=classic;endFill=1;startSize=6;endSize=6;" parent="1" source="btYm0Ow_IztZ5EG6yKHM-10" target="jrJT5O7P1SvPo1w7JMSY-3" edge="1">
          <mxGeometry relative="1" as="geometry">
            <Array as="points">
              <mxPoint x="770" y="435" />
              <mxPoint x="770" y="490" />
              <mxPoint x="530" y="490" />
            </Array>
          </mxGeometry>
        </mxCell>
        <mxCell id="btYm0Ow_IztZ5EG6yKHM-10" value="Массив l пуст" style="rhombus;whiteSpace=wrap;html=1;" parent="1" vertex="1">
          <mxGeometry x="580" y="410" width="150" height="50" as="geometry" />
        </mxCell>
        <mxCell id="btYm0Ow_IztZ5EG6yKHM-16" value="Да" style="text;html=1;align=center;verticalAlign=middle;resizable=0;points=[];autosize=1;strokeColor=none;fillColor=none;" parent="1" vertex="1">
          <mxGeometry x="605" y="150" width="40" height="30" as="geometry" />
        </mxCell>
        <mxCell id="btYm0Ow_IztZ5EG6yKHM-17" value="Нет" style="text;html=1;align=center;verticalAlign=middle;resizable=0;points=[];autosize=1;strokeColor=none;fillColor=none;" parent="1" vertex="1">
          <mxGeometry x="420" y="150" width="40" height="30" as="geometry" />
        </mxCell>
        <mxCell id="btYm0Ow_IztZ5EG6yKHM-21" value="Нет" style="text;html=1;align=center;verticalAlign=middle;resizable=0;points=[];autosize=1;strokeColor=none;fillColor=none;" parent="1" vertex="1">
          <mxGeometry x="550" y="405" width="40" height="30" as="geometry" />
        </mxCell>
        <mxCell id="btYm0Ow_IztZ5EG6yKHM-22" value="Да" style="text;html=1;align=center;verticalAlign=middle;resizable=0;points=[];autosize=1;strokeColor=none;fillColor=none;" parent="1" vertex="1">
          <mxGeometry x="730" y="405" width="40" height="30" as="geometry" />
        </mxCell>
        <mxCell id="DNgYq0v8FDa441GsSQVt-2" style="edgeStyle=orthogonalEdgeStyle;rounded=0;jumpSize=0;orthogonalLoop=1;jettySize=auto;html=1;exitX=0.5;exitY=1;exitDx=0;exitDy=0;entryX=0.498;entryY=-0.056;entryDx=0;entryDy=0;entryPerimeter=0;strokeColor=default;strokeWidth=1;endArrow=classic;endFill=1;startSize=6;endSize=6;" parent="1" source="P0_8TVzEUy6G_gY2WgYf-1" edge="1">
          <mxGeometry relative="1" as="geometry">
            <mxPoint x="529.8" y="688.3199999999999" as="targetPoint" />
          </mxGeometry>
        </mxCell>
        <mxCell id="P0_8TVzEUy6G_gY2WgYf-1" value="Вывод out" style="shape=parallelogram;perimeter=parallelogramPerimeter;whiteSpace=wrap;html=1;fixedSize=1;" parent="1" vertex="1">
          <mxGeometry x="480" y="600" width="100" height="30" as="geometry" />
        </mxCell>
        <mxCell id="P0_8TVzEUy6G_gY2WgYf-2" style="edgeStyle=orthogonalEdgeStyle;rounded=0;jumpSize=0;orthogonalLoop=1;jettySize=auto;html=1;exitX=0.5;exitY=0;exitDx=0;exitDy=0;entryX=0.5;entryY=0;entryDx=0;entryDy=0;strokeColor=default;strokeWidth=1;endArrow=classic;endFill=1;startSize=6;endSize=6;" parent="1" source="jrJT5O7P1SvPo1w7JMSY-3" target="P0_8TVzEUy6G_gY2WgYf-1" edge="1">
          <mxGeometry relative="1" as="geometry" />
        </mxCell>
        <mxCell id="bkZwtC5OH5OzrpdFJhk8-11" value="" style="ellipse;whiteSpace=wrap;html=1;aspect=fixed;" parent="1" vertex="1">
          <mxGeometry x="402.5" y="432.5" width="5" height="5" as="geometry" />
        </mxCell>
        <mxCell id="gOAApZLkHvkhws2RLFBF-5" style="edgeStyle=orthogonalEdgeStyle;rounded=0;orthogonalLoop=1;jettySize=auto;html=1;exitX=0.5;exitY=1;exitDx=0;exitDy=0;entryX=0.5;entryY=1;entryDx=0;entryDy=0;" parent="1" source="gOAApZLkHvkhws2RLFBF-1" target="eUh2PKxDlKIQohe-6nJ9-2" edge="1">
          <mxGeometry relative="1" as="geometry" />
        </mxCell>
        <mxCell id="gOAApZLkHvkhws2RLFBF-1" value="l.append(t)" style="shape=process;whiteSpace=wrap;html=1;backgroundOutline=1;strokeWidth=1;" parent="1" vertex="1">
          <mxGeometry x="60" y="570" width="100" height="30" as="geometry" />
        </mxCell>
        <mxCell id="gOAApZLkHvkhws2RLFBF-4" style="edgeStyle=orthogonalEdgeStyle;rounded=0;orthogonalLoop=1;jettySize=auto;html=1;exitX=0.5;exitY=1;exitDx=0;exitDy=0;entryX=0.5;entryY=0;entryDx=0;entryDy=0;" parent="1" source="gOAApZLkHvkhws2RLFBF-3" target="CCSbiytGCo2TiMq9IZg8-1" edge="1">
          <mxGeometry relative="1" as="geometry" />
        </mxCell>
        <mxCell id="gOAApZLkHvkhws2RLFBF-3" value="i = 0" style="rounded=0;whiteSpace=wrap;html=1;" parent="1" vertex="1">
          <mxGeometry x="60" y="250" width="100" height="30" as="geometry" />
        </mxCell>
        <mxCell id="gOAApZLkHvkhws2RLFBF-6" style="edgeStyle=orthogonalEdgeStyle;rounded=0;orthogonalLoop=1;jettySize=auto;html=1;exitX=0.5;exitY=0;exitDx=0;exitDy=0;entryX=0.5;entryY=0;entryDx=0;entryDy=0;" parent="1" source="eUh2PKxDlKIQohe-6nJ9-2" target="fZOweU6visBGzX5TWs-a-1" edge="1">
          <mxGeometry relative="1" as="geometry" />
        </mxCell>
        <mxCell id="gOAApZLkHvkhws2RLFBF-8" value="Начало" style="strokeWidth=1;html=1;shape=mxgraph.flowchart.terminator;whiteSpace=wrap;" parent="1" vertex="1">
          <mxGeometry x="60" y="10" width="100" height="30" as="geometry" />
        </mxCell>
        <mxCell id="gOAApZLkHvkhws2RLFBF-9" value="Конец" style="strokeWidth=1;html=1;shape=mxgraph.flowchart.terminator;whiteSpace=wrap;" parent="1" vertex="1">
          <mxGeometry x="480" y="660" width="100" height="30" as="geometry" />
        </mxCell>
        <mxCell id="YJv8OWgqtPy6jCZUgPFZ-3" style="edgeStyle=orthogonalEdgeStyle;rounded=0;orthogonalLoop=1;jettySize=auto;html=1;exitX=0.5;exitY=1;exitDx=0;exitDy=0;entryX=0.5;entryY=0;entryDx=0;entryDy=0;" parent="1" source="YJv8OWgqtPy6jCZUgPFZ-2" target="btYm0Ow_IztZ5EG6yKHM-10" edge="1">
          <mxGeometry relative="1" as="geometry" />
        </mxCell>
        <mxCell id="YJv8OWgqtPy6jCZUgPFZ-2" value="l.pop(t)" style="shape=process;whiteSpace=wrap;html=1;backgroundOutline=1;strokeWidth=1;" parent="1" vertex="1">
          <mxGeometry x="605" y="350" width="100" height="30" as="geometry" />
        </mxCell>
      </root>
    </mxGraphModel>
  </diagram>
  <diagram id="McBTIt47TmOl3iMw6y8p" name="4.1.3">
    <mxGraphModel dx="796" dy="790" grid="1" gridSize="10" guides="1" tooltips="1" connect="1" arrows="1" fold="1" page="1" pageScale="1" pageWidth="827" pageHeight="1169" math="0" shadow="0">
      <root>
        <mxCell id="0" />
        <mxCell id="1" parent="0" />
        <mxCell id="maD8Kq4HskNJCOYXW_eH-4" style="edgeStyle=orthogonalEdgeStyle;rounded=0;jumpSize=0;orthogonalLoop=1;jettySize=auto;html=1;exitX=0.5;exitY=1;exitDx=0;exitDy=0;entryX=0.5;entryY=0;entryDx=0;entryDy=0;strokeColor=default;strokeWidth=1;endArrow=classic;endFill=1;startSize=6;endSize=6;" parent="1" target="maD8Kq4HskNJCOYXW_eH-2" edge="1">
          <mxGeometry relative="1" as="geometry">
            <mxPoint x="160" y="40" as="sourcePoint" />
          </mxGeometry>
        </mxCell>
        <mxCell id="a_fhC4vZ9Sy9r4-rKcbN-2" style="edgeStyle=orthogonalEdgeStyle;rounded=0;jumpSize=0;orthogonalLoop=1;jettySize=auto;html=1;exitX=0.5;exitY=1;exitDx=0;exitDy=0;entryX=0.5;entryY=0;entryDx=0;entryDy=0;strokeColor=default;strokeWidth=1;endArrow=classic;endFill=1;startSize=6;endSize=6;" parent="1" source="maD8Kq4HskNJCOYXW_eH-2" target="a_fhC4vZ9Sy9r4-rKcbN-1" edge="1">
          <mxGeometry relative="1" as="geometry" />
        </mxCell>
        <mxCell id="maD8Kq4HskNJCOYXW_eH-2" value="Ввод n" style="shape=parallelogram;perimeter=parallelogramPerimeter;whiteSpace=wrap;html=1;fixedSize=1;" parent="1" vertex="1">
          <mxGeometry x="110" y="70" width="100" height="30" as="geometry" />
        </mxCell>
        <mxCell id="Q7ha2JhJlReiq-n2PHy7-1" style="edgeStyle=orthogonalEdgeStyle;rounded=0;orthogonalLoop=1;jettySize=auto;html=1;exitX=0.5;exitY=1;exitDx=0;exitDy=0;entryX=0.5;entryY=0;entryDx=0;entryDy=0;" parent="1" source="a_fhC4vZ9Sy9r4-rKcbN-1" target="85M338YuPkDggTcu6hUs-3" edge="1">
          <mxGeometry relative="1" as="geometry" />
        </mxCell>
        <mxCell id="a_fhC4vZ9Sy9r4-rKcbN-1" value="l = []" style="rounded=0;whiteSpace=wrap;html=1;" parent="1" vertex="1">
          <mxGeometry x="110" y="130" width="100" height="30" as="geometry" />
        </mxCell>
        <mxCell id="TmtRzNETwuqAwKkxyQav-8" style="edgeStyle=orthogonalEdgeStyle;rounded=0;jumpSize=0;orthogonalLoop=1;jettySize=auto;html=1;exitX=0.5;exitY=1;exitDx=0;exitDy=0;entryX=0.5;entryY=0;entryDx=0;entryDy=0;strokeColor=default;strokeWidth=1;endArrow=classic;endFill=1;startSize=6;endSize=6;" parent="1" source="TmtRzNETwuqAwKkxyQav-1" target="TmtRzNETwuqAwKkxyQav-6" edge="1">
          <mxGeometry relative="1" as="geometry" />
        </mxCell>
        <mxCell id="TmtRzNETwuqAwKkxyQav-1" value="&lt;div&gt;Цикл 1&lt;br&gt;&lt;/div&gt;i &amp;lt; n+1" style="shape=loopLimit;whiteSpace=wrap;html=1;" parent="1" vertex="1">
          <mxGeometry x="110" y="250" width="100" height="50" as="geometry" />
        </mxCell>
        <mxCell id="TmtRzNETwuqAwKkxyQav-2" value="" style="group" parent="1" vertex="1" connectable="0">
          <mxGeometry x="110" y="650" width="100" height="50" as="geometry" />
        </mxCell>
        <mxCell id="TmtRzNETwuqAwKkxyQav-3" value="" style="shape=loopLimit;whiteSpace=wrap;html=1;rotation=-180;" parent="TmtRzNETwuqAwKkxyQav-2" vertex="1">
          <mxGeometry width="100" height="50" as="geometry" />
        </mxCell>
        <mxCell id="TmtRzNETwuqAwKkxyQav-4" value="Конец цикла 1" style="text;html=1;strokeColor=none;fillColor=none;align=center;verticalAlign=middle;whiteSpace=wrap;rounded=0;" parent="TmtRzNETwuqAwKkxyQav-2" vertex="1">
          <mxGeometry x="16.666666666666668" y="6.25" width="66.66666666666667" height="37.5" as="geometry" />
        </mxCell>
        <mxCell id="TmtRzNETwuqAwKkxyQav-9" style="edgeStyle=orthogonalEdgeStyle;rounded=0;jumpSize=0;orthogonalLoop=1;jettySize=auto;html=1;exitX=0.5;exitY=1;exitDx=0;exitDy=0;entryX=0.5;entryY=0;entryDx=0;entryDy=0;strokeColor=default;strokeWidth=1;endArrow=classic;endFill=1;startSize=6;endSize=6;" parent="1" source="TmtRzNETwuqAwKkxyQav-6" target="TmtRzNETwuqAwKkxyQav-7" edge="1">
          <mxGeometry relative="1" as="geometry" />
        </mxCell>
        <mxCell id="TmtRzNETwuqAwKkxyQav-6" value="o = n" style="rounded=0;whiteSpace=wrap;html=1;" parent="1" vertex="1">
          <mxGeometry x="110" y="330" width="100" height="30" as="geometry" />
        </mxCell>
        <mxCell id="S1DHY6QNEVIsNV1fGud4-2" style="edgeStyle=orthogonalEdgeStyle;rounded=0;jumpSize=0;orthogonalLoop=1;jettySize=auto;html=1;exitX=0.5;exitY=1;exitDx=0;exitDy=0;entryX=0.5;entryY=0;entryDx=0;entryDy=0;strokeColor=default;strokeWidth=1;endArrow=classic;endFill=1;startSize=6;endSize=6;" parent="1" source="TmtRzNETwuqAwKkxyQav-7" target="S1DHY6QNEVIsNV1fGud4-1" edge="1">
          <mxGeometry relative="1" as="geometry" />
        </mxCell>
        <mxCell id="TmtRzNETwuqAwKkxyQav-7" value="n = n - i" style="rounded=0;whiteSpace=wrap;html=1;" parent="1" vertex="1">
          <mxGeometry x="110" y="390" width="100" height="30" as="geometry" />
        </mxCell>
        <mxCell id="Q7ha2JhJlReiq-n2PHy7-15" style="edgeStyle=orthogonalEdgeStyle;rounded=0;orthogonalLoop=1;jettySize=auto;html=1;exitX=0;exitY=0.5;exitDx=0;exitDy=0;entryX=0.5;entryY=0;entryDx=0;entryDy=0;" parent="1" source="S1DHY6QNEVIsNV1fGud4-1" target="Q7ha2JhJlReiq-n2PHy7-13" edge="1">
          <mxGeometry relative="1" as="geometry" />
        </mxCell>
        <mxCell id="Q7ha2JhJlReiq-n2PHy7-16" style="edgeStyle=orthogonalEdgeStyle;rounded=0;orthogonalLoop=1;jettySize=auto;html=1;exitX=1;exitY=0.5;exitDx=0;exitDy=0;entryX=0.5;entryY=0;entryDx=0;entryDy=0;" parent="1" source="S1DHY6QNEVIsNV1fGud4-1" target="Q7ha2JhJlReiq-n2PHy7-14" edge="1">
          <mxGeometry relative="1" as="geometry" />
        </mxCell>
        <mxCell id="S1DHY6QNEVIsNV1fGud4-1" value="n &amp;gt;= i + 1" style="rhombus;whiteSpace=wrap;html=1;" parent="1" vertex="1">
          <mxGeometry x="110" y="450" width="100" height="50" as="geometry" />
        </mxCell>
        <mxCell id="Nd7t52jsRXK9QOxgjf82-10" style="edgeStyle=orthogonalEdgeStyle;rounded=0;jumpSize=0;orthogonalLoop=1;jettySize=auto;html=1;exitX=0.5;exitY=1;exitDx=0;exitDy=0;entryX=0.5;entryY=0;entryDx=0;entryDy=0;strokeColor=default;strokeWidth=1;endArrow=classic;endFill=1;startSize=6;endSize=6;" parent="1" source="Nd7t52jsRXK9QOxgjf82-7" target="Nd7t52jsRXK9QOxgjf82-8" edge="1">
          <mxGeometry relative="1" as="geometry" />
        </mxCell>
        <mxCell id="Nd7t52jsRXK9QOxgjf82-7" value="&lt;div&gt;Вывести длину&lt;/div&gt;&lt;div&gt;массива l&lt;/div&gt;" style="shape=parallelogram;perimeter=parallelogramPerimeter;whiteSpace=wrap;html=1;fixedSize=1;" parent="1" vertex="1">
          <mxGeometry x="85" y="730" width="150" height="50" as="geometry" />
        </mxCell>
        <mxCell id="Q7ha2JhJlReiq-n2PHy7-23" style="edgeStyle=orthogonalEdgeStyle;rounded=0;orthogonalLoop=1;jettySize=auto;html=1;exitX=0.5;exitY=1;exitDx=0;exitDy=0;entryX=0.5;entryY=0;entryDx=0;entryDy=0;entryPerimeter=0;" parent="1" source="Nd7t52jsRXK9QOxgjf82-8" target="85M338YuPkDggTcu6hUs-2" edge="1">
          <mxGeometry relative="1" as="geometry" />
        </mxCell>
        <mxCell id="Nd7t52jsRXK9QOxgjf82-8" value="&lt;div&gt;Вывести&lt;/div&gt;&lt;div&gt;все элементы&lt;/div&gt;&lt;div&gt;массива l&lt;/div&gt;" style="shape=parallelogram;perimeter=parallelogramPerimeter;whiteSpace=wrap;html=1;fixedSize=1;" parent="1" vertex="1">
          <mxGeometry x="85" y="810" width="150" height="50" as="geometry" />
        </mxCell>
        <mxCell id="Nd7t52jsRXK9QOxgjf82-9" style="edgeStyle=orthogonalEdgeStyle;rounded=0;jumpSize=0;orthogonalLoop=1;jettySize=auto;html=1;exitX=0.5;exitY=0;exitDx=0;exitDy=0;entryX=0.5;entryY=0;entryDx=0;entryDy=0;strokeColor=default;strokeWidth=1;endArrow=classic;endFill=1;startSize=6;endSize=6;" parent="1" source="TmtRzNETwuqAwKkxyQav-3" target="Nd7t52jsRXK9QOxgjf82-7" edge="1">
          <mxGeometry relative="1" as="geometry" />
        </mxCell>
        <mxCell id="85M338YuPkDggTcu6hUs-1" value="Начало" style="strokeWidth=1;html=1;shape=mxgraph.flowchart.terminator;whiteSpace=wrap;" parent="1" vertex="1">
          <mxGeometry x="110" y="10" width="100" height="30" as="geometry" />
        </mxCell>
        <mxCell id="85M338YuPkDggTcu6hUs-2" value="Конец" style="strokeWidth=1;html=1;shape=mxgraph.flowchart.terminator;whiteSpace=wrap;" parent="1" vertex="1">
          <mxGeometry x="110" y="890" width="100" height="30" as="geometry" />
        </mxCell>
        <mxCell id="Q7ha2JhJlReiq-n2PHy7-2" style="edgeStyle=orthogonalEdgeStyle;rounded=0;orthogonalLoop=1;jettySize=auto;html=1;exitX=0.5;exitY=1;exitDx=0;exitDy=0;entryX=0.5;entryY=0;entryDx=0;entryDy=0;" parent="1" source="85M338YuPkDggTcu6hUs-3" target="TmtRzNETwuqAwKkxyQav-1" edge="1">
          <mxGeometry relative="1" as="geometry" />
        </mxCell>
        <mxCell id="85M338YuPkDggTcu6hUs-3" value="i = 1" style="rounded=0;whiteSpace=wrap;html=1;" parent="1" vertex="1">
          <mxGeometry x="110" y="190" width="100" height="30" as="geometry" />
        </mxCell>
        <mxCell id="Q7ha2JhJlReiq-n2PHy7-3" value="Да" style="text;html=1;align=center;verticalAlign=middle;resizable=0;points=[];autosize=1;strokeColor=none;fillColor=none;" parent="1" vertex="1">
          <mxGeometry x="210" y="444" width="40" height="30" as="geometry" />
        </mxCell>
        <mxCell id="Q7ha2JhJlReiq-n2PHy7-4" value="&lt;div&gt;Нет&lt;/div&gt;" style="text;html=1;align=center;verticalAlign=middle;resizable=0;points=[];autosize=1;strokeColor=none;fillColor=none;" parent="1" vertex="1">
          <mxGeometry x="70" y="444" width="40" height="30" as="geometry" />
        </mxCell>
        <mxCell id="Q7ha2JhJlReiq-n2PHy7-22" style="edgeStyle=orthogonalEdgeStyle;rounded=0;orthogonalLoop=1;jettySize=auto;html=1;exitX=0.5;exitY=1;exitDx=0;exitDy=0;entryX=0.5;entryY=0;entryDx=0;entryDy=0;" parent="1" source="Q7ha2JhJlReiq-n2PHy7-13" target="Nd7t52jsRXK9QOxgjf82-7" edge="1">
          <mxGeometry relative="1" as="geometry">
            <Array as="points">
              <mxPoint x="60" y="710" />
              <mxPoint x="160" y="710" />
            </Array>
          </mxGeometry>
        </mxCell>
        <mxCell id="Q7ha2JhJlReiq-n2PHy7-13" value="l.append(o)" style="shape=process;whiteSpace=wrap;html=1;backgroundOutline=1;strokeWidth=1;" parent="1" vertex="1">
          <mxGeometry x="10" y="500" width="100" height="30" as="geometry" />
        </mxCell>
        <mxCell id="Q7ha2JhJlReiq-n2PHy7-18" style="edgeStyle=orthogonalEdgeStyle;rounded=0;orthogonalLoop=1;jettySize=auto;html=1;exitX=0.5;exitY=1;exitDx=0;exitDy=0;entryX=0.5;entryY=0;entryDx=0;entryDy=0;" parent="1" source="Q7ha2JhJlReiq-n2PHy7-14" target="Q7ha2JhJlReiq-n2PHy7-17" edge="1">
          <mxGeometry relative="1" as="geometry" />
        </mxCell>
        <mxCell id="Q7ha2JhJlReiq-n2PHy7-14" value="l.append(i)" style="shape=process;whiteSpace=wrap;html=1;backgroundOutline=1;strokeWidth=1;" parent="1" vertex="1">
          <mxGeometry x="210" y="500" width="100" height="30" as="geometry" />
        </mxCell>
        <mxCell id="Q7ha2JhJlReiq-n2PHy7-19" style="edgeStyle=orthogonalEdgeStyle;rounded=0;orthogonalLoop=1;jettySize=auto;html=1;exitX=0.5;exitY=1;exitDx=0;exitDy=0;entryX=0.5;entryY=1;entryDx=0;entryDy=0;" parent="1" source="Q7ha2JhJlReiq-n2PHy7-17" target="TmtRzNETwuqAwKkxyQav-3" edge="1">
          <mxGeometry relative="1" as="geometry" />
        </mxCell>
        <mxCell id="Q7ha2JhJlReiq-n2PHy7-17" value="i = i + 1" style="rounded=0;whiteSpace=wrap;html=1;" parent="1" vertex="1">
          <mxGeometry x="110" y="590" width="100" height="30" as="geometry" />
        </mxCell>
      </root>
    </mxGraphModel>
  </diagram>
  <diagram id="Ji6SkJp1If05wd0ZINw-" name="4.3.1">
    <mxGraphModel dx="709" dy="790" grid="1" gridSize="10" guides="1" tooltips="1" connect="1" arrows="1" fold="1" page="1" pageScale="1" pageWidth="827" pageHeight="1169" math="0" shadow="0">
      <root>
        <mxCell id="0" />
        <mxCell id="1" parent="0" />
        <mxCell id="rcq1PFMYhySQMTTKWh0o-5" style="edgeStyle=orthogonalEdgeStyle;rounded=0;orthogonalLoop=1;jettySize=auto;html=1;exitX=0.5;exitY=1;exitDx=0;exitDy=0;exitPerimeter=0;entryX=0.5;entryY=0;entryDx=0;entryDy=0;" edge="1" parent="1" source="rcq1PFMYhySQMTTKWh0o-1" target="rcq1PFMYhySQMTTKWh0o-4">
          <mxGeometry relative="1" as="geometry" />
        </mxCell>
        <mxCell id="rcq1PFMYhySQMTTKWh0o-1" value="Начало" style="strokeWidth=1;html=1;shape=mxgraph.flowchart.terminator;whiteSpace=wrap;" vertex="1" parent="1">
          <mxGeometry x="195" y="10" width="100" height="30" as="geometry" />
        </mxCell>
        <mxCell id="rcq1PFMYhySQMTTKWh0o-8" style="edgeStyle=orthogonalEdgeStyle;rounded=0;orthogonalLoop=1;jettySize=auto;html=1;exitX=0.5;exitY=1;exitDx=0;exitDy=0;entryX=0.5;entryY=0;entryDx=0;entryDy=0;" edge="1" parent="1" source="rcq1PFMYhySQMTTKWh0o-2" target="rcq1PFMYhySQMTTKWh0o-7">
          <mxGeometry relative="1" as="geometry" />
        </mxCell>
        <mxCell id="rcq1PFMYhySQMTTKWh0o-2" value="l = []" style="rounded=0;whiteSpace=wrap;html=1;" vertex="1" parent="1">
          <mxGeometry x="195" y="130" width="100" height="30" as="geometry" />
        </mxCell>
        <mxCell id="rcq1PFMYhySQMTTKWh0o-6" style="edgeStyle=orthogonalEdgeStyle;rounded=0;orthogonalLoop=1;jettySize=auto;html=1;exitX=0.5;exitY=1;exitDx=0;exitDy=0;entryX=0.5;entryY=0;entryDx=0;entryDy=0;" edge="1" parent="1" source="rcq1PFMYhySQMTTKWh0o-4" target="rcq1PFMYhySQMTTKWh0o-2">
          <mxGeometry relative="1" as="geometry" />
        </mxCell>
        <mxCell id="rcq1PFMYhySQMTTKWh0o-4" value="Ввод n" style="shape=parallelogram;perimeter=parallelogramPerimeter;whiteSpace=wrap;html=1;fixedSize=1;" vertex="1" parent="1">
          <mxGeometry x="195" y="70" width="100" height="30" as="geometry" />
        </mxCell>
        <mxCell id="rcq1PFMYhySQMTTKWh0o-10" style="edgeStyle=orthogonalEdgeStyle;rounded=0;orthogonalLoop=1;jettySize=auto;html=1;exitX=0.5;exitY=1;exitDx=0;exitDy=0;entryX=0.5;entryY=0;entryDx=0;entryDy=0;" edge="1" parent="1" source="rcq1PFMYhySQMTTKWh0o-7" target="rcq1PFMYhySQMTTKWh0o-9">
          <mxGeometry relative="1" as="geometry" />
        </mxCell>
        <mxCell id="rcq1PFMYhySQMTTKWh0o-7" value="i = 0" style="rounded=0;whiteSpace=wrap;html=1;" vertex="1" parent="1">
          <mxGeometry x="195" y="190" width="100" height="30" as="geometry" />
        </mxCell>
        <mxCell id="rcq1PFMYhySQMTTKWh0o-13" style="edgeStyle=orthogonalEdgeStyle;rounded=0;orthogonalLoop=1;jettySize=auto;html=1;exitX=0.5;exitY=1;exitDx=0;exitDy=0;entryX=0.5;entryY=0;entryDx=0;entryDy=0;" edge="1" parent="1" source="rcq1PFMYhySQMTTKWh0o-9" target="rcq1PFMYhySQMTTKWh0o-11">
          <mxGeometry relative="1" as="geometry" />
        </mxCell>
        <mxCell id="rcq1PFMYhySQMTTKWh0o-9" value="&lt;div&gt;Цикл 1&lt;br&gt;&lt;/div&gt;i &amp;lt; n" style="shape=loopLimit;whiteSpace=wrap;html=1;" vertex="1" parent="1">
          <mxGeometry x="195" y="250" width="100" height="50" as="geometry" />
        </mxCell>
        <mxCell id="rcq1PFMYhySQMTTKWh0o-14" style="edgeStyle=orthogonalEdgeStyle;rounded=0;orthogonalLoop=1;jettySize=auto;html=1;exitX=0.5;exitY=1;exitDx=0;exitDy=0;entryX=0.5;entryY=0;entryDx=0;entryDy=0;" edge="1" parent="1" source="rcq1PFMYhySQMTTKWh0o-11" target="rcq1PFMYhySQMTTKWh0o-12">
          <mxGeometry relative="1" as="geometry" />
        </mxCell>
        <mxCell id="rcq1PFMYhySQMTTKWh0o-11" value="Ввод j" style="shape=parallelogram;perimeter=parallelogramPerimeter;whiteSpace=wrap;html=1;fixedSize=1;" vertex="1" parent="1">
          <mxGeometry x="195" y="330" width="100" height="30" as="geometry" />
        </mxCell>
        <mxCell id="rcq1PFMYhySQMTTKWh0o-16" style="edgeStyle=orthogonalEdgeStyle;rounded=0;orthogonalLoop=1;jettySize=auto;html=1;exitX=0.5;exitY=1;exitDx=0;exitDy=0;entryX=0.5;entryY=0;entryDx=0;entryDy=0;" edge="1" parent="1" source="rcq1PFMYhySQMTTKWh0o-12" target="rcq1PFMYhySQMTTKWh0o-15">
          <mxGeometry relative="1" as="geometry" />
        </mxCell>
        <mxCell id="rcq1PFMYhySQMTTKWh0o-12" value="j = j.split()" style="shape=process;whiteSpace=wrap;html=1;backgroundOutline=1;strokeWidth=1;" vertex="1" parent="1">
          <mxGeometry x="195" y="390" width="100" height="30" as="geometry" />
        </mxCell>
        <mxCell id="rcq1PFMYhySQMTTKWh0o-20" style="edgeStyle=orthogonalEdgeStyle;rounded=0;orthogonalLoop=1;jettySize=auto;html=1;exitX=1;exitY=0.5;exitDx=0;exitDy=0;entryX=0.5;entryY=0;entryDx=0;entryDy=0;" edge="1" parent="1" source="rcq1PFMYhySQMTTKWh0o-15" target="rcq1PFMYhySQMTTKWh0o-18">
          <mxGeometry relative="1" as="geometry" />
        </mxCell>
        <mxCell id="rcq1PFMYhySQMTTKWh0o-26" style="edgeStyle=orthogonalEdgeStyle;rounded=0;orthogonalLoop=1;jettySize=auto;html=1;exitX=0;exitY=0.5;exitDx=0;exitDy=0;entryX=0.5;entryY=0;entryDx=0;entryDy=0;" edge="1" parent="1" source="rcq1PFMYhySQMTTKWh0o-15" target="rcq1PFMYhySQMTTKWh0o-21">
          <mxGeometry relative="1" as="geometry" />
        </mxCell>
        <mxCell id="rcq1PFMYhySQMTTKWh0o-15" value="j[0] == &quot;Insert&quot;" style="rhombus;whiteSpace=wrap;html=1;" vertex="1" parent="1">
          <mxGeometry x="170" y="454.5" width="150" height="50" as="geometry" />
        </mxCell>
        <mxCell id="rcq1PFMYhySQMTTKWh0o-30" style="edgeStyle=orthogonalEdgeStyle;rounded=0;orthogonalLoop=1;jettySize=auto;html=1;exitX=0.5;exitY=1;exitDx=0;exitDy=0;entryX=0.5;entryY=0;entryDx=0;entryDy=0;" edge="1" parent="1" source="rcq1PFMYhySQMTTKWh0o-17" target="rcq1PFMYhySQMTTKWh0o-29">
          <mxGeometry relative="1" as="geometry">
            <Array as="points">
              <mxPoint x="405" y="690" />
              <mxPoint x="245" y="690" />
            </Array>
          </mxGeometry>
        </mxCell>
        <mxCell id="rcq1PFMYhySQMTTKWh0o-17" value="heappush(l, j[1])" style="shape=process;whiteSpace=wrap;html=1;backgroundOutline=1;strokeWidth=1;" vertex="1" parent="1">
          <mxGeometry x="330" y="570" width="150" height="30" as="geometry" />
        </mxCell>
        <mxCell id="rcq1PFMYhySQMTTKWh0o-19" style="edgeStyle=orthogonalEdgeStyle;rounded=0;orthogonalLoop=1;jettySize=auto;html=1;exitX=0.5;exitY=1;exitDx=0;exitDy=0;entryX=0.5;entryY=0;entryDx=0;entryDy=0;" edge="1" parent="1" source="rcq1PFMYhySQMTTKWh0o-18" target="rcq1PFMYhySQMTTKWh0o-17">
          <mxGeometry relative="1" as="geometry" />
        </mxCell>
        <mxCell id="rcq1PFMYhySQMTTKWh0o-18" value="j[1] = -int(j[1])" style="rounded=0;whiteSpace=wrap;html=1;" vertex="1" parent="1">
          <mxGeometry x="355" y="510" width="100" height="30" as="geometry" />
        </mxCell>
        <mxCell id="rcq1PFMYhySQMTTKWh0o-24" style="edgeStyle=orthogonalEdgeStyle;rounded=0;orthogonalLoop=1;jettySize=auto;html=1;exitX=0.5;exitY=1;exitDx=0;exitDy=0;entryX=0.5;entryY=0;entryDx=0;entryDy=0;" edge="1" parent="1" source="rcq1PFMYhySQMTTKWh0o-21" target="rcq1PFMYhySQMTTKWh0o-22">
          <mxGeometry relative="1" as="geometry" />
        </mxCell>
        <mxCell id="rcq1PFMYhySQMTTKWh0o-21" value="t = heappop(l)" style="shape=process;whiteSpace=wrap;html=1;backgroundOutline=1;strokeWidth=1;" vertex="1" parent="1">
          <mxGeometry x="10" y="510" width="150" height="30" as="geometry" />
        </mxCell>
        <mxCell id="rcq1PFMYhySQMTTKWh0o-25" style="edgeStyle=orthogonalEdgeStyle;rounded=0;orthogonalLoop=1;jettySize=auto;html=1;exitX=0.5;exitY=1;exitDx=0;exitDy=0;entryX=0.5;entryY=0;entryDx=0;entryDy=0;" edge="1" parent="1" source="rcq1PFMYhySQMTTKWh0o-22" target="rcq1PFMYhySQMTTKWh0o-23">
          <mxGeometry relative="1" as="geometry" />
        </mxCell>
        <mxCell id="rcq1PFMYhySQMTTKWh0o-22" value="t = -t" style="rounded=0;whiteSpace=wrap;html=1;" vertex="1" parent="1">
          <mxGeometry x="35" y="570" width="100" height="30" as="geometry" />
        </mxCell>
        <mxCell id="rcq1PFMYhySQMTTKWh0o-31" style="edgeStyle=orthogonalEdgeStyle;rounded=0;orthogonalLoop=1;jettySize=auto;html=1;exitX=0.5;exitY=1;exitDx=0;exitDy=0;entryX=0.5;entryY=0;entryDx=0;entryDy=0;" edge="1" parent="1" source="rcq1PFMYhySQMTTKWh0o-23" target="rcq1PFMYhySQMTTKWh0o-29">
          <mxGeometry relative="1" as="geometry">
            <Array as="points">
              <mxPoint x="85" y="690" />
              <mxPoint x="245" y="690" />
            </Array>
          </mxGeometry>
        </mxCell>
        <mxCell id="rcq1PFMYhySQMTTKWh0o-23" value="Вывод t" style="shape=parallelogram;perimeter=parallelogramPerimeter;whiteSpace=wrap;html=1;fixedSize=1;" vertex="1" parent="1">
          <mxGeometry x="35" y="630" width="100" height="30" as="geometry" />
        </mxCell>
        <mxCell id="rcq1PFMYhySQMTTKWh0o-27" value="Да" style="text;html=1;align=center;verticalAlign=middle;resizable=0;points=[];autosize=1;strokeColor=none;fillColor=none;" vertex="1" parent="1">
          <mxGeometry x="310" y="450" width="40" height="30" as="geometry" />
        </mxCell>
        <mxCell id="rcq1PFMYhySQMTTKWh0o-28" value="Нет" style="text;html=1;align=center;verticalAlign=middle;resizable=0;points=[];autosize=1;strokeColor=none;fillColor=none;" vertex="1" parent="1">
          <mxGeometry x="140" y="450" width="40" height="30" as="geometry" />
        </mxCell>
        <mxCell id="rcq1PFMYhySQMTTKWh0o-35" style="edgeStyle=orthogonalEdgeStyle;rounded=0;orthogonalLoop=1;jettySize=auto;html=1;exitX=0.5;exitY=1;exitDx=0;exitDy=0;entryX=0.5;entryY=1;entryDx=0;entryDy=0;" edge="1" parent="1" source="rcq1PFMYhySQMTTKWh0o-29" target="rcq1PFMYhySQMTTKWh0o-33">
          <mxGeometry relative="1" as="geometry" />
        </mxCell>
        <mxCell id="rcq1PFMYhySQMTTKWh0o-29" value="i = i + 1" style="rounded=0;whiteSpace=wrap;html=1;" vertex="1" parent="1">
          <mxGeometry x="195" y="720" width="100" height="30" as="geometry" />
        </mxCell>
        <mxCell id="rcq1PFMYhySQMTTKWh0o-32" value="" style="group" vertex="1" connectable="0" parent="1">
          <mxGeometry x="195" y="780" width="100" height="50" as="geometry" />
        </mxCell>
        <mxCell id="rcq1PFMYhySQMTTKWh0o-33" value="" style="shape=loopLimit;whiteSpace=wrap;html=1;rotation=-180;" vertex="1" parent="rcq1PFMYhySQMTTKWh0o-32">
          <mxGeometry width="100" height="50" as="geometry" />
        </mxCell>
        <mxCell id="rcq1PFMYhySQMTTKWh0o-34" value="Конец цикла 1" style="text;html=1;strokeColor=none;fillColor=none;align=center;verticalAlign=middle;whiteSpace=wrap;rounded=0;" vertex="1" parent="rcq1PFMYhySQMTTKWh0o-32">
          <mxGeometry x="16.666666666666668" y="6.25" width="66.66666666666667" height="37.5" as="geometry" />
        </mxCell>
        <mxCell id="rcq1PFMYhySQMTTKWh0o-36" value="Конец" style="strokeWidth=1;html=1;shape=mxgraph.flowchart.terminator;whiteSpace=wrap;" vertex="1" parent="1">
          <mxGeometry x="195" y="860" width="100" height="30" as="geometry" />
        </mxCell>
        <mxCell id="rcq1PFMYhySQMTTKWh0o-37" style="edgeStyle=orthogonalEdgeStyle;rounded=0;orthogonalLoop=1;jettySize=auto;html=1;exitX=0.5;exitY=0;exitDx=0;exitDy=0;entryX=0.5;entryY=0;entryDx=0;entryDy=0;entryPerimeter=0;" edge="1" parent="1" source="rcq1PFMYhySQMTTKWh0o-33" target="rcq1PFMYhySQMTTKWh0o-36">
          <mxGeometry relative="1" as="geometry" />
        </mxCell>
      </root>
    </mxGraphModel>
  </diagram>
  <diagram id="jQp4Y1PF_gXWKdRZnDET" name="6.5.1">
    <mxGraphModel dx="709" dy="790" grid="1" gridSize="10" guides="1" tooltips="1" connect="1" arrows="1" fold="1" page="1" pageScale="1" pageWidth="827" pageHeight="1169" math="0" shadow="0">
      <root>
        <mxCell id="0" />
        <mxCell id="1" parent="0" />
        <mxCell id="rwORHIhs1xM0aoOllQVp-3" style="edgeStyle=orthogonalEdgeStyle;rounded=0;jumpSize=0;orthogonalLoop=1;jettySize=auto;html=1;exitX=0.5;exitY=1;exitDx=0;exitDy=0;entryX=0.5;entryY=0;entryDx=0;entryDy=0;strokeColor=default;strokeWidth=1;endArrow=classic;endFill=1;startSize=6;endSize=6;" parent="1" target="rwORHIhs1xM0aoOllQVp-1" edge="1">
          <mxGeometry relative="1" as="geometry">
            <mxPoint x="85" y="40" as="sourcePoint" />
          </mxGeometry>
        </mxCell>
        <mxCell id="rwORHIhs1xM0aoOllQVp-4" style="edgeStyle=orthogonalEdgeStyle;rounded=0;jumpSize=0;orthogonalLoop=1;jettySize=auto;html=1;exitX=0.5;exitY=1;exitDx=0;exitDy=0;entryX=0.5;entryY=0;entryDx=0;entryDy=0;strokeColor=default;strokeWidth=1;endArrow=classic;endFill=1;startSize=6;endSize=6;" parent="1" source="rwORHIhs1xM0aoOllQVp-1" target="rwORHIhs1xM0aoOllQVp-2" edge="1">
          <mxGeometry relative="1" as="geometry" />
        </mxCell>
        <mxCell id="rwORHIhs1xM0aoOllQVp-1" value="Ввод n" style="shape=parallelogram;perimeter=parallelogramPerimeter;whiteSpace=wrap;html=1;fixedSize=1;" parent="1" vertex="1">
          <mxGeometry x="35" y="70" width="100" height="30" as="geometry" />
        </mxCell>
        <mxCell id="IXz7S4jzhDC0ofR0Jy1C-2" style="edgeStyle=orthogonalEdgeStyle;rounded=0;jumpSize=0;orthogonalLoop=1;jettySize=auto;html=1;exitX=0.5;exitY=1;exitDx=0;exitDy=0;entryX=0.5;entryY=0;entryDx=0;entryDy=0;strokeColor=default;strokeWidth=1;endArrow=classic;endFill=1;startSize=6;endSize=6;" parent="1" source="rwORHIhs1xM0aoOllQVp-2" target="IXz7S4jzhDC0ofR0Jy1C-1" edge="1">
          <mxGeometry relative="1" as="geometry" />
        </mxCell>
        <mxCell id="rwORHIhs1xM0aoOllQVp-2" value="Ввод m" style="shape=parallelogram;perimeter=parallelogramPerimeter;whiteSpace=wrap;html=1;fixedSize=1;" parent="1" vertex="1">
          <mxGeometry x="35" y="130" width="100" height="30" as="geometry" />
        </mxCell>
        <mxCell id="59x0NakWkKw2bXJzxHpd-4" style="edgeStyle=orthogonalEdgeStyle;rounded=0;orthogonalLoop=1;jettySize=auto;html=1;exitX=0.5;exitY=1;exitDx=0;exitDy=0;entryX=0.5;entryY=0;entryDx=0;entryDy=0;" parent="1" source="IXz7S4jzhDC0ofR0Jy1C-1" target="59x0NakWkKw2bXJzxHpd-3" edge="1">
          <mxGeometry relative="1" as="geometry" />
        </mxCell>
        <mxCell id="IXz7S4jzhDC0ofR0Jy1C-1" value="a = []" style="rounded=0;whiteSpace=wrap;html=1;" parent="1" vertex="1">
          <mxGeometry x="35" y="190" width="100" height="30" as="geometry" />
        </mxCell>
        <mxCell id="nFygnNmt6pVxSbs5YQoz-9" style="edgeStyle=orthogonalEdgeStyle;rounded=0;jumpSize=0;orthogonalLoop=1;jettySize=auto;html=1;exitX=0.5;exitY=1;exitDx=0;exitDy=0;entryX=0.5;entryY=0;entryDx=0;entryDy=0;strokeColor=default;strokeWidth=1;endArrow=classic;endFill=1;startSize=6;endSize=6;" parent="1" source="nFygnNmt6pVxSbs5YQoz-1" target="nFygnNmt6pVxSbs5YQoz-7" edge="1">
          <mxGeometry relative="1" as="geometry" />
        </mxCell>
        <mxCell id="nFygnNmt6pVxSbs5YQoz-1" value="&lt;div&gt;Цикл 1&lt;br&gt;&lt;/div&gt;i &amp;lt; n" style="shape=loopLimit;whiteSpace=wrap;html=1;" parent="1" vertex="1">
          <mxGeometry x="35" y="310" width="100" height="50" as="geometry" />
        </mxCell>
        <mxCell id="nFygnNmt6pVxSbs5YQoz-2" value="" style="group" parent="1" vertex="1" connectable="0">
          <mxGeometry x="35" y="810" width="100" height="50" as="geometry" />
        </mxCell>
        <mxCell id="nFygnNmt6pVxSbs5YQoz-3" value="" style="shape=loopLimit;whiteSpace=wrap;html=1;rotation=-180;" parent="nFygnNmt6pVxSbs5YQoz-2" vertex="1">
          <mxGeometry width="100" height="50" as="geometry" />
        </mxCell>
        <mxCell id="nFygnNmt6pVxSbs5YQoz-4" value="Конец цикла 1" style="text;html=1;strokeColor=none;fillColor=none;align=center;verticalAlign=middle;whiteSpace=wrap;rounded=0;" parent="nFygnNmt6pVxSbs5YQoz-2" vertex="1">
          <mxGeometry x="16.666666666666668" y="6.25" width="66.66666666666667" height="37.5" as="geometry" />
        </mxCell>
        <mxCell id="nFygnNmt6pVxSbs5YQoz-6" style="edgeStyle=orthogonalEdgeStyle;rounded=0;jumpSize=0;orthogonalLoop=1;jettySize=auto;html=1;exitX=0.5;exitY=1;exitDx=0;exitDy=0;entryX=0.5;entryY=0;entryDx=0;entryDy=0;strokeColor=default;strokeWidth=1;endArrow=classic;endFill=1;startSize=6;endSize=6;" parent="1" source="nFygnNmt6pVxSbs5YQoz-7" target="nFygnNmt6pVxSbs5YQoz-8" edge="1">
          <mxGeometry relative="1" as="geometry" />
        </mxCell>
        <mxCell id="nFygnNmt6pVxSbs5YQoz-7" value="Ввод l" style="shape=parallelogram;perimeter=parallelogramPerimeter;whiteSpace=wrap;html=1;fixedSize=1;" parent="1" vertex="1">
          <mxGeometry x="35" y="390" width="100" height="30" as="geometry" />
        </mxCell>
        <mxCell id="6Z2yoDibT2zR3657qM91-2" style="edgeStyle=orthogonalEdgeStyle;rounded=0;jumpSize=0;orthogonalLoop=1;jettySize=auto;html=1;exitX=0.5;exitY=1;exitDx=0;exitDy=0;entryX=0.5;entryY=0;entryDx=0;entryDy=0;strokeColor=default;strokeWidth=1;endArrow=classic;endFill=1;startSize=6;endSize=6;" parent="1" source="nFygnNmt6pVxSbs5YQoz-8" target="6Z2yoDibT2zR3657qM91-1" edge="1">
          <mxGeometry relative="1" as="geometry" />
        </mxCell>
        <mxCell id="nFygnNmt6pVxSbs5YQoz-8" value="Ввод r" style="shape=parallelogram;perimeter=parallelogramPerimeter;whiteSpace=wrap;html=1;fixedSize=1;" parent="1" vertex="1">
          <mxGeometry x="35" y="450" width="100" height="30" as="geometry" />
        </mxCell>
        <mxCell id="6Z2yoDibT2zR3657qM91-4" style="edgeStyle=orthogonalEdgeStyle;rounded=0;jumpSize=0;orthogonalLoop=1;jettySize=auto;html=1;exitX=0.5;exitY=1;exitDx=0;exitDy=0;entryX=0.5;entryY=0;entryDx=0;entryDy=0;strokeColor=default;strokeWidth=1;endArrow=classic;endFill=1;startSize=6;endSize=6;" parent="1" source="6Z2yoDibT2zR3657qM91-1" edge="1">
          <mxGeometry relative="1" as="geometry">
            <mxPoint x="85" y="570" as="targetPoint" />
          </mxGeometry>
        </mxCell>
        <mxCell id="6Z2yoDibT2zR3657qM91-1" value="t = [l, -1]" style="rounded=0;whiteSpace=wrap;html=1;" parent="1" vertex="1">
          <mxGeometry x="35" y="510" width="100" height="30" as="geometry" />
        </mxCell>
        <mxCell id="59x0NakWkKw2bXJzxHpd-9" style="edgeStyle=orthogonalEdgeStyle;rounded=0;orthogonalLoop=1;jettySize=auto;html=1;exitX=0.5;exitY=1;exitDx=0;exitDy=0;entryX=0.5;entryY=0;entryDx=0;entryDy=0;" parent="1" source="6Z2yoDibT2zR3657qM91-5" target="59x0NakWkKw2bXJzxHpd-8" edge="1">
          <mxGeometry relative="1" as="geometry" />
        </mxCell>
        <mxCell id="6Z2yoDibT2zR3657qM91-5" value="t = [r, 1]" style="rounded=0;whiteSpace=wrap;html=1;" parent="1" vertex="1">
          <mxGeometry x="35" y="630" width="100" height="30" as="geometry" />
        </mxCell>
        <mxCell id="59x0NakWkKw2bXJzxHpd-12" style="edgeStyle=orthogonalEdgeStyle;rounded=0;orthogonalLoop=1;jettySize=auto;html=1;exitX=0.5;exitY=1;exitDx=0;exitDy=0;entryX=0.5;entryY=0;entryDx=0;entryDy=0;" parent="1" source="6Z2yoDibT2zR3657qM91-10" target="59x0NakWkKw2bXJzxHpd-11" edge="1">
          <mxGeometry relative="1" as="geometry" />
        </mxCell>
        <mxCell id="6Z2yoDibT2zR3657qM91-10" value="Ввод p" style="shape=parallelogram;perimeter=parallelogramPerimeter;whiteSpace=wrap;html=1;fixedSize=1;" parent="1" vertex="1">
          <mxGeometry x="276.5" y="70" width="100" height="30" as="geometry" />
        </mxCell>
        <mxCell id="YttYdS2UohtOKdNyW_uJ-8" style="edgeStyle=orthogonalEdgeStyle;rounded=0;jumpSize=0;orthogonalLoop=1;jettySize=auto;html=1;exitX=0.5;exitY=1;exitDx=0;exitDy=0;entryX=0.5;entryY=0;entryDx=0;entryDy=0;strokeColor=default;strokeWidth=1;endArrow=classic;endFill=1;startSize=6;endSize=6;" parent="1" source="6Z2yoDibT2zR3657qM91-11" target="YttYdS2UohtOKdNyW_uJ-7" edge="1">
          <mxGeometry relative="1" as="geometry" />
        </mxCell>
        <mxCell id="6Z2yoDibT2zR3657qM91-11" value="&lt;div&gt;Цикл 2&lt;br&gt;&lt;/div&gt;&lt;div&gt;i &amp;lt; m&lt;/div&gt;" style="shape=loopLimit;whiteSpace=wrap;html=1;" parent="1" vertex="1">
          <mxGeometry x="276.5" y="190" width="100" height="50" as="geometry" />
        </mxCell>
        <mxCell id="YttYdS2UohtOKdNyW_uJ-1" value="1" style="ellipse;whiteSpace=wrap;html=1;aspect=fixed;" parent="1" vertex="1">
          <mxGeometry x="70" y="890" width="30" height="30" as="geometry" />
        </mxCell>
        <mxCell id="YttYdS2UohtOKdNyW_uJ-2" style="edgeStyle=orthogonalEdgeStyle;rounded=0;jumpSize=0;orthogonalLoop=1;jettySize=auto;html=1;exitX=0.5;exitY=0;exitDx=0;exitDy=0;entryX=0.5;entryY=0;entryDx=0;entryDy=0;strokeColor=default;strokeWidth=1;endArrow=classic;endFill=1;startSize=6;endSize=6;" parent="1" source="nFygnNmt6pVxSbs5YQoz-3" target="YttYdS2UohtOKdNyW_uJ-1" edge="1">
          <mxGeometry relative="1" as="geometry" />
        </mxCell>
        <mxCell id="YttYdS2UohtOKdNyW_uJ-4" style="edgeStyle=orthogonalEdgeStyle;rounded=0;jumpSize=0;orthogonalLoop=1;jettySize=auto;html=1;exitX=0.5;exitY=1;exitDx=0;exitDy=0;entryX=0.5;entryY=0;entryDx=0;entryDy=0;strokeColor=default;strokeWidth=1;endArrow=classic;endFill=1;startSize=6;endSize=6;" parent="1" source="YttYdS2UohtOKdNyW_uJ-3" target="6Z2yoDibT2zR3657qM91-10" edge="1">
          <mxGeometry relative="1" as="geometry" />
        </mxCell>
        <mxCell id="YttYdS2UohtOKdNyW_uJ-3" value="1" style="ellipse;whiteSpace=wrap;html=1;aspect=fixed;" parent="1" vertex="1">
          <mxGeometry x="312.5" y="10" width="30" height="30" as="geometry" />
        </mxCell>
        <mxCell id="59x0NakWkKw2bXJzxHpd-15" style="edgeStyle=orthogonalEdgeStyle;rounded=0;orthogonalLoop=1;jettySize=auto;html=1;exitX=0.5;exitY=1;exitDx=0;exitDy=0;entryX=0.5;entryY=0;entryDx=0;entryDy=0;" parent="1" source="YttYdS2UohtOKdNyW_uJ-7" target="59x0NakWkKw2bXJzxHpd-14" edge="1">
          <mxGeometry relative="1" as="geometry" />
        </mxCell>
        <mxCell id="YttYdS2UohtOKdNyW_uJ-7" value="t = [p[i], 0, i]" style="rounded=0;whiteSpace=wrap;html=1;" parent="1" vertex="1">
          <mxGeometry x="276.5" y="270" width="100" height="30" as="geometry" />
        </mxCell>
        <mxCell id="YttYdS2UohtOKdNyW_uJ-10" value="" style="group" parent="1" vertex="1" connectable="0">
          <mxGeometry x="276.5" y="450" width="100" height="50" as="geometry" />
        </mxCell>
        <mxCell id="YttYdS2UohtOKdNyW_uJ-11" value="" style="shape=loopLimit;whiteSpace=wrap;html=1;rotation=-180;" parent="YttYdS2UohtOKdNyW_uJ-10" vertex="1">
          <mxGeometry width="100" height="50" as="geometry" />
        </mxCell>
        <mxCell id="YttYdS2UohtOKdNyW_uJ-12" value="Конец цикла 2" style="text;html=1;strokeColor=none;fillColor=none;align=center;verticalAlign=middle;whiteSpace=wrap;rounded=0;" parent="YttYdS2UohtOKdNyW_uJ-10" vertex="1">
          <mxGeometry x="16.666666666666668" y="6.25" width="66.66666666666667" height="37.5" as="geometry" />
        </mxCell>
        <mxCell id="c6Am3LLDcKrt3XLOxVjW-2" style="edgeStyle=orthogonalEdgeStyle;rounded=0;jumpSize=0;orthogonalLoop=1;jettySize=auto;html=1;exitX=0.5;exitY=0;exitDx=0;exitDy=0;entryX=0.5;entryY=0;entryDx=0;entryDy=0;strokeColor=default;strokeWidth=1;endArrow=classic;endFill=1;startSize=6;endSize=6;" parent="1" source="YttYdS2UohtOKdNyW_uJ-11" edge="1">
          <mxGeometry relative="1" as="geometry">
            <mxPoint x="326.5" y="530" as="targetPoint" />
          </mxGeometry>
        </mxCell>
        <mxCell id="f-WnxcjTfjLgtTyMlelh-2" style="edgeStyle=orthogonalEdgeStyle;rounded=0;jumpSize=0;orthogonalLoop=1;jettySize=auto;html=1;exitX=0.5;exitY=1;exitDx=0;exitDy=0;entryX=0.5;entryY=0;entryDx=0;entryDy=0;strokeColor=default;strokeWidth=1;endArrow=classic;endFill=1;startSize=6;endSize=6;" parent="1" source="X3_6Q-RAgz8T4vvDJt0V-1" target="f-WnxcjTfjLgtTyMlelh-1" edge="1">
          <mxGeometry relative="1" as="geometry" />
        </mxCell>
        <mxCell id="X3_6Q-RAgz8T4vvDJt0V-1" value="&lt;div&gt;Цикл 3&lt;br&gt;&lt;/div&gt;&lt;div&gt;i &amp;lt; len(a)&lt;br&gt;&lt;/div&gt;" style="shape=loopLimit;whiteSpace=wrap;html=1;" parent="1" vertex="1">
          <mxGeometry x="505" y="250" width="100" height="50" as="geometry" />
        </mxCell>
        <mxCell id="X3_6Q-RAgz8T4vvDJt0V-2" value="" style="group" parent="1" vertex="1" connectable="0">
          <mxGeometry x="505" y="670" width="100" height="50" as="geometry" />
        </mxCell>
        <mxCell id="X3_6Q-RAgz8T4vvDJt0V-3" value="" style="shape=loopLimit;whiteSpace=wrap;html=1;rotation=-180;" parent="X3_6Q-RAgz8T4vvDJt0V-2" vertex="1">
          <mxGeometry width="100" height="50" as="geometry" />
        </mxCell>
        <mxCell id="X3_6Q-RAgz8T4vvDJt0V-4" value="Конец цикла 3" style="text;html=1;strokeColor=none;fillColor=none;align=center;verticalAlign=middle;whiteSpace=wrap;rounded=0;" parent="X3_6Q-RAgz8T4vvDJt0V-2" vertex="1">
          <mxGeometry x="16.666666666666668" y="6.25" width="66.66666666666667" height="37.5" as="geometry" />
        </mxCell>
        <mxCell id="X3_6Q-RAgz8T4vvDJt0V-5" value="2" style="ellipse;whiteSpace=wrap;html=1;aspect=fixed;" parent="1" vertex="1">
          <mxGeometry x="312.5" y="590" width="30" height="30" as="geometry" />
        </mxCell>
        <mxCell id="X3_6Q-RAgz8T4vvDJt0V-12" style="edgeStyle=orthogonalEdgeStyle;rounded=0;jumpSize=0;orthogonalLoop=1;jettySize=auto;html=1;exitX=0.5;exitY=1;exitDx=0;exitDy=0;entryX=0.5;entryY=0;entryDx=0;entryDy=0;strokeColor=default;strokeWidth=1;endArrow=classic;endFill=1;startSize=6;endSize=6;" parent="1" source="X3_6Q-RAgz8T4vvDJt0V-8" target="X3_6Q-RAgz8T4vvDJt0V-11" edge="1">
          <mxGeometry relative="1" as="geometry" />
        </mxCell>
        <mxCell id="X3_6Q-RAgz8T4vvDJt0V-8" value="2" style="ellipse;whiteSpace=wrap;html=1;aspect=fixed;" parent="1" vertex="1">
          <mxGeometry x="540" y="10" width="30" height="30" as="geometry" />
        </mxCell>
        <mxCell id="59x0NakWkKw2bXJzxHpd-22" style="edgeStyle=orthogonalEdgeStyle;rounded=0;orthogonalLoop=1;jettySize=auto;html=1;exitX=0.5;exitY=1;exitDx=0;exitDy=0;entryX=0.5;entryY=0;entryDx=0;entryDy=0;" parent="1" source="X3_6Q-RAgz8T4vvDJt0V-9" target="59x0NakWkKw2bXJzxHpd-21" edge="1">
          <mxGeometry relative="1" as="geometry" />
        </mxCell>
        <mxCell id="X3_6Q-RAgz8T4vvDJt0V-9" value="res = [0] * m" style="rounded=0;whiteSpace=wrap;html=1;" parent="1" vertex="1">
          <mxGeometry x="505" y="130" width="100" height="30" as="geometry" />
        </mxCell>
        <mxCell id="X3_6Q-RAgz8T4vvDJt0V-10" style="edgeStyle=orthogonalEdgeStyle;rounded=0;jumpSize=0;orthogonalLoop=1;jettySize=auto;html=1;exitX=0.5;exitY=1;exitDx=0;exitDy=0;entryX=0.5;entryY=0;entryDx=0;entryDy=0;strokeColor=default;strokeWidth=1;endArrow=classic;endFill=1;startSize=6;endSize=6;" parent="1" source="X3_6Q-RAgz8T4vvDJt0V-11" target="X3_6Q-RAgz8T4vvDJt0V-9" edge="1">
          <mxGeometry relative="1" as="geometry" />
        </mxCell>
        <mxCell id="X3_6Q-RAgz8T4vvDJt0V-11" value="curr = 0" style="rounded=0;whiteSpace=wrap;html=1;" parent="1" vertex="1">
          <mxGeometry x="505" y="70" width="100" height="30" as="geometry" />
        </mxCell>
        <mxCell id="59x0NakWkKw2bXJzxHpd-27" style="edgeStyle=orthogonalEdgeStyle;rounded=0;orthogonalLoop=1;jettySize=auto;html=1;exitX=0.5;exitY=1;exitDx=0;exitDy=0;entryX=0;entryY=0.5;entryDx=0;entryDy=0;" parent="1" source="f-WnxcjTfjLgtTyMlelh-1" target="f-WnxcjTfjLgtTyMlelh-5" edge="1">
          <mxGeometry relative="1" as="geometry" />
        </mxCell>
        <mxCell id="59x0NakWkKw2bXJzxHpd-28" style="edgeStyle=orthogonalEdgeStyle;rounded=0;orthogonalLoop=1;jettySize=auto;html=1;exitX=0.5;exitY=1;exitDx=0;exitDy=0;entryX=0;entryY=0.5;entryDx=0;entryDy=0;" parent="1" source="f-WnxcjTfjLgtTyMlelh-1" target="f-WnxcjTfjLgtTyMlelh-3" edge="1">
          <mxGeometry relative="1" as="geometry" />
        </mxCell>
        <mxCell id="59x0NakWkKw2bXJzxHpd-29" style="edgeStyle=orthogonalEdgeStyle;rounded=0;orthogonalLoop=1;jettySize=auto;html=1;exitX=0.5;exitY=1;exitDx=0;exitDy=0;entryX=0;entryY=0.5;entryDx=0;entryDy=0;" parent="1" source="f-WnxcjTfjLgtTyMlelh-1" target="f-WnxcjTfjLgtTyMlelh-4" edge="1">
          <mxGeometry relative="1" as="geometry" />
        </mxCell>
        <mxCell id="f-WnxcjTfjLgtTyMlelh-1" value="a[i][1]" style="rhombus;whiteSpace=wrap;html=1;" parent="1" vertex="1">
          <mxGeometry x="505" y="330" width="100" height="50" as="geometry" />
        </mxCell>
        <mxCell id="59x0NakWkKw2bXJzxHpd-33" style="edgeStyle=orthogonalEdgeStyle;rounded=0;orthogonalLoop=1;jettySize=auto;html=1;exitX=1;exitY=0.5;exitDx=0;exitDy=0;strokeWidth=1;endArrow=none;endFill=0;" parent="1" source="f-WnxcjTfjLgtTyMlelh-3" edge="1">
          <mxGeometry relative="1" as="geometry">
            <mxPoint x="735" y="490" as="targetPoint" />
          </mxGeometry>
        </mxCell>
        <mxCell id="f-WnxcjTfjLgtTyMlelh-3" value="res[a[i][2]] = curr" style="rounded=0;whiteSpace=wrap;html=1;" parent="1" vertex="1">
          <mxGeometry x="605" y="460" width="100" height="30" as="geometry" />
        </mxCell>
        <mxCell id="59x0NakWkKw2bXJzxHpd-35" style="edgeStyle=orthogonalEdgeStyle;rounded=0;orthogonalLoop=1;jettySize=auto;html=1;exitX=1;exitY=0.5;exitDx=0;exitDy=0;strokeWidth=1;endArrow=none;endFill=0;" parent="1" source="f-WnxcjTfjLgtTyMlelh-4" edge="1">
          <mxGeometry relative="1" as="geometry">
            <mxPoint x="735.0285714285715" y="550" as="targetPoint" />
          </mxGeometry>
        </mxCell>
        <mxCell id="f-WnxcjTfjLgtTyMlelh-4" value="curr = curr - 1" style="rounded=0;whiteSpace=wrap;html=1;" parent="1" vertex="1">
          <mxGeometry x="605" y="520" width="100" height="30" as="geometry" />
        </mxCell>
        <mxCell id="59x0NakWkKw2bXJzxHpd-31" style="edgeStyle=orthogonalEdgeStyle;rounded=0;orthogonalLoop=1;jettySize=auto;html=1;exitX=1;exitY=0.5;exitDx=0;exitDy=0;entryX=0.5;entryY=0;entryDx=0;entryDy=0;" parent="1" source="f-WnxcjTfjLgtTyMlelh-5" target="59x0NakWkKw2bXJzxHpd-30" edge="1">
          <mxGeometry relative="1" as="geometry">
            <Array as="points">
              <mxPoint x="735" y="415" />
              <mxPoint x="735" y="580" />
            </Array>
          </mxGeometry>
        </mxCell>
        <mxCell id="f-WnxcjTfjLgtTyMlelh-5" value="curr = curr + 1" style="rounded=0;whiteSpace=wrap;html=1;" parent="1" vertex="1">
          <mxGeometry x="605" y="400" width="100" height="30" as="geometry" />
        </mxCell>
        <mxCell id="f-WnxcjTfjLgtTyMlelh-9" value="-1" style="text;html=1;align=center;verticalAlign=middle;resizable=0;points=[];autosize=1;strokeColor=none;fillColor=none;" parent="1" vertex="1">
          <mxGeometry x="555" y="385" width="30" height="30" as="geometry" />
        </mxCell>
        <mxCell id="f-WnxcjTfjLgtTyMlelh-10" value="0" style="text;html=1;align=center;verticalAlign=middle;resizable=0;points=[];autosize=1;strokeColor=none;fillColor=none;" parent="1" vertex="1">
          <mxGeometry x="555" y="445" width="30" height="30" as="geometry" />
        </mxCell>
        <mxCell id="f-WnxcjTfjLgtTyMlelh-11" value="1" style="text;html=1;align=center;verticalAlign=middle;resizable=0;points=[];autosize=1;strokeColor=none;fillColor=none;" parent="1" vertex="1">
          <mxGeometry x="555" y="505" width="30" height="30" as="geometry" />
        </mxCell>
        <mxCell id="xPiqNoCfI_SR0N4Jzip7-2" style="edgeStyle=orthogonalEdgeStyle;rounded=0;jumpSize=0;orthogonalLoop=1;jettySize=auto;html=1;exitX=0.5;exitY=1;exitDx=0;exitDy=0;entryX=0.5;entryY=0;entryDx=0;entryDy=0;strokeColor=default;strokeWidth=1;endArrow=classic;endFill=1;startSize=6;endSize=6;" parent="1" source="gRrSdGGXG_b5UnSB3bdU-1" edge="1">
          <mxGeometry relative="1" as="geometry">
            <mxPoint x="555" y="830" as="targetPoint" />
          </mxGeometry>
        </mxCell>
        <mxCell id="gRrSdGGXG_b5UnSB3bdU-1" value="&lt;div&gt;Вывести&lt;/div&gt;&lt;div&gt;все элементы&lt;/div&gt;&lt;div&gt;массива res&lt;br&gt;&lt;/div&gt;" style="shape=parallelogram;perimeter=parallelogramPerimeter;whiteSpace=wrap;html=1;fixedSize=1;" parent="1" vertex="1">
          <mxGeometry x="480" y="750" width="150" height="50" as="geometry" />
        </mxCell>
        <mxCell id="gRrSdGGXG_b5UnSB3bdU-2" style="edgeStyle=orthogonalEdgeStyle;rounded=0;jumpSize=0;orthogonalLoop=1;jettySize=auto;html=1;exitX=0.5;exitY=0;exitDx=0;exitDy=0;entryX=0.5;entryY=0;entryDx=0;entryDy=0;strokeColor=default;strokeWidth=1;endArrow=classic;endFill=1;startSize=6;endSize=6;" parent="1" source="X3_6Q-RAgz8T4vvDJt0V-3" target="gRrSdGGXG_b5UnSB3bdU-1" edge="1">
          <mxGeometry relative="1" as="geometry" />
        </mxCell>
        <mxCell id="59x0NakWkKw2bXJzxHpd-1" value="Начало" style="strokeWidth=1;html=1;shape=mxgraph.flowchart.terminator;whiteSpace=wrap;" parent="1" vertex="1">
          <mxGeometry x="35" y="10" width="100" height="30" as="geometry" />
        </mxCell>
        <mxCell id="59x0NakWkKw2bXJzxHpd-5" style="edgeStyle=orthogonalEdgeStyle;rounded=0;orthogonalLoop=1;jettySize=auto;html=1;exitX=0.5;exitY=1;exitDx=0;exitDy=0;entryX=0.5;entryY=0;entryDx=0;entryDy=0;" parent="1" source="59x0NakWkKw2bXJzxHpd-3" target="nFygnNmt6pVxSbs5YQoz-1" edge="1">
          <mxGeometry relative="1" as="geometry" />
        </mxCell>
        <mxCell id="59x0NakWkKw2bXJzxHpd-3" value="i = 0" style="rounded=0;whiteSpace=wrap;html=1;" parent="1" vertex="1">
          <mxGeometry x="35" y="250" width="100" height="30" as="geometry" />
        </mxCell>
        <mxCell id="59x0NakWkKw2bXJzxHpd-7" style="edgeStyle=orthogonalEdgeStyle;rounded=0;orthogonalLoop=1;jettySize=auto;html=1;exitX=0.5;exitY=1;exitDx=0;exitDy=0;entryX=0.5;entryY=0;entryDx=0;entryDy=0;" parent="1" source="59x0NakWkKw2bXJzxHpd-6" target="6Z2yoDibT2zR3657qM91-5" edge="1">
          <mxGeometry relative="1" as="geometry" />
        </mxCell>
        <mxCell id="59x0NakWkKw2bXJzxHpd-6" value="a.append(t)" style="shape=process;whiteSpace=wrap;html=1;backgroundOutline=1;strokeWidth=1;" parent="1" vertex="1">
          <mxGeometry x="35" y="570" width="100" height="30" as="geometry" />
        </mxCell>
        <mxCell id="59x0NakWkKw2bXJzxHpd-25" style="edgeStyle=orthogonalEdgeStyle;rounded=0;orthogonalLoop=1;jettySize=auto;html=1;exitX=0.5;exitY=1;exitDx=0;exitDy=0;entryX=0.5;entryY=0;entryDx=0;entryDy=0;" parent="1" source="59x0NakWkKw2bXJzxHpd-8" target="59x0NakWkKw2bXJzxHpd-24" edge="1">
          <mxGeometry relative="1" as="geometry" />
        </mxCell>
        <mxCell id="59x0NakWkKw2bXJzxHpd-8" value="a.append(t)" style="shape=process;whiteSpace=wrap;html=1;backgroundOutline=1;strokeWidth=1;" parent="1" vertex="1">
          <mxGeometry x="35" y="690" width="100" height="30" as="geometry" />
        </mxCell>
        <mxCell id="59x0NakWkKw2bXJzxHpd-13" style="edgeStyle=orthogonalEdgeStyle;rounded=0;orthogonalLoop=1;jettySize=auto;html=1;exitX=0.5;exitY=1;exitDx=0;exitDy=0;entryX=0.5;entryY=0;entryDx=0;entryDy=0;" parent="1" source="59x0NakWkKw2bXJzxHpd-11" target="6Z2yoDibT2zR3657qM91-11" edge="1">
          <mxGeometry relative="1" as="geometry" />
        </mxCell>
        <mxCell id="59x0NakWkKw2bXJzxHpd-11" value="i = 0" style="rounded=0;whiteSpace=wrap;html=1;" parent="1" vertex="1">
          <mxGeometry x="276.5" y="130" width="100" height="30" as="geometry" />
        </mxCell>
        <mxCell id="59x0NakWkKw2bXJzxHpd-17" style="edgeStyle=orthogonalEdgeStyle;rounded=0;orthogonalLoop=1;jettySize=auto;html=1;exitX=0.5;exitY=1;exitDx=0;exitDy=0;entryX=0.5;entryY=0;entryDx=0;entryDy=0;" parent="1" source="59x0NakWkKw2bXJzxHpd-14" target="59x0NakWkKw2bXJzxHpd-16" edge="1">
          <mxGeometry relative="1" as="geometry" />
        </mxCell>
        <mxCell id="59x0NakWkKw2bXJzxHpd-14" value="a.append(t)" style="shape=process;whiteSpace=wrap;html=1;backgroundOutline=1;strokeWidth=1;" parent="1" vertex="1">
          <mxGeometry x="276.5" y="330" width="100" height="30" as="geometry" />
        </mxCell>
        <mxCell id="59x0NakWkKw2bXJzxHpd-18" style="edgeStyle=orthogonalEdgeStyle;rounded=0;orthogonalLoop=1;jettySize=auto;html=1;exitX=0.5;exitY=1;exitDx=0;exitDy=0;entryX=0.5;entryY=1;entryDx=0;entryDy=0;" parent="1" source="59x0NakWkKw2bXJzxHpd-16" target="YttYdS2UohtOKdNyW_uJ-11" edge="1">
          <mxGeometry relative="1" as="geometry" />
        </mxCell>
        <mxCell id="59x0NakWkKw2bXJzxHpd-16" value="i = i + 1" style="rounded=0;whiteSpace=wrap;html=1;" parent="1" vertex="1">
          <mxGeometry x="276.5" y="390" width="100" height="30" as="geometry" />
        </mxCell>
        <mxCell id="59x0NakWkKw2bXJzxHpd-20" style="edgeStyle=orthogonalEdgeStyle;rounded=0;orthogonalLoop=1;jettySize=auto;html=1;exitX=0.5;exitY=1;exitDx=0;exitDy=0;entryX=0.5;entryY=0;entryDx=0;entryDy=0;" parent="1" source="59x0NakWkKw2bXJzxHpd-19" target="X3_6Q-RAgz8T4vvDJt0V-5" edge="1">
          <mxGeometry relative="1" as="geometry" />
        </mxCell>
        <mxCell id="59x0NakWkKw2bXJzxHpd-19" value="a.sort()" style="shape=process;whiteSpace=wrap;html=1;backgroundOutline=1;strokeWidth=1;" parent="1" vertex="1">
          <mxGeometry x="277.5" y="530" width="100" height="30" as="geometry" />
        </mxCell>
        <mxCell id="59x0NakWkKw2bXJzxHpd-23" style="edgeStyle=orthogonalEdgeStyle;rounded=0;orthogonalLoop=1;jettySize=auto;html=1;exitX=0.5;exitY=1;exitDx=0;exitDy=0;entryX=0.5;entryY=0;entryDx=0;entryDy=0;" parent="1" source="59x0NakWkKw2bXJzxHpd-21" target="X3_6Q-RAgz8T4vvDJt0V-1" edge="1">
          <mxGeometry relative="1" as="geometry" />
        </mxCell>
        <mxCell id="59x0NakWkKw2bXJzxHpd-21" value="i = 0" style="rounded=0;whiteSpace=wrap;html=1;" parent="1" vertex="1">
          <mxGeometry x="505" y="190" width="100" height="30" as="geometry" />
        </mxCell>
        <mxCell id="59x0NakWkKw2bXJzxHpd-26" style="edgeStyle=orthogonalEdgeStyle;rounded=0;orthogonalLoop=1;jettySize=auto;html=1;exitX=0.5;exitY=1;exitDx=0;exitDy=0;entryX=0.5;entryY=1;entryDx=0;entryDy=0;" parent="1" source="59x0NakWkKw2bXJzxHpd-24" target="nFygnNmt6pVxSbs5YQoz-3" edge="1">
          <mxGeometry relative="1" as="geometry" />
        </mxCell>
        <mxCell id="59x0NakWkKw2bXJzxHpd-24" value="i = i + 1" style="rounded=0;whiteSpace=wrap;html=1;" parent="1" vertex="1">
          <mxGeometry x="35" y="750" width="100" height="30" as="geometry" />
        </mxCell>
        <mxCell id="59x0NakWkKw2bXJzxHpd-36" style="edgeStyle=orthogonalEdgeStyle;rounded=0;orthogonalLoop=1;jettySize=auto;html=1;exitX=0.5;exitY=1;exitDx=0;exitDy=0;entryX=0.5;entryY=1;entryDx=0;entryDy=0;strokeWidth=1;endArrow=classic;endFill=1;" parent="1" source="59x0NakWkKw2bXJzxHpd-30" target="X3_6Q-RAgz8T4vvDJt0V-3" edge="1">
          <mxGeometry relative="1" as="geometry" />
        </mxCell>
        <mxCell id="59x0NakWkKw2bXJzxHpd-30" value="i = i + 1" style="rounded=0;whiteSpace=wrap;html=1;" parent="1" vertex="1">
          <mxGeometry x="505" y="610" width="100" height="30" as="geometry" />
        </mxCell>
        <mxCell id="59x0NakWkKw2bXJzxHpd-37" value="Конец" style="strokeWidth=1;html=1;shape=mxgraph.flowchart.terminator;whiteSpace=wrap;" parent="1" vertex="1">
          <mxGeometry x="505" y="830" width="100" height="30" as="geometry" />
        </mxCell>
      </root>
    </mxGraphModel>
  </diagram>
  <diagram id="oq0E1hbwWM9tH4WwYxfW" name="6.8.1">
    <mxGraphModel dx="796" dy="790" grid="1" gridSize="10" guides="1" tooltips="1" connect="1" arrows="1" fold="1" page="1" pageScale="1" pageWidth="827" pageHeight="1169" math="0" shadow="0">
      <root>
        <mxCell id="0" />
        <mxCell id="1" parent="0" />
        <mxCell id="2LpSh6T1gXhoMXP9YWHT-3" style="edgeStyle=orthogonalEdgeStyle;rounded=0;jumpSize=0;orthogonalLoop=1;jettySize=auto;html=1;exitX=0.5;exitY=1;exitDx=0;exitDy=0;entryX=0.5;entryY=0;entryDx=0;entryDy=0;strokeColor=default;strokeWidth=1;endArrow=classic;endFill=1;startSize=6;endSize=6;" parent="1" target="2LpSh6T1gXhoMXP9YWHT-1" edge="1">
          <mxGeometry relative="1" as="geometry">
            <mxPoint x="85" y="40" as="sourcePoint" />
          </mxGeometry>
        </mxCell>
        <mxCell id="2LpSh6T1gXhoMXP9YWHT-4" style="edgeStyle=orthogonalEdgeStyle;rounded=0;jumpSize=0;orthogonalLoop=1;jettySize=auto;html=1;exitX=0.5;exitY=1;exitDx=0;exitDy=0;entryX=0.5;entryY=0;entryDx=0;entryDy=0;strokeColor=default;strokeWidth=1;endArrow=classic;endFill=1;startSize=6;endSize=6;" parent="1" source="2LpSh6T1gXhoMXP9YWHT-1" target="2LpSh6T1gXhoMXP9YWHT-2" edge="1">
          <mxGeometry relative="1" as="geometry" />
        </mxCell>
        <mxCell id="2LpSh6T1gXhoMXP9YWHT-1" value="Ввод n" style="shape=parallelogram;perimeter=parallelogramPerimeter;whiteSpace=wrap;html=1;fixedSize=1;" parent="1" vertex="1">
          <mxGeometry x="35" y="70" width="100" height="30" as="geometry" />
        </mxCell>
        <mxCell id="nzBADyvjEERoRMGMABi5-3" style="edgeStyle=orthogonalEdgeStyle;rounded=0;jumpSize=0;orthogonalLoop=1;jettySize=auto;html=1;exitX=0.5;exitY=1;exitDx=0;exitDy=0;entryX=0.5;entryY=0;entryDx=0;entryDy=0;strokeColor=default;strokeWidth=1;endArrow=classic;endFill=1;startSize=6;endSize=6;" parent="1" source="2LpSh6T1gXhoMXP9YWHT-2" edge="1">
          <mxGeometry relative="1" as="geometry">
            <mxPoint x="85" y="190" as="targetPoint" />
          </mxGeometry>
        </mxCell>
        <mxCell id="2LpSh6T1gXhoMXP9YWHT-2" value="Ввод s" style="shape=parallelogram;perimeter=parallelogramPerimeter;whiteSpace=wrap;html=1;fixedSize=1;" parent="1" vertex="1">
          <mxGeometry x="35" y="130" width="100" height="30" as="geometry" />
        </mxCell>
        <mxCell id="nzBADyvjEERoRMGMABi5-4" style="edgeStyle=orthogonalEdgeStyle;rounded=0;jumpSize=0;orthogonalLoop=1;jettySize=auto;html=1;exitX=0.5;exitY=1;exitDx=0;exitDy=0;entryX=0.5;entryY=0;entryDx=0;entryDy=0;strokeColor=default;strokeWidth=1;endArrow=classic;endFill=1;startSize=6;endSize=6;" parent="1" target="nzBADyvjEERoRMGMABi5-2" edge="1">
          <mxGeometry relative="1" as="geometry">
            <mxPoint x="85" y="220" as="sourcePoint" />
          </mxGeometry>
        </mxCell>
        <mxCell id="nzBADyvjEERoRMGMABi5-6" style="edgeStyle=orthogonalEdgeStyle;rounded=0;jumpSize=0;orthogonalLoop=1;jettySize=auto;html=1;exitX=0.5;exitY=1;exitDx=0;exitDy=0;entryX=0.5;entryY=0;entryDx=0;entryDy=0;strokeColor=default;strokeWidth=1;endArrow=classic;endFill=1;startSize=6;endSize=6;" parent="1" target="nzBADyvjEERoRMGMABi5-5" edge="1">
          <mxGeometry relative="1" as="geometry">
            <mxPoint x="85" y="280" as="sourcePoint" />
          </mxGeometry>
        </mxCell>
        <mxCell id="nzBADyvjEERoRMGMABi5-8" style="edgeStyle=orthogonalEdgeStyle;rounded=0;jumpSize=0;orthogonalLoop=1;jettySize=auto;html=1;exitX=0.5;exitY=1;exitDx=0;exitDy=0;entryX=0.5;entryY=0;entryDx=0;entryDy=0;strokeColor=default;strokeWidth=1;endArrow=classic;endFill=1;startSize=6;endSize=6;" parent="1" source="nzBADyvjEERoRMGMABi5-5" target="nzBADyvjEERoRMGMABi5-7" edge="1">
          <mxGeometry relative="1" as="geometry" />
        </mxCell>
        <mxCell id="nzBADyvjEERoRMGMABi5-5" value="k = mx - mn + 1" style="rounded=0;whiteSpace=wrap;html=1;" parent="1" vertex="1">
          <mxGeometry x="35" y="310" width="100" height="30" as="geometry" />
        </mxCell>
        <mxCell id="iSR3rJpi__Rk1C2XHJ1L-4" style="edgeStyle=orthogonalEdgeStyle;rounded=0;orthogonalLoop=1;jettySize=auto;html=1;exitX=0.5;exitY=1;exitDx=0;exitDy=0;entryX=0.5;entryY=0;entryDx=0;entryDy=0;strokeWidth=1;endArrow=classic;endFill=1;" parent="1" source="nzBADyvjEERoRMGMABi5-7" target="iSR3rJpi__Rk1C2XHJ1L-3" edge="1">
          <mxGeometry relative="1" as="geometry" />
        </mxCell>
        <mxCell id="nzBADyvjEERoRMGMABi5-7" value="count = [0] * k" style="rounded=0;whiteSpace=wrap;html=1;" parent="1" vertex="1">
          <mxGeometry x="35" y="370" width="100" height="30" as="geometry" />
        </mxCell>
        <mxCell id="8gRaFkJQGqAm5d2T34zf-2" style="edgeStyle=orthogonalEdgeStyle;rounded=0;jumpSize=0;orthogonalLoop=1;jettySize=auto;html=1;exitX=0.5;exitY=1;exitDx=0;exitDy=0;entryX=0.5;entryY=0;entryDx=0;entryDy=0;strokeColor=default;strokeWidth=1;endArrow=classic;endFill=1;startSize=6;endSize=6;" parent="1" source="GmNOamXwX8a5X12boZ28-1" target="8gRaFkJQGqAm5d2T34zf-1" edge="1">
          <mxGeometry relative="1" as="geometry" />
        </mxCell>
        <mxCell id="GmNOamXwX8a5X12boZ28-1" value="&lt;div&gt;Цикл 1&lt;/div&gt;i &amp;lt; len(s)" style="shape=loopLimit;whiteSpace=wrap;html=1;" parent="1" vertex="1">
          <mxGeometry x="35" y="490" width="100" height="50" as="geometry" />
        </mxCell>
        <mxCell id="GmNOamXwX8a5X12boZ28-2" value="" style="group" parent="1" vertex="1" connectable="0">
          <mxGeometry x="265" y="730" width="100" height="50" as="geometry" />
        </mxCell>
        <mxCell id="GmNOamXwX8a5X12boZ28-3" value="" style="shape=loopLimit;whiteSpace=wrap;html=1;rotation=-180;" parent="GmNOamXwX8a5X12boZ28-2" vertex="1">
          <mxGeometry width="100" height="50" as="geometry" />
        </mxCell>
        <mxCell id="GmNOamXwX8a5X12boZ28-4" value="Конец цикла 2" style="text;html=1;strokeColor=none;fillColor=none;align=center;verticalAlign=middle;whiteSpace=wrap;rounded=0;" parent="GmNOamXwX8a5X12boZ28-2" vertex="1">
          <mxGeometry x="16.666666666666668" y="6.25" width="66.66666666666667" height="37.5" as="geometry" />
        </mxCell>
        <mxCell id="iSR3rJpi__Rk1C2XHJ1L-7" style="edgeStyle=orthogonalEdgeStyle;rounded=0;orthogonalLoop=1;jettySize=auto;html=1;exitX=0.5;exitY=1;exitDx=0;exitDy=0;entryX=0.5;entryY=0;entryDx=0;entryDy=0;strokeWidth=1;endArrow=classic;endFill=1;" parent="1" source="8gRaFkJQGqAm5d2T34zf-1" target="iSR3rJpi__Rk1C2XHJ1L-6" edge="1">
          <mxGeometry relative="1" as="geometry" />
        </mxCell>
        <mxCell id="8gRaFkJQGqAm5d2T34zf-1" value="count[s[i] - mn] += 1" style="rounded=0;whiteSpace=wrap;html=1;" parent="1" vertex="1">
          <mxGeometry x="10" y="570" width="150" height="30" as="geometry" />
        </mxCell>
        <mxCell id="vsOCsIeJCasD_pSDYaiu-1" value="" style="group" parent="1" vertex="1" connectable="0">
          <mxGeometry x="35" y="690" width="100" height="50" as="geometry" />
        </mxCell>
        <mxCell id="vsOCsIeJCasD_pSDYaiu-2" value="" style="shape=loopLimit;whiteSpace=wrap;html=1;rotation=-180;" parent="vsOCsIeJCasD_pSDYaiu-1" vertex="1">
          <mxGeometry width="100" height="50" as="geometry" />
        </mxCell>
        <mxCell id="vsOCsIeJCasD_pSDYaiu-3" value="Конец цикла 1" style="text;html=1;strokeColor=none;fillColor=none;align=center;verticalAlign=middle;whiteSpace=wrap;rounded=0;" parent="vsOCsIeJCasD_pSDYaiu-1" vertex="1">
          <mxGeometry x="16.666666666666668" y="6.25" width="66.66666666666667" height="37.5" as="geometry" />
        </mxCell>
        <mxCell id="iSR3rJpi__Rk1C2XHJ1L-23" style="edgeStyle=orthogonalEdgeStyle;rounded=0;orthogonalLoop=1;jettySize=auto;html=1;exitX=0.5;exitY=1;exitDx=0;exitDy=0;entryX=0.5;entryY=0;entryDx=0;entryDy=0;strokeWidth=1;endArrow=classic;endFill=1;" parent="1" source="vsOCsIeJCasD_pSDYaiu-6" target="iSR3rJpi__Rk1C2XHJ1L-16" edge="1">
          <mxGeometry relative="1" as="geometry" />
        </mxCell>
        <mxCell id="vsOCsIeJCasD_pSDYaiu-6" value="&lt;div&gt;Цикл 2&lt;br&gt;&lt;/div&gt;j &amp;lt; k" style="shape=loopLimit;whiteSpace=wrap;html=1;" parent="1" vertex="1">
          <mxGeometry x="265" y="190" width="100" height="50" as="geometry" />
        </mxCell>
        <mxCell id="iSR3rJpi__Rk1C2XHJ1L-19" style="edgeStyle=orthogonalEdgeStyle;rounded=0;orthogonalLoop=1;jettySize=auto;html=1;exitX=0.5;exitY=1;exitDx=0;exitDy=0;entryX=0.5;entryY=0;entryDx=0;entryDy=0;strokeWidth=1;endArrow=classic;endFill=1;" parent="1" source="vsOCsIeJCasD_pSDYaiu-9" target="vsOCsIeJCasD_pSDYaiu-14" edge="1">
          <mxGeometry relative="1" as="geometry" />
        </mxCell>
        <mxCell id="vsOCsIeJCasD_pSDYaiu-9" value="&lt;div&gt;Цикл 3&lt;br&gt;&lt;/div&gt;t &amp;lt; count[j]" style="shape=loopLimit;whiteSpace=wrap;html=1;" parent="1" vertex="1">
          <mxGeometry x="265" y="330" width="100" height="50" as="geometry" />
        </mxCell>
        <mxCell id="vsOCsIeJCasD_pSDYaiu-10" value="" style="group" parent="1" vertex="1" connectable="0">
          <mxGeometry x="265" y="590" width="100" height="50" as="geometry" />
        </mxCell>
        <mxCell id="vsOCsIeJCasD_pSDYaiu-11" value="" style="shape=loopLimit;whiteSpace=wrap;html=1;rotation=-180;" parent="vsOCsIeJCasD_pSDYaiu-10" vertex="1">
          <mxGeometry width="100" height="50" as="geometry" />
        </mxCell>
        <mxCell id="vsOCsIeJCasD_pSDYaiu-12" value="Конец цикла 3" style="text;html=1;strokeColor=none;fillColor=none;align=center;verticalAlign=middle;whiteSpace=wrap;rounded=0;" parent="vsOCsIeJCasD_pSDYaiu-10" vertex="1">
          <mxGeometry x="16.666666666666668" y="6.25" width="66.66666666666667" height="37.5" as="geometry" />
        </mxCell>
        <mxCell id="iSR3rJpi__Rk1C2XHJ1L-25" style="edgeStyle=orthogonalEdgeStyle;rounded=0;orthogonalLoop=1;jettySize=auto;html=1;exitX=0.5;exitY=1;exitDx=0;exitDy=0;entryX=0.5;entryY=0;entryDx=0;entryDy=0;strokeWidth=1;endArrow=classic;endFill=1;" parent="1" source="vsOCsIeJCasD_pSDYaiu-14" target="vsOCsIeJCasD_pSDYaiu-16" edge="1">
          <mxGeometry relative="1" as="geometry" />
        </mxCell>
        <mxCell id="vsOCsIeJCasD_pSDYaiu-14" value="s[i] = j + mn" style="rounded=0;whiteSpace=wrap;html=1;" parent="1" vertex="1">
          <mxGeometry x="265" y="410" width="100" height="30" as="geometry" />
        </mxCell>
        <mxCell id="iSR3rJpi__Rk1C2XHJ1L-26" style="edgeStyle=orthogonalEdgeStyle;rounded=0;orthogonalLoop=1;jettySize=auto;html=1;exitX=0.5;exitY=1;exitDx=0;exitDy=0;entryX=0.5;entryY=0;entryDx=0;entryDy=0;strokeWidth=1;endArrow=classic;endFill=1;" parent="1" source="vsOCsIeJCasD_pSDYaiu-16" target="iSR3rJpi__Rk1C2XHJ1L-17" edge="1">
          <mxGeometry relative="1" as="geometry" />
        </mxCell>
        <mxCell id="vsOCsIeJCasD_pSDYaiu-16" value="i = i + 1" style="rounded=0;whiteSpace=wrap;html=1;" parent="1" vertex="1">
          <mxGeometry x="265" y="470" width="100" height="30" as="geometry" />
        </mxCell>
        <mxCell id="iSR3rJpi__Rk1C2XHJ1L-32" style="edgeStyle=orthogonalEdgeStyle;rounded=0;orthogonalLoop=1;jettySize=auto;html=1;exitX=0.5;exitY=1;exitDx=0;exitDy=0;entryX=0.5;entryY=0;entryDx=0;entryDy=0;entryPerimeter=0;strokeWidth=1;endArrow=classic;endFill=1;" parent="1" source="rkNjhe0Sn3qW1tV3l7eA-1" target="iSR3rJpi__Rk1C2XHJ1L-2" edge="1">
          <mxGeometry relative="1" as="geometry" />
        </mxCell>
        <mxCell id="rkNjhe0Sn3qW1tV3l7eA-1" value="&lt;div&gt;Вывести&lt;/div&gt;&lt;div&gt;все элементы&lt;/div&gt;&lt;div&gt;массива s&lt;br&gt;&lt;/div&gt;" style="shape=parallelogram;perimeter=parallelogramPerimeter;whiteSpace=wrap;html=1;fixedSize=1;" parent="1" vertex="1">
          <mxGeometry x="240" y="810" width="150" height="50" as="geometry" />
        </mxCell>
        <mxCell id="x514oS6ThzibHOpzB5L3-1" value="1" style="ellipse;whiteSpace=wrap;html=1;aspect=fixed;" parent="1" vertex="1">
          <mxGeometry x="70" y="770" width="30" height="30" as="geometry" />
        </mxCell>
        <mxCell id="x514oS6ThzibHOpzB5L3-2" style="edgeStyle=orthogonalEdgeStyle;rounded=0;jumpSize=0;orthogonalLoop=1;jettySize=auto;html=1;exitX=0.5;exitY=0;exitDx=0;exitDy=0;entryX=0.5;entryY=0;entryDx=0;entryDy=0;strokeColor=default;strokeWidth=1;endArrow=classic;endFill=1;startSize=6;endSize=6;" parent="1" source="vsOCsIeJCasD_pSDYaiu-2" target="x514oS6ThzibHOpzB5L3-1" edge="1">
          <mxGeometry relative="1" as="geometry" />
        </mxCell>
        <mxCell id="x514oS6ThzibHOpzB5L3-4" style="edgeStyle=orthogonalEdgeStyle;rounded=0;jumpSize=0;orthogonalLoop=1;jettySize=auto;html=1;exitX=0.5;exitY=1;exitDx=0;exitDy=0;entryX=0.5;entryY=0;entryDx=0;entryDy=0;strokeColor=default;strokeWidth=1;endArrow=classic;endFill=1;startSize=6;endSize=6;" parent="1" source="x514oS6ThzibHOpzB5L3-3" edge="1">
          <mxGeometry relative="1" as="geometry">
            <mxPoint x="315" y="70" as="targetPoint" />
          </mxGeometry>
        </mxCell>
        <mxCell id="x514oS6ThzibHOpzB5L3-3" value="1" style="ellipse;whiteSpace=wrap;html=1;aspect=fixed;" parent="1" vertex="1">
          <mxGeometry x="300" y="10" width="30" height="30" as="geometry" />
        </mxCell>
        <mxCell id="iSR3rJpi__Rk1C2XHJ1L-1" value="Начало" style="strokeWidth=1;html=1;shape=mxgraph.flowchart.terminator;whiteSpace=wrap;" parent="1" vertex="1">
          <mxGeometry x="35" y="10" width="100" height="30" as="geometry" />
        </mxCell>
        <mxCell id="iSR3rJpi__Rk1C2XHJ1L-2" value="Конец" style="strokeWidth=1;html=1;shape=mxgraph.flowchart.terminator;whiteSpace=wrap;" parent="1" vertex="1">
          <mxGeometry x="265" y="890" width="100" height="30" as="geometry" />
        </mxCell>
        <mxCell id="iSR3rJpi__Rk1C2XHJ1L-5" style="edgeStyle=orthogonalEdgeStyle;rounded=0;orthogonalLoop=1;jettySize=auto;html=1;exitX=0.5;exitY=1;exitDx=0;exitDy=0;entryX=0.5;entryY=0;entryDx=0;entryDy=0;strokeWidth=1;endArrow=classic;endFill=1;" parent="1" source="iSR3rJpi__Rk1C2XHJ1L-3" target="GmNOamXwX8a5X12boZ28-1" edge="1">
          <mxGeometry relative="1" as="geometry" />
        </mxCell>
        <mxCell id="iSR3rJpi__Rk1C2XHJ1L-3" value="i = 0" style="rounded=0;whiteSpace=wrap;html=1;" parent="1" vertex="1">
          <mxGeometry x="35" y="430" width="100" height="30" as="geometry" />
        </mxCell>
        <mxCell id="iSR3rJpi__Rk1C2XHJ1L-8" style="edgeStyle=orthogonalEdgeStyle;rounded=0;orthogonalLoop=1;jettySize=auto;html=1;exitX=0.5;exitY=1;exitDx=0;exitDy=0;entryX=0.5;entryY=1;entryDx=0;entryDy=0;strokeWidth=1;endArrow=classic;endFill=1;" parent="1" source="iSR3rJpi__Rk1C2XHJ1L-6" target="vsOCsIeJCasD_pSDYaiu-2" edge="1">
          <mxGeometry relative="1" as="geometry" />
        </mxCell>
        <mxCell id="iSR3rJpi__Rk1C2XHJ1L-6" value="i = i + 1" style="rounded=0;whiteSpace=wrap;html=1;" parent="1" vertex="1">
          <mxGeometry x="35" y="630" width="100" height="30" as="geometry" />
        </mxCell>
        <mxCell id="iSR3rJpi__Rk1C2XHJ1L-11" style="edgeStyle=orthogonalEdgeStyle;rounded=0;orthogonalLoop=1;jettySize=auto;html=1;exitX=0.5;exitY=1;exitDx=0;exitDy=0;entryX=0.5;entryY=0;entryDx=0;entryDy=0;strokeWidth=1;endArrow=classic;endFill=1;" parent="1" source="iSR3rJpi__Rk1C2XHJ1L-9" target="vsOCsIeJCasD_pSDYaiu-6" edge="1">
          <mxGeometry relative="1" as="geometry" />
        </mxCell>
        <mxCell id="iSR3rJpi__Rk1C2XHJ1L-9" value="j = 0" style="rounded=0;whiteSpace=wrap;html=1;" parent="1" vertex="1">
          <mxGeometry x="265" y="130" width="100" height="30" as="geometry" />
        </mxCell>
        <mxCell id="iSR3rJpi__Rk1C2XHJ1L-30" style="edgeStyle=orthogonalEdgeStyle;rounded=0;orthogonalLoop=1;jettySize=auto;html=1;exitX=0.5;exitY=1;exitDx=0;exitDy=0;entryX=0.5;entryY=1;entryDx=0;entryDy=0;strokeWidth=1;endArrow=classic;endFill=1;" parent="1" source="iSR3rJpi__Rk1C2XHJ1L-12" target="GmNOamXwX8a5X12boZ28-3" edge="1">
          <mxGeometry relative="1" as="geometry" />
        </mxCell>
        <mxCell id="iSR3rJpi__Rk1C2XHJ1L-12" value="j = j + 1" style="rounded=0;whiteSpace=wrap;html=1;" parent="1" vertex="1">
          <mxGeometry x="265" y="670" width="100" height="30" as="geometry" />
        </mxCell>
        <mxCell id="iSR3rJpi__Rk1C2XHJ1L-15" style="edgeStyle=orthogonalEdgeStyle;rounded=0;orthogonalLoop=1;jettySize=auto;html=1;exitX=0.5;exitY=1;exitDx=0;exitDy=0;entryX=0.5;entryY=0;entryDx=0;entryDy=0;strokeWidth=1;endArrow=classic;endFill=1;" parent="1" source="iSR3rJpi__Rk1C2XHJ1L-14" target="iSR3rJpi__Rk1C2XHJ1L-9" edge="1">
          <mxGeometry relative="1" as="geometry" />
        </mxCell>
        <mxCell id="iSR3rJpi__Rk1C2XHJ1L-14" value="i = 0" style="rounded=0;whiteSpace=wrap;html=1;" parent="1" vertex="1">
          <mxGeometry x="265" y="70" width="100" height="30" as="geometry" />
        </mxCell>
        <mxCell id="iSR3rJpi__Rk1C2XHJ1L-22" style="edgeStyle=orthogonalEdgeStyle;rounded=0;orthogonalLoop=1;jettySize=auto;html=1;exitX=0.5;exitY=1;exitDx=0;exitDy=0;entryX=0.5;entryY=0;entryDx=0;entryDy=0;strokeWidth=1;endArrow=classic;endFill=1;" parent="1" source="iSR3rJpi__Rk1C2XHJ1L-16" target="vsOCsIeJCasD_pSDYaiu-9" edge="1">
          <mxGeometry relative="1" as="geometry" />
        </mxCell>
        <mxCell id="iSR3rJpi__Rk1C2XHJ1L-16" value="t = 0" style="rounded=0;whiteSpace=wrap;html=1;" parent="1" vertex="1">
          <mxGeometry x="265" y="270" width="100" height="30" as="geometry" />
        </mxCell>
        <mxCell id="iSR3rJpi__Rk1C2XHJ1L-21" style="edgeStyle=orthogonalEdgeStyle;rounded=0;orthogonalLoop=1;jettySize=auto;html=1;exitX=0.5;exitY=1;exitDx=0;exitDy=0;entryX=0.5;entryY=1;entryDx=0;entryDy=0;strokeWidth=1;endArrow=classic;endFill=1;" parent="1" source="iSR3rJpi__Rk1C2XHJ1L-17" target="vsOCsIeJCasD_pSDYaiu-11" edge="1">
          <mxGeometry relative="1" as="geometry" />
        </mxCell>
        <mxCell id="iSR3rJpi__Rk1C2XHJ1L-17" value="t&amp;nbsp; = t + 1" style="rounded=0;whiteSpace=wrap;html=1;" parent="1" vertex="1">
          <mxGeometry x="265" y="530" width="100" height="30" as="geometry" />
        </mxCell>
        <mxCell id="iSR3rJpi__Rk1C2XHJ1L-24" style="edgeStyle=orthogonalEdgeStyle;rounded=0;orthogonalLoop=1;jettySize=auto;html=1;exitX=0.5;exitY=0;exitDx=0;exitDy=0;entryX=0.5;entryY=0;entryDx=0;entryDy=0;strokeWidth=1;endArrow=classic;endFill=1;" parent="1" source="vsOCsIeJCasD_pSDYaiu-11" target="iSR3rJpi__Rk1C2XHJ1L-12" edge="1">
          <mxGeometry relative="1" as="geometry" />
        </mxCell>
        <mxCell id="iSR3rJpi__Rk1C2XHJ1L-31" style="edgeStyle=orthogonalEdgeStyle;rounded=0;orthogonalLoop=1;jettySize=auto;html=1;exitX=0.5;exitY=0;exitDx=0;exitDy=0;entryX=0.5;entryY=0;entryDx=0;entryDy=0;strokeWidth=1;endArrow=classic;endFill=1;" parent="1" source="GmNOamXwX8a5X12boZ28-3" target="rkNjhe0Sn3qW1tV3l7eA-1" edge="1">
          <mxGeometry relative="1" as="geometry" />
        </mxCell>
        <mxCell id="z2g-vcaqlMPPrR0EnkBR-3" style="edgeStyle=orthogonalEdgeStyle;rounded=0;orthogonalLoop=1;jettySize=auto;html=1;exitX=0.5;exitY=1;exitDx=0;exitDy=0;entryX=0.5;entryY=0;entryDx=0;entryDy=0;" edge="1" parent="1" source="z2g-vcaqlMPPrR0EnkBR-1" target="z2g-vcaqlMPPrR0EnkBR-2">
          <mxGeometry relative="1" as="geometry" />
        </mxCell>
        <mxCell id="z2g-vcaqlMPPrR0EnkBR-1" value="mn = min(s)" style="shape=process;whiteSpace=wrap;html=1;backgroundOutline=1;strokeWidth=1;" vertex="1" parent="1">
          <mxGeometry x="35" y="190" width="100" height="30" as="geometry" />
        </mxCell>
        <mxCell id="z2g-vcaqlMPPrR0EnkBR-2" value="mx = max(s)" style="shape=process;whiteSpace=wrap;html=1;backgroundOutline=1;strokeWidth=1;" vertex="1" parent="1">
          <mxGeometry x="35" y="250" width="100" height="30" as="geometry" />
        </mxCell>
      </root>
    </mxGraphModel>
  </diagram>
  <diagram id="mYaiqdPUAr1wTsgiM4__" name="8.3.1">
    <mxGraphModel dx="1434" dy="790" grid="1" gridSize="10" guides="1" tooltips="1" connect="1" arrows="1" fold="1" page="1" pageScale="1" pageWidth="827" pageHeight="1169" math="0" shadow="0">
      <root>
        <mxCell id="0" />
        <mxCell id="1" parent="0" />
        <mxCell id="gKDrddq1pPizG-jZtOPU-5" style="edgeStyle=orthogonalEdgeStyle;rounded=0;orthogonalLoop=1;jettySize=auto;html=1;exitX=0.5;exitY=1;exitDx=0;exitDy=0;exitPerimeter=0;entryX=0.5;entryY=0;entryDx=0;entryDy=0;" parent="1" source="GAnA5euc5OW0pMufs2rl-1" target="gKDrddq1pPizG-jZtOPU-1" edge="1">
          <mxGeometry relative="1" as="geometry" />
        </mxCell>
        <mxCell id="GAnA5euc5OW0pMufs2rl-1" value="Начало" style="strokeWidth=1;html=1;shape=mxgraph.flowchart.terminator;whiteSpace=wrap;" parent="1" vertex="1">
          <mxGeometry x="60" y="10" width="100" height="30" as="geometry" />
        </mxCell>
        <mxCell id="gKDrddq1pPizG-jZtOPU-6" style="edgeStyle=orthogonalEdgeStyle;rounded=0;orthogonalLoop=1;jettySize=auto;html=1;exitX=0.5;exitY=1;exitDx=0;exitDy=0;entryX=0.5;entryY=0;entryDx=0;entryDy=0;" parent="1" source="gKDrddq1pPizG-jZtOPU-1" target="gKDrddq1pPizG-jZtOPU-2" edge="1">
          <mxGeometry relative="1" as="geometry" />
        </mxCell>
        <mxCell id="gKDrddq1pPizG-jZtOPU-1" value="Ввод a" style="shape=parallelogram;perimeter=parallelogramPerimeter;whiteSpace=wrap;html=1;fixedSize=1;" parent="1" vertex="1">
          <mxGeometry x="60" y="70" width="100" height="30" as="geometry" />
        </mxCell>
        <mxCell id="gKDrddq1pPizG-jZtOPU-7" style="edgeStyle=orthogonalEdgeStyle;rounded=0;orthogonalLoop=1;jettySize=auto;html=1;exitX=0.5;exitY=1;exitDx=0;exitDy=0;entryX=0.5;entryY=0;entryDx=0;entryDy=0;" parent="1" source="gKDrddq1pPizG-jZtOPU-2" target="gKDrddq1pPizG-jZtOPU-3" edge="1">
          <mxGeometry relative="1" as="geometry" />
        </mxCell>
        <mxCell id="gKDrddq1pPizG-jZtOPU-2" value="Ввод b" style="shape=parallelogram;perimeter=parallelogramPerimeter;whiteSpace=wrap;html=1;fixedSize=1;" parent="1" vertex="1">
          <mxGeometry x="60" y="130" width="100" height="30" as="geometry" />
        </mxCell>
        <mxCell id="gKDrddq1pPizG-jZtOPU-8" style="edgeStyle=orthogonalEdgeStyle;rounded=0;orthogonalLoop=1;jettySize=auto;html=1;exitX=0.5;exitY=1;exitDx=0;exitDy=0;entryX=0.5;entryY=0;entryDx=0;entryDy=0;" parent="1" source="gKDrddq1pPizG-jZtOPU-3" target="gKDrddq1pPizG-jZtOPU-4" edge="1">
          <mxGeometry relative="1" as="geometry" />
        </mxCell>
        <mxCell id="gKDrddq1pPizG-jZtOPU-3" value="n = len(a)" style="shape=process;whiteSpace=wrap;html=1;backgroundOutline=1;strokeWidth=1;" parent="1" vertex="1">
          <mxGeometry x="60" y="190" width="100" height="30" as="geometry" />
        </mxCell>
        <mxCell id="hFWniswmaC6skhsBh9QU-2" style="edgeStyle=orthogonalEdgeStyle;rounded=0;orthogonalLoop=1;jettySize=auto;html=1;exitX=0.5;exitY=1;exitDx=0;exitDy=0;entryX=0.5;entryY=0;entryDx=0;entryDy=0;" parent="1" source="gKDrddq1pPizG-jZtOPU-4" target="hFWniswmaC6skhsBh9QU-1" edge="1">
          <mxGeometry relative="1" as="geometry" />
        </mxCell>
        <mxCell id="gKDrddq1pPizG-jZtOPU-4" value="m = len(b)" style="shape=process;whiteSpace=wrap;html=1;backgroundOutline=1;strokeWidth=1;" parent="1" vertex="1">
          <mxGeometry x="60" y="250" width="100" height="30" as="geometry" />
        </mxCell>
        <mxCell id="hFWniswmaC6skhsBh9QU-5" style="edgeStyle=orthogonalEdgeStyle;rounded=0;orthogonalLoop=1;jettySize=auto;html=1;exitX=1;exitY=0.5;exitDx=0;exitDy=0;entryX=0.5;entryY=0;entryDx=0;entryDy=0;" parent="1" source="hFWniswmaC6skhsBh9QU-1" target="hFWniswmaC6skhsBh9QU-3" edge="1">
          <mxGeometry relative="1" as="geometry" />
        </mxCell>
        <mxCell id="hFWniswmaC6skhsBh9QU-9" style="edgeStyle=orthogonalEdgeStyle;rounded=0;orthogonalLoop=1;jettySize=auto;html=1;exitX=0;exitY=0.5;exitDx=0;exitDy=0;entryX=0.5;entryY=0;entryDx=0;entryDy=0;" parent="1" source="hFWniswmaC6skhsBh9QU-1" target="hFWniswmaC6skhsBh9QU-6" edge="1">
          <mxGeometry relative="1" as="geometry">
            <Array as="points">
              <mxPoint x="10" y="325" />
              <mxPoint x="10" y="470" />
              <mxPoint x="110" y="470" />
            </Array>
          </mxGeometry>
        </mxCell>
        <mxCell id="hFWniswmaC6skhsBh9QU-1" value="n &amp;gt; m" style="rhombus;whiteSpace=wrap;html=1;" parent="1" vertex="1">
          <mxGeometry x="60" y="310" width="100" height="30" as="geometry" />
        </mxCell>
        <mxCell id="hFWniswmaC6skhsBh9QU-7" style="edgeStyle=orthogonalEdgeStyle;rounded=0;orthogonalLoop=1;jettySize=auto;html=1;exitX=0.5;exitY=1;exitDx=0;exitDy=0;entryX=0.5;entryY=0;entryDx=0;entryDy=0;" parent="1" source="hFWniswmaC6skhsBh9QU-3" target="hFWniswmaC6skhsBh9QU-4" edge="1">
          <mxGeometry relative="1" as="geometry" />
        </mxCell>
        <mxCell id="hFWniswmaC6skhsBh9QU-3" value="a, b = b, a" style="rounded=0;whiteSpace=wrap;html=1;" parent="1" vertex="1">
          <mxGeometry x="160" y="350" width="100" height="30" as="geometry" />
        </mxCell>
        <mxCell id="hFWniswmaC6skhsBh9QU-8" style="edgeStyle=orthogonalEdgeStyle;rounded=0;orthogonalLoop=1;jettySize=auto;html=1;exitX=0.5;exitY=1;exitDx=0;exitDy=0;entryX=0.5;entryY=0;entryDx=0;entryDy=0;" parent="1" source="hFWniswmaC6skhsBh9QU-4" target="hFWniswmaC6skhsBh9QU-6" edge="1">
          <mxGeometry relative="1" as="geometry" />
        </mxCell>
        <mxCell id="hFWniswmaC6skhsBh9QU-4" value="n, m = m, n" style="rounded=0;whiteSpace=wrap;html=1;" parent="1" vertex="1">
          <mxGeometry x="160" y="410" width="100" height="30" as="geometry" />
        </mxCell>
        <mxCell id="PsgvYexTjF3b-B7FwYHQ-2" style="edgeStyle=orthogonalEdgeStyle;rounded=0;orthogonalLoop=1;jettySize=auto;html=1;exitX=0.5;exitY=1;exitDx=0;exitDy=0;entryX=0.5;entryY=0;entryDx=0;entryDy=0;" parent="1" source="hFWniswmaC6skhsBh9QU-6" target="PsgvYexTjF3b-B7FwYHQ-1" edge="1">
          <mxGeometry relative="1" as="geometry" />
        </mxCell>
        <mxCell id="hFWniswmaC6skhsBh9QU-6" value="curr_row = range(n + 1)" style="shape=process;whiteSpace=wrap;html=1;backgroundOutline=1;strokeWidth=1;" parent="1" vertex="1">
          <mxGeometry x="10" y="500" width="200" height="30" as="geometry" />
        </mxCell>
        <mxCell id="hFWniswmaC6skhsBh9QU-10" value="Да" style="text;html=1;align=center;verticalAlign=middle;resizable=0;points=[];autosize=1;strokeColor=none;fillColor=none;" parent="1" vertex="1">
          <mxGeometry x="150" y="295" width="40" height="30" as="geometry" />
        </mxCell>
        <mxCell id="hFWniswmaC6skhsBh9QU-11" value="Нет" style="text;html=1;align=center;verticalAlign=middle;resizable=0;points=[];autosize=1;strokeColor=none;fillColor=none;" parent="1" vertex="1">
          <mxGeometry x="30" y="295" width="40" height="30" as="geometry" />
        </mxCell>
        <mxCell id="hFWniswmaC6skhsBh9QU-14" style="edgeStyle=orthogonalEdgeStyle;rounded=0;orthogonalLoop=1;jettySize=auto;html=1;exitX=0.5;exitY=1;exitDx=0;exitDy=0;entryX=0.5;entryY=0;entryDx=0;entryDy=0;" parent="1" source="hFWniswmaC6skhsBh9QU-12" target="hFWniswmaC6skhsBh9QU-13" edge="1">
          <mxGeometry relative="1" as="geometry" />
        </mxCell>
        <mxCell id="hFWniswmaC6skhsBh9QU-12" value="i = 1" style="rounded=0;whiteSpace=wrap;html=1;" parent="1" vertex="1">
          <mxGeometry x="400" y="70" width="100" height="30" as="geometry" />
        </mxCell>
        <mxCell id="hFWniswmaC6skhsBh9QU-21" style="edgeStyle=orthogonalEdgeStyle;rounded=0;orthogonalLoop=1;jettySize=auto;html=1;exitX=0.5;exitY=1;exitDx=0;exitDy=0;entryX=0.5;entryY=0;entryDx=0;entryDy=0;" parent="1" source="hFWniswmaC6skhsBh9QU-13" target="hFWniswmaC6skhsBh9QU-20" edge="1">
          <mxGeometry relative="1" as="geometry" />
        </mxCell>
        <mxCell id="hFWniswmaC6skhsBh9QU-13" value="&lt;div&gt;Цикл 1&lt;br&gt;&lt;/div&gt;i &amp;lt; m + 1" style="shape=loopLimit;whiteSpace=wrap;html=1;" parent="1" vertex="1">
          <mxGeometry x="400" y="130" width="100" height="50" as="geometry" />
        </mxCell>
        <mxCell id="hFWniswmaC6skhsBh9QU-15" value="" style="group" parent="1" vertex="1" connectable="0">
          <mxGeometry x="400" y="1000" width="100" height="50" as="geometry" />
        </mxCell>
        <mxCell id="hFWniswmaC6skhsBh9QU-16" value="" style="shape=loopLimit;whiteSpace=wrap;html=1;rotation=-180;" parent="hFWniswmaC6skhsBh9QU-15" vertex="1">
          <mxGeometry width="100" height="50" as="geometry" />
        </mxCell>
        <mxCell id="hFWniswmaC6skhsBh9QU-17" value="Конец цикла 1" style="text;html=1;strokeColor=none;fillColor=none;align=center;verticalAlign=middle;whiteSpace=wrap;rounded=0;" parent="hFWniswmaC6skhsBh9QU-15" vertex="1">
          <mxGeometry x="16.666666666666668" y="6.25" width="66.66666666666667" height="37.5" as="geometry" />
        </mxCell>
        <mxCell id="hFWniswmaC6skhsBh9QU-19" style="edgeStyle=orthogonalEdgeStyle;rounded=0;orthogonalLoop=1;jettySize=auto;html=1;exitX=0.5;exitY=1;exitDx=0;exitDy=0;entryX=0.5;entryY=1;entryDx=0;entryDy=0;" parent="1" source="hFWniswmaC6skhsBh9QU-18" target="hFWniswmaC6skhsBh9QU-16" edge="1">
          <mxGeometry relative="1" as="geometry" />
        </mxCell>
        <mxCell id="hFWniswmaC6skhsBh9QU-18" value="i = i + 1" style="rounded=0;whiteSpace=wrap;html=1;" parent="1" vertex="1">
          <mxGeometry x="400" y="940" width="100" height="30" as="geometry" />
        </mxCell>
        <mxCell id="hFWniswmaC6skhsBh9QU-30" style="edgeStyle=orthogonalEdgeStyle;rounded=0;orthogonalLoop=1;jettySize=auto;html=1;exitX=0.5;exitY=1;exitDx=0;exitDy=0;entryX=0.5;entryY=0;entryDx=0;entryDy=0;" parent="1" source="hFWniswmaC6skhsBh9QU-20" target="hFWniswmaC6skhsBh9QU-22" edge="1">
          <mxGeometry relative="1" as="geometry" />
        </mxCell>
        <mxCell id="hFWniswmaC6skhsBh9QU-20" value="prev_row, curr_row = curr_row, [i] + [0] * n" style="rounded=0;whiteSpace=wrap;html=1;" parent="1" vertex="1">
          <mxGeometry x="325" y="210" width="250" height="30" as="geometry" />
        </mxCell>
        <mxCell id="hFWniswmaC6skhsBh9QU-29" style="edgeStyle=orthogonalEdgeStyle;rounded=0;orthogonalLoop=1;jettySize=auto;html=1;exitX=0.5;exitY=1;exitDx=0;exitDy=0;entryX=0.5;entryY=0;entryDx=0;entryDy=0;" parent="1" source="hFWniswmaC6skhsBh9QU-22" target="hFWniswmaC6skhsBh9QU-23" edge="1">
          <mxGeometry relative="1" as="geometry" />
        </mxCell>
        <mxCell id="hFWniswmaC6skhsBh9QU-22" value="j = 1" style="rounded=0;whiteSpace=wrap;html=1;" parent="1" vertex="1">
          <mxGeometry x="400" y="270" width="100" height="30" as="geometry" />
        </mxCell>
        <mxCell id="hFWniswmaC6skhsBh9QU-34" style="edgeStyle=orthogonalEdgeStyle;rounded=0;orthogonalLoop=1;jettySize=auto;html=1;exitX=0.5;exitY=1;exitDx=0;exitDy=0;entryX=0.5;entryY=0;entryDx=0;entryDy=0;" parent="1" source="hFWniswmaC6skhsBh9QU-23" target="hFWniswmaC6skhsBh9QU-31" edge="1">
          <mxGeometry relative="1" as="geometry" />
        </mxCell>
        <mxCell id="hFWniswmaC6skhsBh9QU-23" value="&lt;div&gt;Цикл 2&lt;br&gt;&lt;/div&gt;j &amp;lt; n + 1" style="shape=loopLimit;whiteSpace=wrap;html=1;" parent="1" vertex="1">
          <mxGeometry x="400" y="330" width="100" height="50" as="geometry" />
        </mxCell>
        <mxCell id="hFWniswmaC6skhsBh9QU-24" value="" style="group" parent="1" vertex="1" connectable="0">
          <mxGeometry x="400" y="860" width="100" height="50" as="geometry" />
        </mxCell>
        <mxCell id="hFWniswmaC6skhsBh9QU-25" value="" style="shape=loopLimit;whiteSpace=wrap;html=1;rotation=-180;" parent="hFWniswmaC6skhsBh9QU-24" vertex="1">
          <mxGeometry width="100" height="50" as="geometry" />
        </mxCell>
        <mxCell id="hFWniswmaC6skhsBh9QU-26" value="Конец цикла 2" style="text;html=1;strokeColor=none;fillColor=none;align=center;verticalAlign=middle;whiteSpace=wrap;rounded=0;" parent="hFWniswmaC6skhsBh9QU-24" vertex="1">
          <mxGeometry x="16.666666666666668" y="6.25" width="66.66666666666667" height="37.5" as="geometry" />
        </mxCell>
        <mxCell id="hFWniswmaC6skhsBh9QU-27" style="edgeStyle=orthogonalEdgeStyle;rounded=0;orthogonalLoop=1;jettySize=auto;html=1;exitX=0.5;exitY=1;exitDx=0;exitDy=0;entryX=0.5;entryY=1;entryDx=0;entryDy=0;" parent="1" source="hFWniswmaC6skhsBh9QU-28" target="hFWniswmaC6skhsBh9QU-25" edge="1">
          <mxGeometry relative="1" as="geometry" />
        </mxCell>
        <mxCell id="hFWniswmaC6skhsBh9QU-28" value="j = j + 1" style="rounded=0;whiteSpace=wrap;html=1;" parent="1" vertex="1">
          <mxGeometry x="400" y="800" width="100" height="30" as="geometry" />
        </mxCell>
        <mxCell id="hFWniswmaC6skhsBh9QU-35" style="edgeStyle=orthogonalEdgeStyle;rounded=0;orthogonalLoop=1;jettySize=auto;html=1;exitX=0.5;exitY=1;exitDx=0;exitDy=0;entryX=0.5;entryY=0;entryDx=0;entryDy=0;" parent="1" source="hFWniswmaC6skhsBh9QU-31" target="hFWniswmaC6skhsBh9QU-32" edge="1">
          <mxGeometry relative="1" as="geometry" />
        </mxCell>
        <mxCell id="hFWniswmaC6skhsBh9QU-31" value="add = prev_row[j] + 1" style="rounded=0;whiteSpace=wrap;html=1;" parent="1" vertex="1">
          <mxGeometry x="375" y="410" width="150" height="30" as="geometry" />
        </mxCell>
        <mxCell id="hFWniswmaC6skhsBh9QU-36" style="edgeStyle=orthogonalEdgeStyle;rounded=0;orthogonalLoop=1;jettySize=auto;html=1;exitX=0.5;exitY=1;exitDx=0;exitDy=0;entryX=0.5;entryY=0;entryDx=0;entryDy=0;" parent="1" source="hFWniswmaC6skhsBh9QU-32" target="hFWniswmaC6skhsBh9QU-33" edge="1">
          <mxGeometry relative="1" as="geometry" />
        </mxCell>
        <mxCell id="hFWniswmaC6skhsBh9QU-32" value="delete = curr_row[j - 1] + 1" style="rounded=0;whiteSpace=wrap;html=1;" parent="1" vertex="1">
          <mxGeometry x="375" y="470" width="150" height="30" as="geometry" />
        </mxCell>
        <mxCell id="hFWniswmaC6skhsBh9QU-38" style="edgeStyle=orthogonalEdgeStyle;rounded=0;orthogonalLoop=1;jettySize=auto;html=1;exitX=0.5;exitY=1;exitDx=0;exitDy=0;entryX=0.5;entryY=0;entryDx=0;entryDy=0;" parent="1" source="hFWniswmaC6skhsBh9QU-33" target="hFWniswmaC6skhsBh9QU-37" edge="1">
          <mxGeometry relative="1" as="geometry" />
        </mxCell>
        <mxCell id="hFWniswmaC6skhsBh9QU-33" value="change = prev_row[j - 1]" style="rounded=0;whiteSpace=wrap;html=1;" parent="1" vertex="1">
          <mxGeometry x="375" y="530" width="150" height="30" as="geometry" />
        </mxCell>
        <mxCell id="hFWniswmaC6skhsBh9QU-40" style="edgeStyle=orthogonalEdgeStyle;rounded=0;orthogonalLoop=1;jettySize=auto;html=1;exitX=1;exitY=0.5;exitDx=0;exitDy=0;entryX=0.5;entryY=0;entryDx=0;entryDy=0;" parent="1" source="hFWniswmaC6skhsBh9QU-37" target="hFWniswmaC6skhsBh9QU-39" edge="1">
          <mxGeometry relative="1" as="geometry">
            <Array as="points">
              <mxPoint x="600" y="615" />
            </Array>
          </mxGeometry>
        </mxCell>
        <mxCell id="hFWniswmaC6skhsBh9QU-44" style="edgeStyle=orthogonalEdgeStyle;rounded=0;orthogonalLoop=1;jettySize=auto;html=1;exitX=0;exitY=0.5;exitDx=0;exitDy=0;entryX=0.5;entryY=0;entryDx=0;entryDy=0;" parent="1" edge="1">
          <mxGeometry relative="1" as="geometry">
            <mxPoint x="375" y="615" as="sourcePoint" />
            <mxPoint x="450" y="740" as="targetPoint" />
            <Array as="points">
              <mxPoint x="305" y="615" />
              <mxPoint x="305" y="710" />
              <mxPoint x="450" y="710" />
            </Array>
          </mxGeometry>
        </mxCell>
        <mxCell id="hFWniswmaC6skhsBh9QU-37" value="a[j - 1] != b[i - 1]" style="rhombus;whiteSpace=wrap;html=1;" parent="1" vertex="1">
          <mxGeometry x="375" y="590" width="150" height="50" as="geometry" />
        </mxCell>
        <mxCell id="hFWniswmaC6skhsBh9QU-43" style="edgeStyle=orthogonalEdgeStyle;rounded=0;orthogonalLoop=1;jettySize=auto;html=1;exitX=0.5;exitY=1;exitDx=0;exitDy=0;entryX=0.5;entryY=0;entryDx=0;entryDy=0;" parent="1" source="hFWniswmaC6skhsBh9QU-39" target="hFWniswmaC6skhsBh9QU-42" edge="1">
          <mxGeometry relative="1" as="geometry">
            <Array as="points">
              <mxPoint x="600" y="710" />
              <mxPoint x="450" y="710" />
            </Array>
          </mxGeometry>
        </mxCell>
        <mxCell id="hFWniswmaC6skhsBh9QU-39" value="change = change + 1" style="rounded=0;whiteSpace=wrap;html=1;" parent="1" vertex="1">
          <mxGeometry x="525" y="650" width="150" height="30" as="geometry" />
        </mxCell>
        <mxCell id="hFWniswmaC6skhsBh9QU-48" style="edgeStyle=orthogonalEdgeStyle;rounded=0;orthogonalLoop=1;jettySize=auto;html=1;exitX=0.5;exitY=1;exitDx=0;exitDy=0;entryX=0.5;entryY=0;entryDx=0;entryDy=0;" parent="1" source="hFWniswmaC6skhsBh9QU-42" target="hFWniswmaC6skhsBh9QU-28" edge="1">
          <mxGeometry relative="1" as="geometry" />
        </mxCell>
        <mxCell id="hFWniswmaC6skhsBh9QU-42" value="curr_row[j] = min(add, delete, change)" style="shape=process;whiteSpace=wrap;html=1;backgroundOutline=1;strokeWidth=1;" parent="1" vertex="1">
          <mxGeometry x="300" y="740" width="300" height="30" as="geometry" />
        </mxCell>
        <mxCell id="hFWniswmaC6skhsBh9QU-46" value="Да" style="text;html=1;align=center;verticalAlign=middle;resizable=0;points=[];autosize=1;strokeColor=none;fillColor=none;" parent="1" vertex="1">
          <mxGeometry x="515" y="585" width="40" height="30" as="geometry" />
        </mxCell>
        <mxCell id="hFWniswmaC6skhsBh9QU-47" value="Нет" style="text;html=1;align=center;verticalAlign=middle;resizable=0;points=[];autosize=1;strokeColor=none;fillColor=none;" parent="1" vertex="1">
          <mxGeometry x="345" y="585" width="40" height="30" as="geometry" />
        </mxCell>
        <mxCell id="hFWniswmaC6skhsBh9QU-49" style="edgeStyle=orthogonalEdgeStyle;rounded=0;orthogonalLoop=1;jettySize=auto;html=1;exitX=0.5;exitY=0;exitDx=0;exitDy=0;entryX=0.5;entryY=0;entryDx=0;entryDy=0;" parent="1" source="hFWniswmaC6skhsBh9QU-25" target="hFWniswmaC6skhsBh9QU-18" edge="1">
          <mxGeometry relative="1" as="geometry" />
        </mxCell>
        <mxCell id="PsgvYexTjF3b-B7FwYHQ-1" value="1" style="ellipse;whiteSpace=wrap;html=1;aspect=fixed;" parent="1" vertex="1">
          <mxGeometry x="95" y="560" width="30" height="30" as="geometry" />
        </mxCell>
        <mxCell id="PsgvYexTjF3b-B7FwYHQ-4" style="edgeStyle=orthogonalEdgeStyle;rounded=0;orthogonalLoop=1;jettySize=auto;html=1;exitX=0.5;exitY=1;exitDx=0;exitDy=0;entryX=0.5;entryY=0;entryDx=0;entryDy=0;" parent="1" source="PsgvYexTjF3b-B7FwYHQ-3" target="hFWniswmaC6skhsBh9QU-12" edge="1">
          <mxGeometry relative="1" as="geometry" />
        </mxCell>
        <mxCell id="PsgvYexTjF3b-B7FwYHQ-3" value="1" style="ellipse;whiteSpace=wrap;html=1;aspect=fixed;" parent="1" vertex="1">
          <mxGeometry x="435" y="10" width="30" height="30" as="geometry" />
        </mxCell>
        <mxCell id="AiHP4ovwcXP7AOzShspt-5" style="edgeStyle=orthogonalEdgeStyle;rounded=0;orthogonalLoop=1;jettySize=auto;html=1;exitX=0.5;exitY=1;exitDx=0;exitDy=0;entryX=0.5;entryY=0;entryDx=0;entryDy=0;entryPerimeter=0;" edge="1" parent="1" source="AiHP4ovwcXP7AOzShspt-1" target="AiHP4ovwcXP7AOzShspt-4">
          <mxGeometry relative="1" as="geometry" />
        </mxCell>
        <mxCell id="AiHP4ovwcXP7AOzShspt-1" value="Вывод curr_row[n]" style="shape=parallelogram;perimeter=parallelogramPerimeter;whiteSpace=wrap;html=1;fixedSize=1;" vertex="1" parent="1">
          <mxGeometry x="375" y="1080" width="150" height="30" as="geometry" />
        </mxCell>
        <mxCell id="AiHP4ovwcXP7AOzShspt-2" style="edgeStyle=orthogonalEdgeStyle;rounded=0;orthogonalLoop=1;jettySize=auto;html=1;exitX=0.5;exitY=0;exitDx=0;exitDy=0;entryX=0.5;entryY=0;entryDx=0;entryDy=0;" edge="1" parent="1" source="hFWniswmaC6skhsBh9QU-16" target="AiHP4ovwcXP7AOzShspt-1">
          <mxGeometry relative="1" as="geometry" />
        </mxCell>
        <mxCell id="AiHP4ovwcXP7AOzShspt-4" value="Конец" style="strokeWidth=1;html=1;shape=mxgraph.flowchart.terminator;whiteSpace=wrap;" vertex="1" parent="1">
          <mxGeometry x="400" y="1140" width="100" height="30" as="geometry" />
        </mxCell>
      </root>
    </mxGraphModel>
  </diagram>
</mxfile>
